<svg width="157" height="41" viewBox="0 0 157 41" fill="none" xmlns="http://www.w3.org/2000/svg">
<path d="M156.999 29.8917C135.931 33.6892 21.9475 16.8379 1.09604 33.523C-0.0382394 34.4961 8.74641 41.9249 9.51869 40.9044C24.7712 24.1955 150.845 46.4107 156.999 29.8917Z" fill="#FFD600"/>
<path d="M113.509 5.11044L113.498 5.10949L112.411 5.0146L112.398 5.01348L112.385 5.01106C112.055 4.94751 111.74 4.88391 111.442 4.82025L111.425 4.81672L111.409 4.81097C111.265 4.75899 111.137 4.6975 111.036 4.62185C110.942 4.5517 110.856 4.45807 110.816 4.33532C110.719 4.12948 110.739 3.88814 110.81 3.65044L110.813 3.64048L110.817 3.63079C110.919 3.36797 111.039 3.12036 111.177 2.88831C111.313 2.62773 111.453 2.40784 111.598 2.23321L111.602 2.22934L111.602 2.22937C111.768 2.03725 111.92 1.88704 112.051 1.8031L112.068 1.79218L112.086 1.78415C112.758 1.49411 113.43 1.26799 114.103 1.10629C114.788 0.941896 115.52 0.893104 116.297 0.957097C116.593 0.960076 116.858 1.08311 117.086 1.29711C117.334 1.47018 117.545 1.69098 117.72 1.95626C117.928 2.19229 118.088 2.44807 118.196 2.72361C118.234 2.80898 118.27 2.88663 118.302 2.95666C118.644 2.7012 119.017 2.45705 119.421 2.22405L119.427 2.22062L119.427 2.2207C119.965 1.93043 120.519 1.68821 121.09 1.49419C121.661 1.26882 122.234 1.10691 122.808 1.00915C123.375 0.881303 123.896 0.800402 124.37 0.76784L124.375 0.767556L124.375 0.76759C125.616 0.703149 126.747 0.815502 127.767 1.10915C128.78 1.40124 129.65 1.84142 130.371 2.43345C131.125 2.99467 131.709 3.70478 132.121 4.56063C132.533 5.3861 132.754 6.30655 132.788 7.31779C132.823 8.07565 132.719 8.86186 132.482 9.67509C132.246 10.4872 131.891 11.2811 131.421 12.0564C130.982 12.8341 130.426 13.5616 129.754 14.2389C129.324 14.6954 128.848 15.0941 128.327 15.4347C129.142 15.4692 129.94 15.58 130.72 15.7673C131.8 16.0266 132.751 16.4492 133.569 17.0379C134.425 17.5976 135.094 18.3234 135.574 19.2129C136.06 20.1128 136.281 21.1702 136.247 22.3753L136.246 22.3827L136.246 22.3827C136.178 23.5616 135.837 24.6749 135.225 25.7198C134.644 26.7372 133.793 27.6328 132.682 28.4092L132.678 28.412L132.678 28.412C131.563 29.1584 130.218 29.7219 128.649 30.107C127.108 30.525 125.34 30.716 123.348 30.6843M113.509 5.11044L123.35 30.4343M113.509 5.11044H113.519H113.522H113.524H113.526H113.528H113.53H113.532H113.534H113.536H113.538H113.541H113.543H113.545H113.547H113.549H113.551H113.553H113.555H113.557H113.56H113.562H113.564H113.566H113.568H113.57H113.572H113.574H113.576H113.578H113.581H113.583H113.585H113.587H113.589H113.591H113.593H113.595H113.597H113.599H113.601H113.603H113.606H113.608H113.61H113.612H113.614H113.616H113.618H113.62H113.622H113.624H113.626H113.628H113.63H113.632H113.634H113.637H113.639H113.641H113.643H113.645H113.647H113.649H113.651H113.653H113.655H113.657H113.659H113.661H113.663H113.665H113.667H113.669H113.671H113.673H113.675H113.677H113.68H113.682H113.684H113.686H113.688H113.69H113.692H113.694H113.696H113.698H113.7H113.702H113.704H113.706H113.708H113.71H113.712H113.714H113.716H113.718H113.72H113.722H113.724H113.726H113.728H113.73H113.732H113.734H113.736H113.738H113.74H113.742H113.744H113.746H113.748H113.75H113.752H113.754H113.756H113.758H113.76H113.762H113.764H113.766H113.768H113.77H113.772H113.774H113.776H113.778H113.78H113.782H113.784H113.786H113.788H113.79H113.792H113.794H113.796H113.798H113.8H113.802H113.804H113.806H113.807H113.809H113.811H113.813H113.815H113.817H113.819H113.821H113.823H113.825H113.827H113.829H113.831H113.833H113.835H113.837H113.839H113.841H113.843H113.845H113.847H113.848H113.85H113.852H113.854H113.856H113.858H113.86H113.862H113.864H113.866H113.868H113.87H113.872H113.874H113.876H113.877H113.879H113.881H113.883H113.885H113.887H113.889H113.891H113.893H113.895H113.897H113.899H113.9H113.902H113.904H113.906H113.908H113.91H113.912H113.914H113.916H113.918H113.919H113.921H113.923H113.925H113.927H113.929H113.931H113.933H113.935H113.936H113.938H113.94H113.942H113.944H113.946H113.948H113.95H113.952H113.953H113.955H113.957H113.959H113.961H113.963H113.965H113.967H113.968H113.97H113.972H113.974H113.976H113.978H113.98H113.981H113.983H113.985H113.987H113.989H113.991H113.993H113.994H113.996H113.998H114H114.002H114.004H114.006H114.007H114.009H114.011H114.013H114.015H114.017H114.018H114.02H114.022H114.024H114.026H114.028H114.029H114.031H114.033H114.035H114.037H114.039H114.04H114.042H114.044H114.046H114.048H114.05H114.051H114.053H114.055H114.057H114.059H114.06H114.062H114.064H114.066H114.068H114.069H114.071H114.073H114.075H114.077H114.078H114.08H114.082H114.084H114.086H114.087H114.089H114.091H114.093H114.095H114.096H114.098H114.1H114.102H114.104H114.105H114.107H114.109H114.111H114.112H114.114H114.116H114.118H114.12H114.121H114.123H114.125H114.127H114.128H114.13H114.132H114.134H114.136H114.137H114.139H114.141H114.143H114.144H114.146H114.148H114.15H114.151H114.153H114.155H114.157H114.158H114.16H114.162H114.164H114.165H114.167H114.169H114.171H114.172H114.174H114.176H114.178H114.179H114.181H114.183H114.184H114.186H114.188H114.19H114.191H114.193H114.195H114.197H114.198H114.2H114.202H114.203H114.205H114.207H114.209H114.21H114.212H114.214H114.215H114.217H114.219M113.509 5.11044L114.653 15.1654M123.348 30.6843C123.347 30.6842 123.347 30.6842 123.346 30.6842L123.35 30.4343M123.348 30.6843C123.349 30.6843 123.349 30.6843 123.35 30.6843V30.4343M123.348 30.6843C123 30.6841 122.542 30.6344 121.981 30.5396M123.35 30.4343C123.021 30.4343 122.576 30.3868 122.016 30.2919M121.981 30.5396C121.984 30.5398 121.986 30.5401 121.988 30.5403L122.016 30.2919M121.981 30.5396C121.41 30.4746 120.839 30.3615 120.269 30.2004L120.265 30.1993L120.265 30.1992C119.728 30.0382 119.255 29.8599 118.845 29.6632L118.838 29.6598L118.831 29.656C118.42 29.4256 118.111 29.124 118.111 28.7262C118.111 28.3353 118.436 28.1049 118.813 27.9714M121.981 30.5396C121.979 30.5392 121.977 30.5388 121.975 30.5384L122.016 30.2919M122.016 30.2919L118.813 27.9714M118.813 27.9714C118.81 27.9727 118.807 27.9739 118.804 27.9751L118.904 28.2043M118.813 27.9714L118.953 29.4379C118.558 29.2165 118.361 28.9792 118.361 28.7262C118.361 28.5048 118.542 28.3308 118.904 28.2043M118.813 27.9714C118.816 27.9704 118.819 27.9693 118.822 27.9682L118.904 28.2043M118.813 27.9714C119.194 27.806 119.638 27.6759 120.141 27.5792C120.641 27.4831 121.158 27.4032 121.69 27.3392C122.217 27.276 122.629 27.2285 122.927 27.1967M118.904 28.2043C119.266 28.0461 119.695 27.9196 120.189 27.8247C120.683 27.7298 121.193 27.6507 121.72 27.5875C122.247 27.5242 122.659 27.4767 122.955 27.4451M122.955 27.4451L122.926 27.1968C122.926 27.1968 122.927 27.1967 122.927 27.1967M122.955 27.4451C125.656 27.1288 127.681 26.4329 129.031 25.3575M122.955 27.4451L122.928 27.1965C122.928 27.1966 122.928 27.1966 122.927 27.1967M122.927 27.1967C125.605 26.8829 127.577 26.196 128.875 25.162M129.031 25.3575L128.875 25.1623C128.875 25.1622 128.875 25.1621 128.875 25.162M129.031 25.3575C130.414 24.2504 131.073 23.0009 131.007 21.6092L127.006 17.766C126.281 17.5762 125.524 17.4022 124.733 17.2441M129.031 25.3575L128.875 25.1619C128.875 25.1619 128.875 25.162 128.875 25.162M128.875 25.162C130.215 24.09 130.819 22.9113 130.758 21.621L130.758 21.6205C130.726 20.9325 130.541 20.3837 130.216 19.9579L130.211 19.9518L130.211 19.9517C129.873 19.4793 129.426 19.0928 128.864 18.7931L128.857 18.7892L128.85 18.7849C128.316 18.4529 127.682 18.1931 126.945 18.0085L126.942 18.0078C126.245 17.8252 125.517 17.6572 124.757 17.5039M124.757 17.5039C124.781 17.4946 124.804 17.4852 124.827 17.4757L124.733 17.2441M124.757 17.5039C123.909 17.8422 123.073 18.0602 122.25 18.1558M124.757 17.5039C124.733 17.499 124.709 17.4941 124.684 17.4892L124.733 17.2441M124.733 17.2441L122.25 18.1558M122.25 18.1558C122.252 18.1554 122.255 18.155 122.257 18.1546L122.214 17.9083L122.243 18.1567C122.245 18.1564 122.247 18.1561 122.25 18.1558ZM122.25 18.1558C121.874 18.2209 121.484 18.2532 121.078 18.2532H121.068L121.058 18.2524C120.838 18.2348 120.638 18.1848 120.477 18.0854C120.309 17.9818 120.194 17.8304 120.144 17.6392L120.142 17.6326L120.143 17.6325C120.052 17.2413 120.219 16.8174 120.527 16.3897M122.25 18.1558L121.078 18.0032C120.683 17.9716 120.452 17.8292 120.386 17.5762C120.32 17.2915 120.436 16.9436 120.732 16.5323M120.527 16.3897C120.526 16.3909 120.525 16.3921 120.524 16.3933L120.732 16.5323M120.527 16.3897C120.527 16.3885 120.528 16.3873 120.529 16.3862L120.732 16.5323M120.527 16.3897C120.844 15.9161 121.252 15.542 121.746 15.2701M120.732 16.5323C121.028 16.0895 121.407 15.7416 121.868 15.4885M121.868 15.4885L121.745 15.2709C121.746 15.2706 121.746 15.2704 121.746 15.2701M121.868 15.4885C122.428 15.1722 123.054 14.7768 123.745 14.3024M121.868 15.4885L121.748 15.2694C121.747 15.2696 121.747 15.2699 121.746 15.2701M121.746 15.2701C122.298 14.9585 122.917 14.5677 123.603 14.0968M123.745 14.3024L123.602 14.0974C123.602 14.0972 123.603 14.097 123.603 14.0968M123.745 14.3024C124.47 13.7963 125.145 13.2269 125.771 12.5943M123.745 14.3024L123.604 14.0962C123.604 14.0964 123.603 14.0966 123.603 14.0968M123.603 14.0968C124.315 13.5996 124.978 13.0402 125.593 12.4185L125.593 12.4182C126.234 11.7717 126.745 11.0657 127.128 10.3L127.132 10.2926L127.132 10.2927C127.538 9.54326 127.726 8.71786 127.695 7.81081L127.695 7.81054C127.664 6.90158 127.302 6.16155 126.599 5.57424L126.594 5.57072L126.594 5.57068C125.927 4.98754 125.019 4.68342 123.844 4.68342C122.787 4.68342 121.815 4.86789 120.926 5.23396L120.919 5.23679L120.919 5.23669C120.065 5.55883 119.365 5.9752 118.814 6.48196M125.771 12.5943L127.944 7.80214C127.911 6.82158 127.516 6.01498 126.759 5.38236C126.034 4.74973 125.063 4.43342 123.844 4.43342C122.757 4.43342 121.753 4.62321 120.831 5.00278C119.909 5.35073 119.151 5.80938 118.558 6.37874M125.771 12.5943C126.429 11.93 126.956 11.2025 127.352 10.4117L125.771 12.5943ZM118.814 6.48196C118.812 6.44337 118.81 6.40493 118.808 6.36665L118.558 6.37874M118.814 6.48196C118.786 6.50743 118.758 6.53312 118.731 6.55905L118.558 6.37874M118.814 6.48196C118.878 7.81526 118.942 9.32765 119.006 11.0191C119.072 12.7615 119.105 14.3937 119.105 15.9155C119.105 17.6315 119.022 19.5203 118.857 21.5817C118.691 23.6497 118.377 25.6393 117.912 27.5503M118.558 6.37874C118.624 7.73888 118.69 9.28881 118.756 11.0285C118.822 12.7682 118.855 14.3972 118.855 15.9155C118.855 17.6236 118.772 19.5057 118.608 21.5617C118.443 23.6177 118.13 25.5947 117.669 27.4926M117.669 27.4926L117.913 27.5489C117.913 27.5494 117.912 27.5498 117.912 27.5503M117.669 27.4926C117.603 27.7772 117.471 28.1726 117.274 28.6787M117.669 27.4926L117.912 27.5516C117.912 27.5511 117.912 27.5507 117.912 27.5503M117.912 27.5503C117.842 27.8517 117.706 28.2585 117.508 28.7652M117.274 28.6787L117.51 28.7607C117.51 28.7622 117.509 28.7637 117.508 28.7652M117.274 28.6787C117.109 29.1532 116.895 29.6435 116.632 30.1496M117.274 28.6787L117.507 28.7697C117.507 28.7682 117.508 28.7667 117.508 28.7652M117.508 28.7652C117.34 29.2493 117.123 29.7474 116.856 30.2592M116.632 30.1496L116.859 30.2532C116.858 30.2552 116.857 30.2572 116.856 30.2592M116.632 30.1496C116.401 30.6557 116.138 31.0827 115.841 31.4306M116.632 30.1496L116.853 30.265C116.854 30.2631 116.855 30.2611 116.856 30.2592M116.856 30.2592C116.621 30.775 116.349 31.2176 116.04 31.5834M115.841 31.4306L116.047 31.5732C116.044 31.5766 116.042 31.58 116.04 31.5834M115.841 31.4306C115.578 31.8102 115.331 32 115.1 32C114.936 32 114.754 31.8893 114.557 31.6679C114.392 31.4465 114.244 31.2092 114.112 30.9562C113.981 30.7031 113.865 30.4501 113.766 30.197C113.701 29.9756 113.668 29.8333 113.668 29.77C113.701 29.3904 113.75 29.0267 113.816 28.6787C113.915 28.2992 113.997 27.9354 114.063 27.5875C114.228 26.7334 114.359 25.7845 114.458 24.7406C114.59 23.6652 114.689 22.5739 114.754 21.4668C114.853 20.3597 114.903 19.2684 114.903 18.193C114.936 17.0859 114.936 16.0737 114.903 15.1564M115.841 31.4306L116.032 31.5928C116.034 31.5896 116.037 31.5865 116.04 31.5834M116.04 31.5834C115.902 31.7805 115.759 31.9416 115.611 32.0559C115.459 32.1727 115.287 32.25 115.1 32.25C114.825 32.25 114.58 32.0693 114.37 31.8343L114.363 31.826L114.356 31.8171C114.183 31.5846 114.028 31.3361 113.89 31.0716C113.755 30.811 113.636 30.5498 113.534 30.288L113.53 30.2783L113.527 30.2683C113.493 30.1551 113.467 30.0588 113.449 29.9806C113.432 29.9086 113.418 29.8327 113.418 29.77V29.7592L113.419 29.7484C113.452 29.3611 113.503 28.989 113.57 28.6322L113.572 28.6239L113.574 28.6158C113.671 28.2411 113.752 27.8828 113.817 27.5409L113.817 27.5401C113.98 26.6953 114.111 25.7545 114.209 24.7171L114.21 24.7102L114.21 24.7102C114.341 23.6401 114.439 22.554 114.505 21.452L114.505 21.4446L114.505 21.4446C114.604 20.3446 114.653 19.2608 114.653 18.193V18.1856L114.653 18.1856C114.686 17.0832 114.686 16.0769 114.653 15.1663L114.653 15.1672L114.903 15.1564M114.903 15.1564L114.653 15.1654M114.903 15.1564L114.458 4.86044M114.653 15.1654L113.519 4.86044H114.458M114.653 15.1654L114.219 5.11044M114.458 4.86044L114.208 4.87123L114.219 5.11044M114.458 4.86044V5.11044H114.456H114.455H114.453H114.452H114.45H114.449H114.447H114.446H114.444H114.443H114.441H114.439H114.438H114.436H114.435H114.433H114.432H114.43H114.429H114.427H114.425H114.424H114.422H114.421H114.419H114.418H114.416H114.414H114.413H114.411H114.41H114.408H114.406H114.405H114.403H114.402H114.4H114.399H114.397H114.395H114.394H114.392H114.391H114.389H114.387H114.386H114.384H114.383H114.381H114.379H114.378H114.376H114.375H114.373H114.371H114.37H114.368H114.367H114.365H114.363H114.362H114.36H114.359H114.357H114.355H114.354H114.352H114.35H114.349H114.347H114.346H114.344H114.342H114.341H114.339H114.337H114.336H114.334H114.333H114.331H114.329H114.328H114.326H114.324H114.323H114.321H114.319H114.318H114.316H114.315H114.313H114.311H114.31H114.308H114.306H114.305H114.303H114.301H114.3H114.298H114.296H114.295H114.293H114.291H114.29H114.288H114.286H114.285H114.283H114.281H114.28H114.278H114.276H114.275H114.273H114.271H114.27H114.268H114.266H114.265H114.263H114.261H114.26H114.258H114.256H114.255H114.253H114.251H114.249H114.248H114.246H114.244H114.243H114.241H114.239H114.238H114.236H114.234H114.233H114.231H114.229H114.227H114.226H114.224H114.222H114.221H114.219H114.219" fill="#FFD600" stroke="#FFD600" stroke-width="0.5"/>
</svg>
