<svg width="157" height="40" viewBox="0 0 157 40" fill="none" xmlns="http://www.w3.org/2000/svg">
<path d="M156.999 28.8917C135.931 32.6892 21.9475 15.8379 1.09604 32.523C-0.0382393 33.4961 8.74641 40.9249 9.51869 39.9044C24.7712 23.1955 150.845 45.4107 156.999 28.8917Z" fill="#FFD600"/>
<mask id="path-2-outside-1_31_7800" maskUnits="userSpaceOnUse" x="85" y="0" width="60" height="31" fill="black">
<rect fill="white" x="85" width="60" height="31"/>
<path d="M88.8319 4.8248C88.5247 4.79626 88.1896 4.69636 87.8265 4.5251C87.4634 4.3253 87.1283 4.09695 86.8211 3.84006C86.5418 3.58317 86.3184 3.31201 86.1508 3.02657C85.9832 2.7126 85.9553 2.39862 86.067 2.08464C86.1508 1.8563 86.4441 1.78494 86.9468 1.87057C87.4774 1.92766 88.1058 1.97047 88.8319 1.99902C89.6698 2.02756 90.6193 2.01329 91.6806 1.9562C92.7419 1.89911 93.831 1.82776 94.9482 1.74213C96.0932 1.6565 97.2243 1.55659 98.3414 1.44242C99.4865 1.2997 100.534 1.15699 101.483 1.01427C101.679 0.985729 101.93 1 102.237 1.05709C102.545 1.11417 102.838 1.1998 103.117 1.31398C103.396 1.39961 103.634 1.51378 103.829 1.6565C104.053 1.79921 104.164 1.9562 104.164 2.12746C104.164 2.29872 104.095 2.5128 103.955 2.76969C103.815 3.02658 103.62 3.29774 103.369 3.58317C103.117 3.84006 102.81 4.08268 102.447 4.31102C102.084 4.53937 101.693 4.68209 101.274 4.73917C100.548 4.85335 99.8496 4.95325 99.1793 5.03888C98.5369 5.09596 97.8806 5.13878 97.2104 5.16732C96.5401 5.19587 95.8419 5.22441 95.1157 5.25295C94.3896 5.25295 93.5937 5.25295 92.7279 5.25295C92.7558 6.56594 92.7837 7.85039 92.8117 9.1063C92.8396 10.3622 92.8256 11.4897 92.7698 12.4887C93.6076 12.4601 94.3617 12.4316 95.032 12.4031C95.7302 12.346 96.4004 12.3032 97.0428 12.2746C97.6851 12.2175 98.3275 12.1604 98.9698 12.1033C99.6401 12.0463 100.352 11.9749 101.106 11.8893C101.274 11.8607 101.497 11.8322 101.777 11.8036C102.056 11.7466 102.335 11.718 102.614 11.718C102.922 11.6895 103.201 11.7037 103.452 11.7608C103.704 11.8179 103.857 11.9464 103.913 12.1462C104.025 12.4887 103.983 12.8883 103.787 13.345C103.592 13.8017 103.313 14.2441 102.95 14.6722C102.614 15.0719 102.237 15.4144 101.818 15.6998C101.4 15.9852 101.05 16.128 100.771 16.128H92.7698C92.7698 17.0699 92.7419 18.1117 92.686 19.2534C92.6581 20.3952 92.5882 21.4227 92.4765 22.3361C92.3648 23.3351 92.1693 24.2771 91.89 25.1619C91.6387 26.0182 91.3594 26.7746 91.0522 27.4311C90.745 28.0876 90.4378 28.6014 90.1306 28.9724C89.8234 29.372 89.558 29.5719 89.3346 29.5719C89.1391 29.5719 88.8878 29.3863 88.5806 29.0153C88.2733 28.6727 88.1197 28.3017 88.1197 27.9021C88.1197 27.8735 88.1616 27.688 88.2454 27.3455C88.3292 27.003 88.3851 26.7318 88.413 26.532C88.4968 25.8469 88.5666 25.2333 88.6225 24.6909C88.6783 24.1486 88.7202 23.6063 88.7481 23.064C88.7761 22.5217 88.79 21.9508 88.79 21.3514C88.8179 20.7234 88.8319 19.9956 88.8319 19.1678V4.8248Z"/>
<path d="M103.576 11.7608C103.381 11.6181 103.157 11.4754 102.906 11.3327C102.655 11.1614 102.403 10.9902 102.152 10.8189C101.929 10.6476 101.733 10.4478 101.566 10.2195C101.398 9.99114 101.314 9.74852 101.314 9.49163C101.314 9.29183 101.468 9.12057 101.775 8.97785C102.082 8.80659 102.334 8.69242 102.529 8.63533C102.892 8.52116 103.367 8.40699 103.953 8.29282C104.568 8.1501 105.112 8.12156 105.587 8.20719C105.755 8.23573 105.922 8.32136 106.09 8.46407C106.285 8.57825 106.453 8.72096 106.593 8.89222C106.76 9.06348 106.886 9.24902 106.97 9.44882C107.081 9.62008 107.137 9.77707 107.137 9.91978V10.9902C107.807 10.3907 108.548 9.93406 109.357 9.62008C110.167 9.3061 110.81 9.14911 111.284 9.14911C112.094 9.14911 112.779 9.34892 113.337 9.74852C113.896 10.1481 114.329 10.6762 114.636 11.3327C114.748 11.561 114.845 11.875 114.929 12.2746C115.013 12.6742 114.985 12.9739 114.845 13.1737C114.734 13.345 114.524 13.5876 114.217 13.9016C113.938 14.187 113.644 14.3012 113.337 14.2441C113.114 14.2156 112.89 14.1157 112.667 13.9444C112.444 13.7446 112.22 13.5448 111.997 13.345C111.773 13.1452 111.536 12.9596 111.284 12.7884C111.061 12.6171 110.824 12.5315 110.572 12.5315C109.93 12.5315 109.288 12.717 108.645 13.0881C108.031 13.4592 107.528 13.873 107.137 14.3297V22.0792C107.137 22.9926 107.123 23.9203 107.095 24.8622C107.095 25.8041 107.053 26.6604 106.97 27.4311C106.914 28.1732 106.816 28.7869 106.676 29.2721C106.537 29.7574 106.327 30 106.048 30C105.797 30 105.517 29.8573 105.21 29.5719C104.931 29.2864 104.666 28.8725 104.414 28.3302C104.191 27.7879 103.995 27.1171 103.828 26.3179C103.66 25.5187 103.576 24.6053 103.576 23.5778V11.7608Z"/>
<path d="M120.816 29.2293C119.363 29.2008 118.093 28.8583 117.003 28.2018C115.942 27.5738 115.076 26.7603 114.406 25.7613C113.736 24.7338 113.275 23.6063 113.024 22.3789C112.772 21.123 112.73 19.8957 112.898 18.6969C113.066 17.3839 113.415 16.185 113.945 15.1004C114.504 14.0157 115.202 13.1024 116.04 12.3602C116.878 11.6181 117.855 11.0615 118.972 10.6905C120.089 10.2908 121.304 10.1339 122.617 10.2195C123.734 10.3051 124.67 10.6048 125.424 11.1186C126.178 11.6324 126.792 12.2175 127.267 12.874C127.742 13.5305 128.091 14.187 128.314 14.8435C128.538 15.5 128.677 15.9995 128.733 16.342C129.013 16.5704 129.25 16.8701 129.445 17.2411C129.641 17.6122 129.739 17.8691 129.739 18.0118C129.655 18.44 129.082 18.7682 128.021 18.9966C127.602 19.0822 126.904 19.1821 125.926 19.2963C124.949 19.4104 123.888 19.5246 122.743 19.6388C121.626 19.753 120.522 19.8386 119.433 19.8957C118.372 19.9528 117.548 19.967 116.962 19.9385C116.906 20.4808 116.906 21.0945 116.962 21.7795C117.017 22.4646 117.185 23.1211 117.464 23.749C117.744 24.3484 118.162 24.8622 118.721 25.2904C119.28 25.7185 120.034 25.9468 120.983 25.9754C121.598 26.0325 122.254 25.9897 122.952 25.8469C123.678 25.7042 124.181 25.5758 124.46 25.4616C125.522 25.0906 126.29 24.7908 126.764 24.5625C127.239 24.3342 127.574 24.3342 127.77 24.5625C127.937 24.7338 127.909 25.1191 127.686 25.7185C127.49 26.3179 126.974 26.9601 126.136 27.6452C125.298 28.3017 124.39 28.7298 123.413 28.9296C122.435 29.1294 121.57 29.2293 120.816 29.2293ZM125.089 16.2564C125.005 15.8282 124.837 15.4001 124.586 14.9719C124.362 14.5153 124.055 14.1299 123.664 13.8159C123.301 13.4734 122.868 13.2165 122.366 13.0453C121.891 12.874 121.374 12.8455 120.816 12.9596C120.285 13.0453 119.81 13.2451 119.391 13.5591C119 13.873 118.651 14.2441 118.344 14.6722C118.037 15.1004 117.785 15.5571 117.59 16.0423C117.394 16.5276 117.255 16.9985 117.171 17.4552C118.679 17.2269 120.062 17.0128 121.318 16.813C122.575 16.6132 123.832 16.4277 125.089 16.2564Z"/>
<path d="M135.077 29.2293C133.625 29.2008 132.354 28.8583 131.265 28.2018C130.204 27.5738 129.338 26.7603 128.667 25.7613C127.997 24.7338 127.536 23.6063 127.285 22.3789C127.034 21.123 126.992 19.8957 127.159 18.6969C127.327 17.3839 127.676 16.185 128.207 15.1004C128.765 14.0157 129.463 13.1024 130.301 12.3602C131.139 11.6181 132.117 11.0615 133.234 10.6905C134.351 10.2908 135.566 10.1339 136.878 10.2195C137.995 10.3051 138.931 10.6048 139.685 11.1186C140.439 11.6324 141.054 12.2175 141.528 12.874C142.003 13.5305 142.352 14.187 142.576 14.8435C142.799 15.5 142.939 15.9995 142.995 16.342C143.274 16.5704 143.511 16.8701 143.707 17.2411C143.902 17.6122 144 17.8691 144 18.0118C143.916 18.44 143.344 18.7682 142.282 18.9966C141.863 19.0822 141.165 19.1821 140.188 19.2963C139.21 19.4104 138.149 19.5246 137.004 19.6388C135.887 19.753 134.784 19.8386 133.695 19.8957C132.633 19.9528 131.809 19.967 131.223 19.9385C131.167 20.4808 131.167 21.0945 131.223 21.7795C131.279 22.4646 131.446 23.1211 131.726 23.749C132.005 24.3484 132.424 24.8622 132.982 25.2904C133.541 25.7185 134.295 25.9468 135.245 25.9754C135.859 26.0325 136.515 25.9897 137.213 25.8469C137.94 25.7042 138.442 25.5758 138.722 25.4616C139.783 25.0906 140.551 24.7908 141.026 24.5625C141.5 24.3342 141.836 24.3342 142.031 24.5625C142.199 24.7338 142.171 25.1191 141.947 25.7185C141.752 26.3179 141.235 26.9601 140.397 27.6452C139.559 28.3017 138.652 28.7298 137.674 28.9296C136.697 29.1294 135.831 29.2293 135.077 29.2293ZM139.35 16.2564C139.266 15.8282 139.099 15.4001 138.847 14.9719C138.624 14.5153 138.317 14.1299 137.926 13.8159C137.563 13.4734 137.13 13.2165 136.627 13.0453C136.152 12.874 135.636 12.8455 135.077 12.9596C134.546 13.0453 134.072 13.2451 133.653 13.5591C133.262 13.873 132.913 14.2441 132.605 14.6722C132.298 15.1004 132.047 15.5571 131.851 16.0423C131.656 16.5276 131.516 16.9985 131.432 17.4552C132.94 17.2269 134.323 17.0128 135.58 16.813C136.836 16.6132 138.093 16.4277 139.35 16.2564Z"/>
</mask>
<path d="M88.8319 4.8248C88.5247 4.79626 88.1896 4.69636 87.8265 4.5251C87.4634 4.3253 87.1283 4.09695 86.8211 3.84006C86.5418 3.58317 86.3184 3.31201 86.1508 3.02657C85.9832 2.7126 85.9553 2.39862 86.067 2.08464C86.1508 1.8563 86.4441 1.78494 86.9468 1.87057C87.4774 1.92766 88.1058 1.97047 88.8319 1.99902C89.6698 2.02756 90.6193 2.01329 91.6806 1.9562C92.7419 1.89911 93.831 1.82776 94.9482 1.74213C96.0932 1.6565 97.2243 1.55659 98.3414 1.44242C99.4865 1.2997 100.534 1.15699 101.483 1.01427C101.679 0.985729 101.93 1 102.237 1.05709C102.545 1.11417 102.838 1.1998 103.117 1.31398C103.396 1.39961 103.634 1.51378 103.829 1.6565C104.053 1.79921 104.164 1.9562 104.164 2.12746C104.164 2.29872 104.095 2.5128 103.955 2.76969C103.815 3.02658 103.62 3.29774 103.369 3.58317C103.117 3.84006 102.81 4.08268 102.447 4.31102C102.084 4.53937 101.693 4.68209 101.274 4.73917C100.548 4.85335 99.8496 4.95325 99.1793 5.03888C98.5369 5.09596 97.8806 5.13878 97.2104 5.16732C96.5401 5.19587 95.8419 5.22441 95.1157 5.25295C94.3896 5.25295 93.5937 5.25295 92.7279 5.25295C92.7558 6.56594 92.7837 7.85039 92.8117 9.1063C92.8396 10.3622 92.8256 11.4897 92.7698 12.4887C93.6076 12.4601 94.3617 12.4316 95.032 12.4031C95.7302 12.346 96.4004 12.3032 97.0428 12.2746C97.6851 12.2175 98.3275 12.1604 98.9698 12.1033C99.6401 12.0463 100.352 11.9749 101.106 11.8893C101.274 11.8607 101.497 11.8322 101.777 11.8036C102.056 11.7466 102.335 11.718 102.614 11.718C102.922 11.6895 103.201 11.7037 103.452 11.7608C103.704 11.8179 103.857 11.9464 103.913 12.1462C104.025 12.4887 103.983 12.8883 103.787 13.345C103.592 13.8017 103.313 14.2441 102.95 14.6722C102.614 15.0719 102.237 15.4144 101.818 15.6998C101.4 15.9852 101.05 16.128 100.771 16.128H92.7698C92.7698 17.0699 92.7419 18.1117 92.686 19.2534C92.6581 20.3952 92.5882 21.4227 92.4765 22.3361C92.3648 23.3351 92.1693 24.2771 91.89 25.1619C91.6387 26.0182 91.3594 26.7746 91.0522 27.4311C90.745 28.0876 90.4378 28.6014 90.1306 28.9724C89.8234 29.372 89.558 29.5719 89.3346 29.5719C89.1391 29.5719 88.8878 29.3863 88.5806 29.0153C88.2733 28.6727 88.1197 28.3017 88.1197 27.9021C88.1197 27.8735 88.1616 27.688 88.2454 27.3455C88.3292 27.003 88.3851 26.7318 88.413 26.532C88.4968 25.8469 88.5666 25.2333 88.6225 24.6909C88.6783 24.1486 88.7202 23.6063 88.7481 23.064C88.7761 22.5217 88.79 21.9508 88.79 21.3514C88.8179 20.7234 88.8319 19.9956 88.8319 19.1678V4.8248Z" fill="#FFD600"/>
<path d="M103.576 11.7608C103.381 11.6181 103.157 11.4754 102.906 11.3327C102.655 11.1614 102.403 10.9902 102.152 10.8189C101.929 10.6476 101.733 10.4478 101.566 10.2195C101.398 9.99114 101.314 9.74852 101.314 9.49163C101.314 9.29183 101.468 9.12057 101.775 8.97785C102.082 8.80659 102.334 8.69242 102.529 8.63533C102.892 8.52116 103.367 8.40699 103.953 8.29282C104.568 8.1501 105.112 8.12156 105.587 8.20719C105.755 8.23573 105.922 8.32136 106.09 8.46407C106.285 8.57825 106.453 8.72096 106.593 8.89222C106.76 9.06348 106.886 9.24902 106.97 9.44882C107.081 9.62008 107.137 9.77707 107.137 9.91978V10.9902C107.807 10.3907 108.548 9.93406 109.357 9.62008C110.167 9.3061 110.81 9.14911 111.284 9.14911C112.094 9.14911 112.779 9.34892 113.337 9.74852C113.896 10.1481 114.329 10.6762 114.636 11.3327C114.748 11.561 114.845 11.875 114.929 12.2746C115.013 12.6742 114.985 12.9739 114.845 13.1737C114.734 13.345 114.524 13.5876 114.217 13.9016C113.938 14.187 113.644 14.3012 113.337 14.2441C113.114 14.2156 112.89 14.1157 112.667 13.9444C112.444 13.7446 112.22 13.5448 111.997 13.345C111.773 13.1452 111.536 12.9596 111.284 12.7884C111.061 12.6171 110.824 12.5315 110.572 12.5315C109.93 12.5315 109.288 12.717 108.645 13.0881C108.031 13.4592 107.528 13.873 107.137 14.3297V22.0792C107.137 22.9926 107.123 23.9203 107.095 24.8622C107.095 25.8041 107.053 26.6604 106.97 27.4311C106.914 28.1732 106.816 28.7869 106.676 29.2721C106.537 29.7574 106.327 30 106.048 30C105.797 30 105.517 29.8573 105.21 29.5719C104.931 29.2864 104.666 28.8725 104.414 28.3302C104.191 27.7879 103.995 27.1171 103.828 26.3179C103.66 25.5187 103.576 24.6053 103.576 23.5778V11.7608Z" fill="#FFD600"/>
<path d="M120.816 29.2293C119.363 29.2008 118.093 28.8583 117.003 28.2018C115.942 27.5738 115.076 26.7603 114.406 25.7613C113.736 24.7338 113.275 23.6063 113.024 22.3789C112.772 21.123 112.73 19.8957 112.898 18.6969C113.066 17.3839 113.415 16.185 113.945 15.1004C114.504 14.0157 115.202 13.1024 116.04 12.3602C116.878 11.6181 117.855 11.0615 118.972 10.6905C120.089 10.2908 121.304 10.1339 122.617 10.2195C123.734 10.3051 124.67 10.6048 125.424 11.1186C126.178 11.6324 126.792 12.2175 127.267 12.874C127.742 13.5305 128.091 14.187 128.314 14.8435C128.538 15.5 128.677 15.9995 128.733 16.342C129.013 16.5704 129.25 16.8701 129.445 17.2411C129.641 17.6122 129.739 17.8691 129.739 18.0118C129.655 18.44 129.082 18.7682 128.021 18.9966C127.602 19.0822 126.904 19.1821 125.926 19.2963C124.949 19.4104 123.888 19.5246 122.743 19.6388C121.626 19.753 120.522 19.8386 119.433 19.8957C118.372 19.9528 117.548 19.967 116.962 19.9385C116.906 20.4808 116.906 21.0945 116.962 21.7795C117.017 22.4646 117.185 23.1211 117.464 23.749C117.744 24.3484 118.162 24.8622 118.721 25.2904C119.28 25.7185 120.034 25.9468 120.983 25.9754C121.598 26.0325 122.254 25.9897 122.952 25.8469C123.678 25.7042 124.181 25.5758 124.46 25.4616C125.522 25.0906 126.29 24.7908 126.764 24.5625C127.239 24.3342 127.574 24.3342 127.77 24.5625C127.937 24.7338 127.909 25.1191 127.686 25.7185C127.49 26.3179 126.974 26.9601 126.136 27.6452C125.298 28.3017 124.39 28.7298 123.413 28.9296C122.435 29.1294 121.57 29.2293 120.816 29.2293ZM125.089 16.2564C125.005 15.8282 124.837 15.4001 124.586 14.9719C124.362 14.5153 124.055 14.1299 123.664 13.8159C123.301 13.4734 122.868 13.2165 122.366 13.0453C121.891 12.874 121.374 12.8455 120.816 12.9596C120.285 13.0453 119.81 13.2451 119.391 13.5591C119 13.873 118.651 14.2441 118.344 14.6722C118.037 15.1004 117.785 15.5571 117.59 16.0423C117.394 16.5276 117.255 16.9985 117.171 17.4552C118.679 17.2269 120.062 17.0128 121.318 16.813C122.575 16.6132 123.832 16.4277 125.089 16.2564Z" fill="#FFD600"/>
<path d="M135.077 29.2293C133.625 29.2008 132.354 28.8583 131.265 28.2018C130.204 27.5738 129.338 26.7603 128.667 25.7613C127.997 24.7338 127.536 23.6063 127.285 22.3789C127.034 21.123 126.992 19.8957 127.159 18.6969C127.327 17.3839 127.676 16.185 128.207 15.1004C128.765 14.0157 129.463 13.1024 130.301 12.3602C131.139 11.6181 132.117 11.0615 133.234 10.6905C134.351 10.2908 135.566 10.1339 136.878 10.2195C137.995 10.3051 138.931 10.6048 139.685 11.1186C140.439 11.6324 141.054 12.2175 141.528 12.874C142.003 13.5305 142.352 14.187 142.576 14.8435C142.799 15.5 142.939 15.9995 142.995 16.342C143.274 16.5704 143.511 16.8701 143.707 17.2411C143.902 17.6122 144 17.8691 144 18.0118C143.916 18.44 143.344 18.7682 142.282 18.9966C141.863 19.0822 141.165 19.1821 140.188 19.2963C139.21 19.4104 138.149 19.5246 137.004 19.6388C135.887 19.753 134.784 19.8386 133.695 19.8957C132.633 19.9528 131.809 19.967 131.223 19.9385C131.167 20.4808 131.167 21.0945 131.223 21.7795C131.279 22.4646 131.446 23.1211 131.726 23.749C132.005 24.3484 132.424 24.8622 132.982 25.2904C133.541 25.7185 134.295 25.9468 135.245 25.9754C135.859 26.0325 136.515 25.9897 137.213 25.8469C137.94 25.7042 138.442 25.5758 138.722 25.4616C139.783 25.0906 140.551 24.7908 141.026 24.5625C141.5 24.3342 141.836 24.3342 142.031 24.5625C142.199 24.7338 142.171 25.1191 141.947 25.7185C141.752 26.3179 141.235 26.9601 140.397 27.6452C139.559 28.3017 138.652 28.7298 137.674 28.9296C136.697 29.1294 135.831 29.2293 135.077 29.2293ZM139.35 16.2564C139.266 15.8282 139.099 15.4001 138.847 14.9719C138.624 14.5153 138.317 14.1299 137.926 13.8159C137.563 13.4734 137.13 13.2165 136.627 13.0453C136.152 12.874 135.636 12.8455 135.077 12.9596C134.546 13.0453 134.072 13.2451 133.653 13.5591C133.262 13.873 132.913 14.2441 132.605 14.6722C132.298 15.1004 132.047 15.5571 131.851 16.0423C131.656 16.5276 131.516 16.9985 131.432 17.4552C132.94 17.2269 134.323 17.0128 135.58 16.813C136.836 16.6132 138.093 16.4277 139.35 16.2564Z" fill="#FFD600"/>
<path d="M88.8319 4.8248C88.5247 4.79626 88.1896 4.69636 87.8265 4.5251C87.4634 4.3253 87.1283 4.09695 86.8211 3.84006C86.5418 3.58317 86.3184 3.31201 86.1508 3.02657C85.9832 2.7126 85.9553 2.39862 86.067 2.08464C86.1508 1.8563 86.4441 1.78494 86.9468 1.87057C87.4774 1.92766 88.1058 1.97047 88.8319 1.99902C89.6698 2.02756 90.6193 2.01329 91.6806 1.9562C92.7419 1.89911 93.831 1.82776 94.9482 1.74213C96.0932 1.6565 97.2243 1.55659 98.3414 1.44242C99.4865 1.2997 100.534 1.15699 101.483 1.01427C101.679 0.985729 101.93 1 102.237 1.05709C102.545 1.11417 102.838 1.1998 103.117 1.31398C103.396 1.39961 103.634 1.51378 103.829 1.6565C104.053 1.79921 104.164 1.9562 104.164 2.12746C104.164 2.29872 104.095 2.5128 103.955 2.76969C103.815 3.02658 103.62 3.29774 103.369 3.58317C103.117 3.84006 102.81 4.08268 102.447 4.31102C102.084 4.53937 101.693 4.68209 101.274 4.73917C100.548 4.85335 99.8496 4.95325 99.1793 5.03888C98.5369 5.09596 97.8806 5.13878 97.2104 5.16732C96.5401 5.19587 95.8419 5.22441 95.1157 5.25295C94.3896 5.25295 93.5937 5.25295 92.7279 5.25295C92.7558 6.56594 92.7837 7.85039 92.8117 9.1063C92.8396 10.3622 92.8256 11.4897 92.7698 12.4887C93.6076 12.4601 94.3617 12.4316 95.032 12.4031C95.7302 12.346 96.4004 12.3032 97.0428 12.2746C97.6851 12.2175 98.3275 12.1604 98.9698 12.1033C99.6401 12.0463 100.352 11.9749 101.106 11.8893C101.274 11.8607 101.497 11.8322 101.777 11.8036C102.056 11.7466 102.335 11.718 102.614 11.718C102.922 11.6895 103.201 11.7037 103.452 11.7608C103.704 11.8179 103.857 11.9464 103.913 12.1462C104.025 12.4887 103.983 12.8883 103.787 13.345C103.592 13.8017 103.313 14.2441 102.95 14.6722C102.614 15.0719 102.237 15.4144 101.818 15.6998C101.4 15.9852 101.05 16.128 100.771 16.128H92.7698C92.7698 17.0699 92.7419 18.1117 92.686 19.2534C92.6581 20.3952 92.5882 21.4227 92.4765 22.3361C92.3648 23.3351 92.1693 24.2771 91.89 25.1619C91.6387 26.0182 91.3594 26.7746 91.0522 27.4311C90.745 28.0876 90.4378 28.6014 90.1306 28.9724C89.8234 29.372 89.558 29.5719 89.3346 29.5719C89.1391 29.5719 88.8878 29.3863 88.5806 29.0153C88.2733 28.6727 88.1197 28.3017 88.1197 27.9021C88.1197 27.8735 88.1616 27.688 88.2454 27.3455C88.3292 27.003 88.3851 26.7318 88.413 26.532C88.4968 25.8469 88.5666 25.2333 88.6225 24.6909C88.6783 24.1486 88.7202 23.6063 88.7481 23.064C88.7761 22.5217 88.79 21.9508 88.79 21.3514C88.8179 20.7234 88.8319 19.9956 88.8319 19.1678V4.8248Z" stroke="#FFD600" stroke-width="0.4" mask="url(#path-2-outside-1_31_7800)"/>
<path d="M103.576 11.7608C103.381 11.6181 103.157 11.4754 102.906 11.3327C102.655 11.1614 102.403 10.9902 102.152 10.8189C101.929 10.6476 101.733 10.4478 101.566 10.2195C101.398 9.99114 101.314 9.74852 101.314 9.49163C101.314 9.29183 101.468 9.12057 101.775 8.97785C102.082 8.80659 102.334 8.69242 102.529 8.63533C102.892 8.52116 103.367 8.40699 103.953 8.29282C104.568 8.1501 105.112 8.12156 105.587 8.20719C105.755 8.23573 105.922 8.32136 106.09 8.46407C106.285 8.57825 106.453 8.72096 106.593 8.89222C106.76 9.06348 106.886 9.24902 106.97 9.44882C107.081 9.62008 107.137 9.77707 107.137 9.91978V10.9902C107.807 10.3907 108.548 9.93406 109.357 9.62008C110.167 9.3061 110.81 9.14911 111.284 9.14911C112.094 9.14911 112.779 9.34892 113.337 9.74852C113.896 10.1481 114.329 10.6762 114.636 11.3327C114.748 11.561 114.845 11.875 114.929 12.2746C115.013 12.6742 114.985 12.9739 114.845 13.1737C114.734 13.345 114.524 13.5876 114.217 13.9016C113.938 14.187 113.644 14.3012 113.337 14.2441C113.114 14.2156 112.89 14.1157 112.667 13.9444C112.444 13.7446 112.22 13.5448 111.997 13.345C111.773 13.1452 111.536 12.9596 111.284 12.7884C111.061 12.6171 110.824 12.5315 110.572 12.5315C109.93 12.5315 109.288 12.717 108.645 13.0881C108.031 13.4592 107.528 13.873 107.137 14.3297V22.0792C107.137 22.9926 107.123 23.9203 107.095 24.8622C107.095 25.8041 107.053 26.6604 106.97 27.4311C106.914 28.1732 106.816 28.7869 106.676 29.2721C106.537 29.7574 106.327 30 106.048 30C105.797 30 105.517 29.8573 105.21 29.5719C104.931 29.2864 104.666 28.8725 104.414 28.3302C104.191 27.7879 103.995 27.1171 103.828 26.3179C103.66 25.5187 103.576 24.6053 103.576 23.5778V11.7608Z" stroke="#FFD600" stroke-width="0.4" mask="url(#path-2-outside-1_31_7800)"/>
<path d="M120.816 29.2293C119.363 29.2008 118.093 28.8583 117.003 28.2018C115.942 27.5738 115.076 26.7603 114.406 25.7613C113.736 24.7338 113.275 23.6063 113.024 22.3789C112.772 21.123 112.73 19.8957 112.898 18.6969C113.066 17.3839 113.415 16.185 113.945 15.1004C114.504 14.0157 115.202 13.1024 116.04 12.3602C116.878 11.6181 117.855 11.0615 118.972 10.6905C120.089 10.2908 121.304 10.1339 122.617 10.2195C123.734 10.3051 124.67 10.6048 125.424 11.1186C126.178 11.6324 126.792 12.2175 127.267 12.874C127.742 13.5305 128.091 14.187 128.314 14.8435C128.538 15.5 128.677 15.9995 128.733 16.342C129.013 16.5704 129.25 16.8701 129.445 17.2411C129.641 17.6122 129.739 17.8691 129.739 18.0118C129.655 18.44 129.082 18.7682 128.021 18.9966C127.602 19.0822 126.904 19.1821 125.926 19.2963C124.949 19.4104 123.888 19.5246 122.743 19.6388C121.626 19.753 120.522 19.8386 119.433 19.8957C118.372 19.9528 117.548 19.967 116.962 19.9385C116.906 20.4808 116.906 21.0945 116.962 21.7795C117.017 22.4646 117.185 23.1211 117.464 23.749C117.744 24.3484 118.162 24.8622 118.721 25.2904C119.28 25.7185 120.034 25.9468 120.983 25.9754C121.598 26.0325 122.254 25.9897 122.952 25.8469C123.678 25.7042 124.181 25.5758 124.46 25.4616C125.522 25.0906 126.29 24.7908 126.764 24.5625C127.239 24.3342 127.574 24.3342 127.77 24.5625C127.937 24.7338 127.909 25.1191 127.686 25.7185C127.49 26.3179 126.974 26.9601 126.136 27.6452C125.298 28.3017 124.39 28.7298 123.413 28.9296C122.435 29.1294 121.57 29.2293 120.816 29.2293ZM125.089 16.2564C125.005 15.8282 124.837 15.4001 124.586 14.9719C124.362 14.5153 124.055 14.1299 123.664 13.8159C123.301 13.4734 122.868 13.2165 122.366 13.0453C121.891 12.874 121.374 12.8455 120.816 12.9596C120.285 13.0453 119.81 13.2451 119.391 13.5591C119 13.873 118.651 14.2441 118.344 14.6722C118.037 15.1004 117.785 15.5571 117.59 16.0423C117.394 16.5276 117.255 16.9985 117.171 17.4552C118.679 17.2269 120.062 17.0128 121.318 16.813C122.575 16.6132 123.832 16.4277 125.089 16.2564Z" stroke="#FFD600" stroke-width="0.4" mask="url(#path-2-outside-1_31_7800)"/>
<path d="M135.077 29.2293C133.625 29.2008 132.354 28.8583 131.265 28.2018C130.204 27.5738 129.338 26.7603 128.667 25.7613C127.997 24.7338 127.536 23.6063 127.285 22.3789C127.034 21.123 126.992 19.8957 127.159 18.6969C127.327 17.3839 127.676 16.185 128.207 15.1004C128.765 14.0157 129.463 13.1024 130.301 12.3602C131.139 11.6181 132.117 11.0615 133.234 10.6905C134.351 10.2908 135.566 10.1339 136.878 10.2195C137.995 10.3051 138.931 10.6048 139.685 11.1186C140.439 11.6324 141.054 12.2175 141.528 12.874C142.003 13.5305 142.352 14.187 142.576 14.8435C142.799 15.5 142.939 15.9995 142.995 16.342C143.274 16.5704 143.511 16.8701 143.707 17.2411C143.902 17.6122 144 17.8691 144 18.0118C143.916 18.44 143.344 18.7682 142.282 18.9966C141.863 19.0822 141.165 19.1821 140.188 19.2963C139.21 19.4104 138.149 19.5246 137.004 19.6388C135.887 19.753 134.784 19.8386 133.695 19.8957C132.633 19.9528 131.809 19.967 131.223 19.9385C131.167 20.4808 131.167 21.0945 131.223 21.7795C131.279 22.4646 131.446 23.1211 131.726 23.749C132.005 24.3484 132.424 24.8622 132.982 25.2904C133.541 25.7185 134.295 25.9468 135.245 25.9754C135.859 26.0325 136.515 25.9897 137.213 25.8469C137.94 25.7042 138.442 25.5758 138.722 25.4616C139.783 25.0906 140.551 24.7908 141.026 24.5625C141.5 24.3342 141.836 24.3342 142.031 24.5625C142.199 24.7338 142.171 25.1191 141.947 25.7185C141.752 26.3179 141.235 26.9601 140.397 27.6452C139.559 28.3017 138.652 28.7298 137.674 28.9296C136.697 29.1294 135.831 29.2293 135.077 29.2293ZM139.35 16.2564C139.266 15.8282 139.099 15.4001 138.847 14.9719C138.624 14.5153 138.317 14.1299 137.926 13.8159C137.563 13.4734 137.13 13.2165 136.627 13.0453C136.152 12.874 135.636 12.8455 135.077 12.9596C134.546 13.0453 134.072 13.2451 133.653 13.5591C133.262 13.873 132.913 14.2441 132.605 14.6722C132.298 15.1004 132.047 15.5571 131.851 16.0423C131.656 16.5276 131.516 16.9985 131.432 17.4552C132.94 17.2269 134.323 17.0128 135.58 16.813C136.836 16.6132 138.093 16.4277 139.35 16.2564Z" stroke="#FFD600" stroke-width="0.4" mask="url(#path-2-outside-1_31_7800)"/>
</svg>
