<svg width="157" height="42" viewBox="0 0 157 42" fill="none" xmlns="http://www.w3.org/2000/svg">
<path d="M156.999 29.8917C135.931 33.6892 21.9475 16.8379 1.09604 33.523C-0.0382393 34.4961 8.74641 41.9249 9.51869 40.9044C24.7712 24.1955 150.845 46.4107 156.999 29.8917Z" fill="#FFD600"/>
<path d="M135.143 28.5583C134.04 30.169 132.951 31.4823 131.877 32.4981C130.818 33.4994 129.789 34 128.79 34C128.283 34 127.902 33.8839 127.649 33.6517C127.216 33.2744 127 32.9189 127 32.5851C127 32.2514 127.112 32.0047 127.336 31.8451C129.588 30.2633 132.086 25.6197 134.83 17.9142L136.15 14.2574C137.671 10.0781 138.961 7.48784 140.02 6.48656C140.393 6.21084 140.781 6.07298 141.183 6.07298C141.586 6.07298 141.937 6.13828 142.235 6.26889C142.533 6.38498 142.794 6.53735 143.018 6.72599C143.525 7.16133 143.779 7.66923 143.779 8.24968C143.779 8.46735 143.674 8.77934 143.465 9.18566C143.257 9.59198 143.018 10.1216 142.749 10.7746L139.908 18.4584C143.532 17.8199 146.523 16.3615 148.879 14.0832C151.087 11.9501 152.19 9.75886 152.19 7.5096C152.19 5.37644 151.206 3.9761 149.237 3.30858C148.566 3.0764 147.783 2.96031 146.888 2.96031C146.008 2.96031 145.106 3.06914 144.181 3.28681C143.257 3.50448 142.347 3.78745 141.452 4.13572C139.647 4.84678 138.171 5.68118 137.022 6.63892C136.724 6.91464 136.396 7.0525 136.038 7.0525C135.68 7.0525 135.345 6.97994 135.031 6.83483C134.718 6.68971 134.442 6.50107 134.204 6.26889C133.652 5.76099 133.376 5.24584 133.376 4.72343C133.376 4.18651 133.57 3.70764 133.957 3.28681C134.345 2.86598 134.86 2.48869 135.501 2.15493C136.142 1.80666 136.881 1.50192 137.716 1.24072C138.551 0.965002 139.409 0.732821 140.289 0.544174C142.078 0.181391 143.853 0 145.613 0C147.388 0 149.006 0.21767 150.468 0.653009C151.944 1.07384 153.16 1.64703 154.114 2.3726C156.038 3.82373 157 5.66667 157 7.90141V8.24968C156.866 10.9923 155.799 13.4085 153.801 15.4981C152.056 17.312 149.804 18.7414 147.045 19.7862C144.554 20.7439 142.198 21.2228 139.975 21.2228H139.394C139.2 21.2228 139.013 21.2083 138.834 21.1793C137.492 24.4733 136.262 26.933 135.143 28.5583Z" fill="#FFD600"/>
</svg>
