<svg width="157" height="41" viewBox="0 0 157 41" fill="none" xmlns="http://www.w3.org/2000/svg">
<path d="M156.999 28.8917C135.931 32.6892 21.9475 15.8379 1.09604 32.523C-0.0382394 33.4961 8.74641 40.9249 9.51869 39.9044C24.7712 23.1955 150.845 45.4107 156.999 28.8917Z" fill="#FFD600"/>
<path d="M123.67 12.217C120.659 12.4965 117.932 12.7201 114.693 13.2233C111.511 13.7264 111 15.068 111 15.2916C111 16.9128 114.523 17.0246 117.363 17.0246C119.523 17.0246 121.682 16.6892 124.011 16.6333C124.068 19.3724 124.011 23.621 124.011 25.6893C124.011 27.1428 123.784 31 125.147 31C127.136 31 128.84 26.5279 129.125 24.5154C129.409 22.0557 129.409 18.8693 129.409 16.3538C132.079 16.3538 134.408 16.5774 136.681 16.5215C138.045 16.5215 141.056 16.4656 140.999 14.9562C140.942 13.391 138.613 11.8816 135.943 11.8816C134.181 11.8816 132.306 11.7698 129.181 11.9375C129.181 9.98096 129.238 8.0803 128.954 5.45292C128.727 3.10505 126.454 -0.360853 124.295 0.030457C122.875 0.309965 123.216 2.43423 123.329 4.33489C123.556 7.80079 123.67 9.70145 123.67 12.217Z" fill="#FFD600"/>
</svg>
