<svg width="20" height="20" viewBox="0 0 20 20" fill="none" xmlns="http://www.w3.org/2000/svg">
<path fill-rule="evenodd" clip-rule="evenodd" d="M4.58823 14.3254H9.09743C9.13603 13.9527 9.21507 13.593 9.32904 13.2501H4.58823C3.93199 13.2501 3.93199 14.3254 4.58823 14.3254ZM11.7096 4.07007H4.05882V2.89974C2.43015 2.95378 1.39338 4.1707 1.39338 5.97838V14.9012C1.39338 17.2848 2.41728 18.7067 5.14706 18.7067H9.06066C9.43198 18.7067 9.77573 18.7253 10.0901 18.6098C10.3676 19.0309 10.8199 19.5527 11.3456 19.7745C10.9283 19.9161 10.7206 19.9981 10.1599 19.9981H4.04779C1.82169 19.9981 0 18.1513 0 15.8945V5.51249C0 3.24637 1.82537 1.40887 4.05882 1.40887V0H11.7096L11.7022 1.42564C11.7022 1.31756 15.7684 1.49087 15.7684 5.51249V8.98621C15.307 8.91912 14.8382 8.91912 14.3768 8.98435V6.01379C14.3768 3.89303 13.443 2.78792 11.7114 2.87365V4.07007H11.7096ZM4.58823 8.50913H11.1783C11.8346 8.50913 11.8346 7.43384 11.1783 7.43384H4.58823C3.93199 7.43384 3.93199 8.50913 4.58823 8.50913ZM4.58823 11.4816H10.0754C10.3051 11.0977 10.6562 10.7044 11.1103 10.4622C11.057 10.4193 11.0018 10.4063 10.8934 10.4063H4.58823C3.93199 10.4063 3.93199 11.4816 4.58823 11.4816ZM14.5202 17.2829V15.5814H12.8842V14.4111H14.5202V12.7097H15.6085V14.4111H17.2445V15.5814H15.6085V17.2829H14.5202ZM15.0643 11.653C16.886 11.653 18.3621 13.1495 18.3621 14.9963C18.3621 16.8431 16.886 18.3395 15.0643 18.3395C13.2426 18.3395 11.7665 16.8431 11.7665 14.9963C11.7665 13.1495 13.2426 11.653 15.0643 11.653ZM15.0643 9.99255C17.7904 9.99255 20 12.2326 20 14.9963C20 17.76 17.7904 20 15.0643 20C12.3382 20 10.1287 17.76 10.1287 14.9963C10.1287 12.2326 12.3382 9.99255 15.0643 9.99255Z" fill="white"/>
</svg>
