<svg width="35" height="34" viewBox="0 0 35 34" fill="none" xmlns="http://www.w3.org/2000/svg">
<g clip-path="url(#clip0_19_522)">
<path d="M7.32904 26.3067C4.85511 26.3067 2.84186 24.2265 2.84186 21.6703C2.84186 19.1141 4.85511 17.0339 7.32904 17.0339C9.80297 17.0339 11.8162 19.1141 11.8162 21.6703C11.8162 24.2265 9.80297 26.3067 7.32904 26.3067ZM7.32904 17.9612C5.3487 17.9612 3.73929 19.6241 3.73929 21.6703C3.73929 23.7165 5.3487 25.3794 7.32904 25.3794C9.30938 25.3794 10.9188 23.7165 10.9188 21.6703C10.9188 19.6241 9.30938 17.9612 7.32904 17.9612Z" fill="#252D32"/>
<path d="M8.75298 21.3768C8.98931 21.5344 8.98931 21.8899 8.75298 22.0506L7.7658 22.7152L6.77863 23.3828C6.55726 23.5312 6.27905 23.3457 6.27905 23.0459V20.3815C6.27905 20.0817 6.55726 19.8962 6.77863 20.0446L7.7658 20.7092L8.75298 21.3768Z" fill="#252D32"/>
<path d="M6.89528 0.618164H28.703C28.8765 0.618164 29.0171 0.763437 29.0171 0.94271V5.56362H6.58118V0.94271C6.58118 0.763437 6.72177 0.618164 6.89528 0.618164Z" fill="#FFC960"/>
<path d="M28.8675 5.87283H6.73076C6.48247 5.87283 6.28204 5.66574 6.28204 5.40919C6.28204 5.15265 6.48247 4.94556 6.73076 4.94556H28.8675C29.1158 4.94556 29.3162 5.15265 29.3162 5.40919C29.3162 5.66574 29.1158 5.87283 28.8675 5.87283Z" fill="#252D32"/>
<path d="M16.1539 26.5818V29.3636H31.9128C33.2859 29.3636 34.4017 28.2138 34.4017 26.792V26.5818H16.1539Z" fill="#FFC960"/>
<path d="M32.0624 29.6727H16.6026C16.3543 29.6727 16.1539 29.4656 16.1539 29.2091C16.1539 28.9525 16.3543 28.7454 16.6026 28.7454H32.0624C33.1034 28.7454 33.965 27.9356 34.0876 26.8909H16.6026C16.3543 26.8909 16.1539 26.6838 16.1539 26.4273C16.1539 26.1707 16.3543 25.9636 16.6026 25.9636H34.5513C34.7996 25.9636 35 26.1707 35 26.4273V26.6374C35 28.3096 33.6838 29.6727 32.0624 29.6727Z" fill="#252D32"/>
<path d="M2.54271 8.03625C2.29442 8.03625 2.09399 7.82916 2.09399 7.57261V5.88807C2.09399 4.8557 2.90767 4.01807 3.90382 4.01807H4.63673C4.88502 4.01807 5.08545 4.22516 5.08545 4.4817C5.08545 4.73825 4.88502 4.94534 4.63673 4.94534H3.90382C3.40126 4.94534 2.99143 5.36879 2.99143 5.88807V7.57261C2.99143 7.82916 2.791 8.03625 2.54271 8.03625Z" fill="#252D32"/>
<path d="M33.0556 25.0362C32.8073 25.0362 32.6068 24.8292 32.6068 24.5726V5.88807C32.6068 5.36879 32.197 4.94534 31.6945 4.94534H30.6624C30.4141 4.94534 30.2137 4.73825 30.2137 4.4817C30.2137 4.22516 30.4141 4.01807 30.6624 4.01807H31.6945C32.6936 4.01807 33.5043 4.85879 33.5043 5.88807V24.5726C33.5043 24.8292 33.3039 25.0362 33.0556 25.0362Z" fill="#252D32"/>
<path d="M29.1667 25.0364C28.9184 25.0364 28.718 24.8293 28.718 24.5727V1.14055C28.718 1.02309 28.6252 0.927273 28.5115 0.927273H7.08676C6.97308 0.927273 6.88035 1.02309 6.88035 1.14055V7.26364C6.88035 7.52018 6.67992 7.72727 6.43163 7.72727C6.18334 7.72727 5.98291 7.52018 5.98291 7.26364V1.14055C5.98291 0.513091 6.47949 0 7.08676 0H28.5115C29.1188 0 29.6154 0.513091 29.6154 1.14055V24.5727C29.6154 24.8293 29.415 25.0364 29.1667 25.0364Z" fill="#252D32"/>
<path d="M16.3034 3.39993H15.1069C14.8586 3.39993 14.6581 3.19284 14.6581 2.93629C14.6581 2.67975 14.8586 2.47266 15.1069 2.47266H16.3034C16.5517 2.47266 16.7522 2.67975 16.7522 2.93629C16.7522 3.19284 16.5517 3.39993 16.3034 3.39993ZM13.312 3.39993H12.1154C11.8671 3.39993 11.6667 3.19284 11.6667 2.93629C11.6667 2.67975 11.8671 2.47266 12.1154 2.47266H13.312C13.5603 2.47266 13.7607 2.67975 13.7607 2.93629C13.7607 3.19284 13.5603 3.39993 13.312 3.39993ZM10.3205 3.39993H9.12395C8.87566 3.39993 8.67523 3.19284 8.67523 2.93629C8.67523 2.67975 8.87566 2.47266 9.12395 2.47266H10.3205C10.5688 2.47266 10.7692 2.67975 10.7692 2.93629C10.7692 3.19284 10.5688 3.39993 10.3205 3.39993Z" fill="#252D32"/>
<path d="M0.598267 30.9092H14.3589V32.6586C14.3589 33.0574 14.0448 33.3819 13.6589 33.3819H1.29827C0.912369 33.3819 0.598267 33.0574 0.598267 32.6586V30.9092Z" fill="#393434"/>
<path d="M1.29827 9.89087H13.6589C14.0448 9.89087 14.3589 10.2154 14.3589 10.6141V12.3636H0.598267V10.6141C0.598267 10.2154 0.912369 9.89087 1.29827 9.89087Z" fill="#393434"/>
<path d="M13.5244 34H1.43291C0.643162 34 0 33.3354 0 32.5194V10.7533C0 9.93725 0.643162 9.27271 1.43291 9.27271H13.5244C14.3141 9.27271 14.9573 9.93725 14.9573 10.7533V32.5194C14.9573 33.3354 14.3141 34 13.5244 34ZM1.43291 10.2C1.13675 10.2 0.897436 10.4473 0.897436 10.7533V32.5194C0.897436 32.8254 1.13675 33.0727 1.43291 33.0727H13.5244C13.8205 33.0727 14.0598 32.8254 14.0598 32.5194V10.7533C14.0598 10.4473 13.8205 10.2 13.5244 10.2H1.43291Z" fill="#252D32"/>
<path d="M25.5769 18.5454H16.9017C16.6534 18.5454 16.453 18.3383 16.453 18.0818C16.453 17.8253 16.6534 17.6182 16.9017 17.6182H25.5769C25.8252 17.6182 26.0257 17.8253 26.0257 18.0818C26.0257 18.3383 25.8252 18.5454 25.5769 18.5454Z" fill="#252D32"/>
<path d="M25.5769 21.6363H16.9017C16.6534 21.6363 16.453 21.4292 16.453 21.1726C16.453 20.9161 16.6534 20.709 16.9017 20.709H25.5769C25.8252 20.709 26.0257 20.9161 26.0257 21.1726C26.0257 21.4292 25.8252 21.6363 25.5769 21.6363Z" fill="#252D32"/>
<path d="M26.0256 9.27271H18.8461V15.4545H26.0256V9.27271Z" fill="#393434"/>
</g>
<defs>
<clipPath id="clip0_19_522">
<rect width="35" height="34" fill="white"/>
</clipPath>
</defs>
</svg>
