<svg width="30" height="30" viewBox="0 0 30 30" fill="none" xmlns="http://www.w3.org/2000/svg">
<circle cx="15" cy="15" r="14.5" fill="white" stroke="#D9D9D9"/>
<path d="M22.3333 19.6667C22.3333 20.0203 22.1929 20.3594 21.9428 20.6095C21.6928 20.8595 21.3536 21 21 21H9.00001C8.64638 21 8.30724 20.8595 8.0572 20.6095C7.80715 20.3594 7.66667 20.0203 7.66667 19.6667V12.3333C7.66667 11.9797 7.80715 11.6406 8.0572 11.3905C8.30724 11.1405 8.64638 11 9.00001 11H11.6667L13 9H17L18.3333 11H21C21.3536 11 21.6928 11.1405 21.9428 11.3905C22.1929 11.6406 22.3333 11.9797 22.3333 12.3333V19.6667Z" fill="#D9D9D9" stroke="#D9D9D9" stroke-linecap="round" stroke-linejoin="round"/>
<path d="M15 18.3333C16.4728 18.3333 17.6667 17.1394 17.6667 15.6667C17.6667 14.1939 16.4728 13 15 13C13.5272 13 12.3333 14.1939 12.3333 15.6667C12.3333 17.1394 13.5272 18.3333 15 18.3333Z" stroke="white" stroke-linecap="round" stroke-linejoin="round"/>
</svg>
