<svg width="40" height="40" viewBox="0 0 40 40" fill="none" xmlns="http://www.w3.org/2000/svg">
<path d="M1.35147 0.800781H38.2602C38.7923 0.800781 39.2233 1.24478 39.2233 1.79278V7.20078H0.388367V1.79278C0.388367 1.24478 0.819435 0.800781 1.35147 0.800781Z" fill="#0085FF"/>
<path d="M39.4175 40.0008H0.582524C0.260194 40.0008 0 39.7328 0 39.4008V9.40078C0 9.06878 0.260194 8.80078 0.582524 8.80078C0.904854 8.80078 1.16505 9.06878 1.16505 9.40078V38.8008H38.8349V9.80078C38.8349 9.46878 39.0951 9.20078 39.4175 9.20078C39.7398 9.20078 40 9.46878 40 9.80078V39.4008C40 39.7328 39.7398 40.0008 39.4175 40.0008Z" fill="#312E27"/>
<path d="M39.4175 7.6H0.582524C0.260194 7.6 0 7.332 0 7V1.592C0 0.716 0.695146 0 1.54563 0H38.4544C39.3049 0 40 0.716 40 1.592V7C40 7.332 39.7398 7.6 39.4175 7.6ZM1.16505 6.4H38.8349V1.592C38.8349 1.376 38.6641 1.2 38.4544 1.2H1.54563C1.33592 1.2 1.16505 1.376 1.16505 1.592V6.4Z" fill="#312E27"/>
<path d="M13.0097 4.39922H11.4563C11.134 4.39922 10.8738 4.13122 10.8738 3.79922C10.8738 3.46722 11.134 3.19922 11.4563 3.19922H13.0097C13.3321 3.19922 13.5922 3.46722 13.5922 3.79922C13.5922 4.13122 13.3321 4.39922 13.0097 4.39922ZM9.12623 4.39922H7.57283C7.2505 4.39922 6.99031 4.13122 6.99031 3.79922C6.99031 3.46722 7.2505 3.19922 7.57283 3.19922H9.12623C9.44856 3.19922 9.70875 3.46722 9.70875 3.79922C9.70875 4.13122 9.44856 4.39922 9.12623 4.39922ZM5.24273 4.39922H3.68934C3.36701 4.39922 3.10681 4.13122 3.10681 3.79922C3.10681 3.46722 3.36701 3.19922 3.68934 3.19922H5.24273C5.56506 3.19922 5.82526 3.46722 5.82526 3.79922C5.82526 4.13122 5.56506 4.39922 5.24273 4.39922Z" fill="#312E27"/>
<path d="M5.04855 34.8008L34.5631 34.8008V31.2008L5.04855 31.2008V34.8008Z" fill="#312E27"/>
<path d="M34.7573 24.3996H23.4951C23.1728 24.3996 22.9126 24.1316 22.9126 23.7996V12.1996C22.9126 11.8676 23.1728 11.5996 23.4951 11.5996H34.7573C35.0796 11.5996 35.3398 11.8676 35.3398 12.1996V23.7996C35.3398 24.1316 35.0796 24.3996 34.7573 24.3996ZM24.0776 23.1996H34.1747V12.7996H24.0776V23.1996Z" fill="#312E27"/>
<path d="M34.7573 35.6H30.4855C30.1631 35.6 29.9029 35.332 29.9029 35C29.9029 34.668 30.1631 34.4 30.4855 34.4H34.1748V29.2H5.82527V34.4H27.767C28.0893 34.4 28.3495 34.668 28.3495 35C28.3495 35.332 28.0893 35.6 27.767 35.6H5.24274C4.92041 35.6 4.66022 35.332 4.66022 35V28.6C4.66022 28.268 4.92041 28 5.24274 28H34.7573C35.0796 28 35.3398 28.268 35.3398 28.6V35C35.3398 35.332 35.0796 35.6 34.7573 35.6Z" fill="#312E27"/>
<path d="M34.3689 23.999C34.2213 23.999 34.0699 23.939 33.9573 23.823L23.4718 13.023C23.2427 12.787 23.2427 12.407 23.4718 12.175C23.701 11.939 24.0699 11.939 24.2951 12.175L34.7806 22.975C35.0097 23.211 35.0097 23.591 34.7806 23.823C34.6679 23.939 34.5165 23.999 34.3689 23.999Z" fill="#312E27"/>
<path d="M23.8835 23.999C23.7359 23.999 23.5845 23.939 23.4718 23.823C23.2427 23.587 23.2427 23.207 23.4718 22.975L33.9573 12.175C34.1864 11.939 34.5553 11.939 34.7806 12.175C35.0097 12.411 35.0097 12.791 34.7806 13.023L24.2951 23.823C24.1825 23.939 24.0311 23.999 23.8835 23.999Z" fill="#312E27"/>
<path d="M17.6699 14.3992H5.24274C4.92041 14.3992 4.66022 14.1312 4.66022 13.7992C4.66022 13.4672 4.92041 13.1992 5.24274 13.1992H17.6699C17.9923 13.1992 18.2525 13.4672 18.2525 13.7992C18.2525 14.1312 17.9923 14.3992 17.6699 14.3992Z" fill="#312E27"/>
<path d="M17.6699 18.3992H5.24274C4.92041 18.3992 4.66022 18.1312 4.66022 17.7992C4.66022 17.4672 4.92041 17.1992 5.24274 17.1992H17.6699C17.9923 17.1992 18.2525 17.4672 18.2525 17.7992C18.2525 18.1312 17.9923 18.3992 17.6699 18.3992Z" fill="#312E27"/>
<path d="M17.6699 22.3992H5.24274C4.92041 22.3992 4.66022 22.1312 4.66022 21.7992C4.66022 21.4672 4.92041 21.1992 5.24274 21.1992H17.6699C17.9923 21.1992 18.2525 21.4672 18.2525 21.7992C18.2525 22.1312 17.9923 22.3992 17.6699 22.3992Z" fill="#312E27"/>
</svg>
