<svg width="50" height="50" viewBox="0 0 50 50" fill="none" xmlns="http://www.w3.org/2000/svg">
<path d="M8.9 19.6001H10.1613V24.1914H8.9C8.36952 24.1914 7.93549 23.7438 7.93549 23.1966V20.5949C7.93549 20.0477 8.36952 19.6001 8.9 19.6001Z" fill="#393434"/>
<path d="M23.6645 24.1914H22.4032V19.6001H23.6645C24.195 19.6001 24.629 20.0478 24.629 20.5949V23.1966C24.629 23.7438 24.195 24.1914 23.6645 24.1914Z" fill="#393434"/>
<path d="M16.1005 27.0188C15.5774 27.0188 15.0544 26.8811 14.5981 26.6056C14.331 26.4449 14.242 26.0929 14.3978 25.8213C14.5536 25.5458 14.8949 25.4539 15.1582 25.6146C15.7258 25.9552 16.4752 25.9552 17.0279 25.6146C17.2913 25.4539 17.6326 25.5419 17.7921 25.8136C17.9479 26.0853 17.8626 26.4373 17.5992 26.6018C17.1466 26.8811 16.6236 27.0188 16.1005 27.0188Z" fill="#252D32"/>
<path d="M16.2155 24.5738H15.9113C15.6034 24.5738 15.3548 24.3175 15.3548 23.9999C15.3548 23.6823 15.6034 23.426 15.9113 23.426H16.2155C16.3527 23.426 16.4677 23.3112 16.4677 23.1658V21.4938C16.4677 20.0705 17.269 19.2173 18.6156 19.2173H18.879C19.1869 19.2173 19.4355 19.4736 19.4355 19.7912C19.4355 20.1088 19.1869 20.3651 18.879 20.3651H18.6156C17.8997 20.3651 17.5806 20.7133 17.5806 21.4938V23.1658C17.5806 23.9425 16.9686 24.5738 16.2155 24.5738Z" fill="#252D32"/>
<path d="M10.8847 26.0736C10.6695 26.0736 10.4655 25.9473 10.3765 25.7331C9.98693 24.8263 9.79032 23.8774 9.79032 22.9133V19.1331C9.79032 16.9178 10.9923 14.6833 13.6706 14.6833C13.7819 14.6833 13.8932 14.7178 13.986 14.7867C16.4677 16.5543 17.9108 17.3272 20.1663 18.1039C20.4594 18.2033 20.6152 18.5286 20.5187 18.8308C20.4223 19.1331 20.1032 19.2938 19.8139 19.1943C17.4916 18.3947 15.9929 17.6027 13.5037 15.8388C11.0294 15.9536 10.9032 18.5974 10.9032 19.1369V22.9171C10.9032 23.7206 11.0665 24.5126 11.3929 25.274C11.5153 25.5647 11.3929 25.9014 11.1073 26.0315C11.0331 26.066 10.9589 26.0813 10.8847 26.0813V26.0736Z" fill="#252D32"/>
<path d="M16.1227 30.0836C15.544 30.0836 14.9394 29.9611 14.331 29.7163C14.0453 29.6015 13.9006 29.2686 14.0119 28.974C14.1232 28.6794 14.4423 28.5302 14.7316 28.645C15.2102 28.8363 15.6776 28.9358 16.119 28.9358C18.3485 28.9358 21.6576 26.4603 21.6576 23.0359V19.405C21.6576 19.0874 21.9061 18.8311 22.214 18.8311C22.5219 18.8311 22.7705 19.0874 22.7705 19.405V23.0359C22.7705 26.9385 19.1313 30.0836 16.119 30.0836H16.1227Z" fill="#252D32"/>
<path d="M14.4274 20.3651H12.9436C12.6356 20.3651 12.3871 20.1088 12.3871 19.7912C12.3871 19.4736 12.6356 19.2173 12.9436 19.2173H14.4274C14.7353 19.2173 14.9839 19.4736 14.9839 19.7912C14.9839 20.1088 14.7353 20.3651 14.4274 20.3651Z" fill="#252D32"/>
<path d="M13.8116 22.3051C14.1312 22.3051 14.3903 22.0378 14.3903 21.7082C14.3903 21.3786 14.1312 21.1113 13.8116 21.1113C13.492 21.1113 13.2329 21.3786 13.2329 21.7082C13.2329 22.0378 13.492 22.3051 13.8116 22.3051Z" fill="#252D32"/>
<path d="M19.2982 21.1113C18.9792 21.1113 18.7195 21.3792 18.7195 21.7082C18.7195 22.0372 18.9792 22.3051 19.2982 22.3051C19.6173 22.3051 19.8769 22.0372 19.8769 21.7082C19.8769 21.3792 19.6173 21.1113 19.2982 21.1113Z" fill="#252D32"/>
<path d="M11.8306 28.3999H10.9737C9.0929 28.3999 7.56451 26.8236 7.56451 24.8837V24.3825C7.56451 24.0649 7.81306 23.8086 8.12097 23.8086C8.42887 23.8086 8.67742 24.0649 8.67742 24.3825V24.8837C8.67742 26.1922 9.70871 27.2521 10.9737 27.2521H11.8306C12.1385 27.2521 12.3871 27.5084 12.3871 27.826C12.3871 28.1435 12.1385 28.3999 11.8306 28.3999Z" fill="#393434"/>
<path d="M10.3468 24.9565H9.10774C8.0542 24.9565 7.19355 24.0726 7.19355 22.9822V20.809C7.19355 19.7224 8.05049 18.8347 9.10774 18.8347H9.97581C10.2837 18.8347 10.5323 19.0911 10.5323 19.4086C10.5323 19.7262 10.2837 19.9825 9.97581 19.9825H9.10774C8.66629 19.9825 8.30645 20.3537 8.30645 20.809V22.9822C8.30645 23.4375 8.66629 23.8086 9.10774 23.8086H10.3468C10.6547 23.8086 10.9032 24.065 10.9032 24.3825C10.9032 24.7001 10.6547 24.9565 10.3468 24.9565Z" fill="#252D32"/>
<path d="M23.4568 24.9565H22.2177C21.9098 24.9565 21.6613 24.7001 21.6613 24.3825C21.6613 24.065 21.9098 23.8086 22.2177 23.8086H23.4568C23.8982 23.8086 24.2581 23.4375 24.2581 22.9822V20.809C24.2581 20.3537 23.8982 19.9825 23.4568 19.9825H22.5887C22.2808 19.9825 22.0323 19.7262 22.0323 19.4086C22.0323 19.0911 22.2808 18.8347 22.5887 18.8347H23.4568C24.5103 18.8347 25.371 19.7185 25.371 20.809V22.9822C25.371 24.0688 24.514 24.9565 23.4568 24.9565Z" fill="#252D32"/>
<path d="M10.3468 19.5998C10.0389 19.5998 9.79032 19.3435 9.79032 19.0259V17.9929C9.79032 14.6642 12.0235 11.8367 15.0952 11.2666C17.0131 10.9108 18.9644 11.4426 20.4445 12.7167C21.9247 13.9946 22.7742 15.8694 22.7742 17.8551C22.7742 18.1727 22.5256 18.4291 22.2177 18.4291C21.9098 18.4291 21.6613 18.1727 21.6613 17.8551C21.6613 16.2099 20.9564 14.6604 19.7285 13.6005C18.5044 12.5445 16.8869 12.1045 15.2881 12.3991C12.7432 12.8698 10.8995 15.2228 10.8995 17.9929V19.0259C10.8995 19.3435 10.651 19.5998 10.3431 19.5998H10.3468Z" fill="#252D32"/>
<path d="M24.8145 18.0694C24.5066 18.0694 24.2581 17.8131 24.2581 17.4955C24.2581 12.9616 20.6819 9.26941 16.2823 9.26941C11.8826 9.26941 8.30645 12.9616 8.30645 17.4955C8.30645 17.8131 8.0579 18.0694 7.75 18.0694C7.4421 18.0694 7.19355 17.8131 7.19355 17.4955C7.19355 12.3265 11.2705 8.12158 16.2823 8.12158C21.294 8.12158 25.371 12.3265 25.371 17.4955C25.371 17.8131 25.1224 18.0694 24.8145 18.0694Z" fill="#393434"/>
<path d="M12.7061 26.4871H11.6971C11.2587 26.4871 10.9032 26.8536 10.9032 27.3058V27.5813C10.9032 28.0335 11.2587 28.4001 11.6971 28.4001H12.7061C13.1446 28.4001 13.5 28.0335 13.5 27.5813V27.3058C13.5 26.8536 13.1446 26.4871 12.7061 26.4871Z" fill="#393434"/>
<path d="M34.2742 2C29.5889 2 25.7901 5.91791 25.7901 10.7503C25.7901 13.2793 26.84 15.5558 28.5056 17.1513L27.8119 20.7478L31.0876 18.8539C32.0706 19.2671 33.1464 19.4967 34.2742 19.4967C38.9595 19.4967 42.7582 15.5788 42.7582 10.7464C42.7582 5.91409 38.9595 2 34.2742 2Z" fill="#FFD600"/>
<path d="M34.4263 13.0459C34.3002 13.0459 34.1963 13.0038 34.1147 12.9196C34.0331 12.8355 33.9923 12.7283 33.9923 12.5982C33.9923 12.3687 34.0479 12.12 34.1629 11.8445C34.2779 11.5729 34.4523 11.328 34.6934 11.1176C34.8529 10.976 34.9976 10.8382 35.1311 10.7005C35.2647 10.5628 35.3723 10.4059 35.4539 10.2261C35.5355 10.0462 35.5763 9.82816 35.5763 9.57182C35.5763 9.38434 35.5318 9.20834 35.4465 9.04381C35.3611 8.87929 35.2387 8.74538 35.0829 8.64208C34.9271 8.53877 34.7342 8.48903 34.5079 8.48903C34.2297 8.48903 33.9997 8.5426 33.8179 8.6459C33.6361 8.75303 33.5026 8.89842 33.4136 9.0859C33.3245 9.27338 33.28 9.49529 33.28 9.74781C33.28 9.8779 33.2392 9.98503 33.1613 10.0692C33.0797 10.1534 32.9758 10.1955 32.846 10.1955C32.7161 10.1955 32.616 10.1534 32.5344 10.0692C32.4527 9.98503 32.4119 9.8779 32.4119 9.74781C32.4119 9.33842 32.4973 8.97495 32.6716 8.66503C32.846 8.35512 33.0908 8.11025 33.4061 7.93042C33.7215 7.7506 34.0887 7.6626 34.5116 7.6626C34.8826 7.6626 35.209 7.74295 35.4984 7.90364C35.784 8.06434 36.014 8.28625 36.181 8.57321C36.3479 8.85634 36.4332 9.18921 36.4332 9.57182C36.4332 9.90086 36.3813 10.184 36.2811 10.425C36.1773 10.6661 36.04 10.8803 35.8619 11.0716C35.6839 11.2629 35.4836 11.4504 35.2573 11.6379C35.1089 11.7603 35.0087 11.921 34.9494 12.1162C34.8937 12.3113 34.864 12.472 34.864 12.5944C34.864 12.7245 34.8232 12.8316 34.7453 12.9158C34.6674 13 34.5598 13.0421 34.43 13.0421L34.4263 13.0459ZM34.4263 14.672C34.2668 14.672 34.1295 14.6108 34.0108 14.4922C33.8958 14.3736 33.8365 14.2282 33.8365 14.0636C33.8365 13.8991 33.8958 13.7499 34.0108 13.6275C34.1258 13.5089 34.2668 13.4476 34.4263 13.4476C34.5858 13.4476 34.7305 13.5089 34.8492 13.6275C34.9642 13.7461 35.0236 13.8915 35.0236 14.0636C35.0236 14.2358 34.9642 14.3697 34.8492 14.4922C34.7342 14.6108 34.5932 14.672 34.4263 14.672Z" fill="#252D32"/>
<path d="M32.0484 42.5564V45.6173H44.4758C46.1155 45.6173 47.4435 44.2475 47.4435 42.5564H32.0484Z" fill="#393434"/>
<path d="M41.879 36.0521H30.75C30.4421 36.0521 30.1936 35.7958 30.1936 35.4782C30.1936 35.1606 30.4421 34.9043 30.75 34.9043H41.879C42.1869 34.9043 42.4355 35.1606 42.4355 35.4782C42.4355 35.7958 42.1869 36.0521 41.879 36.0521Z" fill="#252D32"/>
<path d="M41.879 32.2262H39.2823C38.9743 32.2262 38.7258 31.9698 38.7258 31.6523C38.7258 31.3347 38.9743 31.0784 39.2823 31.0784H41.879C42.1869 31.0784 42.4355 31.3347 42.4355 31.6523C42.4355 31.9698 42.1869 32.2262 41.879 32.2262Z" fill="#252D32"/>
<path d="M36.3145 32.2262H28.1532C27.8453 32.2262 27.5968 31.9698 27.5968 31.6523C27.5968 31.3347 27.8453 31.0784 28.1532 31.0784H36.3145C36.6224 31.0784 36.8709 31.3347 36.8709 31.6523C36.8709 31.9698 36.6224 32.2262 36.3145 32.2262Z" fill="#252D32"/>
<path d="M41.879 28.4H28.1532C27.8453 28.4 27.5968 28.1437 27.5968 27.8261C27.5968 27.5085 27.8453 27.2522 28.1532 27.2522H41.879C42.1869 27.2522 42.4355 27.5085 42.4355 27.8261C42.4355 28.1437 42.1869 28.4 41.879 28.4Z" fill="#252D32"/>
<path d="M29.6371 45.9999H2.55645C2.24855 45.9999 2 45.7436 2 45.426V41.0452C2 36.5036 4.04403 33.8751 9.05952 31.9812C10.3616 31.4876 11.3892 31.0438 11.8084 30.1714C11.9456 29.8883 12.2795 29.7697 12.554 29.9112C12.8285 30.0528 12.9435 30.3972 12.8063 30.6803C12.209 31.9314 10.9292 32.4977 9.44532 33.0601C4.88984 34.7819 3.11661 37.0201 3.11661 41.049V44.8559H29.0806V41.049C29.0806 37.0239 27.3074 34.7857 22.7519 33.0601C21.1085 32.4403 19.0645 31.6674 19.0645 29.1346V28.5912C19.0645 28.2737 19.3131 28.0173 19.621 28.0173C19.9289 28.0173 20.1774 28.2737 20.1774 28.5912V29.1346C20.1774 30.7453 21.3497 31.3078 23.134 31.9812C28.1458 33.8751 30.1935 36.5036 30.1935 41.0452V45.426C30.1935 45.7436 29.945 45.9999 29.6371 45.9999Z" fill="#252D32"/>
<path d="M8.86291 45.6173C8.55501 45.6173 8.30646 45.3609 8.30646 45.0434V40.8347C8.30646 40.5171 8.55501 40.2607 8.86291 40.2607C9.17081 40.2607 9.41936 40.5171 9.41936 40.8347V45.0434C9.41936 45.3609 9.17081 45.6173 8.86291 45.6173Z" fill="#252D32"/>
<path d="M23.3307 45.6173C23.0228 45.6173 22.7742 45.3609 22.7742 45.0434V40.8347C22.7742 40.5171 23.0228 40.2607 23.3307 40.2607C23.6386 40.2607 23.8871 40.5171 23.8871 40.8347V45.0434C23.8871 45.3609 23.6386 45.6173 23.3307 45.6173Z" fill="#252D32"/>
<path d="M16.2006 35.5777C13.9748 35.5777 11.9865 34.0893 11.2482 31.8778C11.1481 31.5794 11.3039 31.2504 11.5932 31.1471C11.8826 31.0438 12.2016 31.2045 12.3018 31.5029C12.8842 33.2514 14.4534 34.4298 16.2006 34.4298C17.9479 34.4298 19.5171 33.2552 20.1032 31.5029C20.2034 31.2045 20.5224 31.0438 20.8118 31.1471C21.1011 31.2504 21.2569 31.5756 21.1568 31.8778C20.4185 34.0893 18.4302 35.5777 16.2044 35.5777H16.2006Z" fill="#252D32"/>
<path d="M45.9597 42.1738C45.6518 42.1738 45.4032 41.9175 45.4032 41.5999V23.0816C45.4032 22.8482 45.2215 22.6608 44.9952 22.6608H31.492C31.184 22.6608 30.9355 22.4044 30.9355 22.0869C30.9355 21.7693 31.184 21.5129 31.492 21.5129H44.9952C45.8336 21.5129 46.5161 22.2169 46.5161 23.0816V41.5999C46.5161 41.9175 46.2676 42.1738 45.9597 42.1738Z" fill="#252D32"/>
<path d="M44.4758 46.0002H32.6048C32.2969 46.0002 32.0484 45.7439 32.0484 45.4263C32.0484 45.1087 32.2969 44.8524 32.6048 44.8524H44.4758C45.6147 44.8524 46.5718 44.0336 46.824 42.9393H32.6048C32.2969 42.9393 32.0484 42.683 32.0484 42.3654C32.0484 42.0479 32.2969 41.7915 32.6048 41.7915H47.4435C47.7515 41.7915 48 42.0479 48 42.3654C48 44.3703 46.4197 46.0002 44.4758 46.0002Z" fill="#252D32"/>
</svg>
