<svg width="122" height="122" viewBox="0 0 122 122" fill="none" xmlns="http://www.w3.org/2000/svg">
<rect x="1" y="1" width="120" height="120" rx="39" fill="#F7F7F7" stroke="#EBEBEB" stroke-width="2"/>
<path d="M87 90.25V83.75C87 80.3022 85.6304 76.9956 83.1924 74.5576C80.7544 72.1196 77.4478 70.75 74 70.75H48C44.5522 70.75 41.2456 72.1196 38.8076 74.5576C36.3696 76.9956 35 80.3022 35 83.75V90.25" stroke="#D9D9D9" stroke-width="4" stroke-linecap="round" stroke-linejoin="round"/>
<path d="M61 57.75C68.1797 57.75 74 51.9297 74 44.75C74 37.5703 68.1797 31.75 61 31.75C53.8203 31.75 48 37.5703 48 44.75C48 51.9297 53.8203 57.75 61 57.75Z" stroke="#D9D9D9" stroke-width="4" stroke-linecap="round" stroke-linejoin="round"/>
</svg>
