<svg width="36" height="30" viewBox="0 0 36 30" fill="none" xmlns="http://www.w3.org/2000/svg">
<path d="M25.8261 15H10.1739C9.91408 15 9.70435 14.7906 9.70435 14.5312C9.70435 14.2719 9.91408 14.0625 10.1739 14.0625H25.8261C26.0859 14.0625 26.2956 14.2719 26.2956 14.5312C26.2956 14.7906 26.0859 15 25.8261 15Z" fill="#252D32"/>
<path d="M19.8783 19.0625H10.1739C9.91408 19.0625 9.70435 18.8531 9.70435 18.5938C9.70435 18.3344 9.91408 18.125 10.1739 18.125H19.8783C20.1381 18.125 20.3478 18.3344 20.3478 18.5938C20.3478 18.8531 20.1381 19.0625 19.8783 19.0625Z" fill="#252D32"/>
<path d="M20.1913 11.25H10.1739C9.91408 11.25 9.70435 11.0406 9.70435 10.7812C9.70435 10.5219 9.91408 10.3125 10.1739 10.3125H20.1913C20.4511 10.3125 20.6609 10.5219 20.6609 10.7812C20.6609 11.0406 20.4511 11.25 20.1913 11.25Z" fill="#252D32"/>
<path d="M25.8261 11.25H22.6957C22.4358 11.25 22.2261 11.0406 22.2261 10.7812C22.2261 10.5219 22.4358 10.3125 22.6957 10.3125H25.8261C26.0859 10.3125 26.2957 10.5219 26.2957 10.7812C26.2957 11.0406 26.0859 11.25 25.8261 11.25Z" fill="#252D32"/>
<path d="M6.58956 0.625H29.4104C29.592 0.625 29.7391 0.771875 29.7391 0.953125V5.625H6.26086V0.953125C6.26086 0.771875 6.40799 0.625 6.58956 0.625Z" fill="#FFD600"/>
<path d="M29.5826 5.9375H6.41738C6.15755 5.9375 5.94781 5.72812 5.94781 5.46875C5.94781 5.20938 6.15755 5 6.41738 5H29.5826C29.8424 5 30.0522 5.20938 30.0522 5.46875C30.0522 5.72812 29.8424 5.9375 29.5826 5.9375Z" fill="#252D32"/>
<path d="M0.626068 26.875V27.0875C0.626068 28.5219 1.79059 29.6875 3.23059 29.6875H32.7694C34.2062 29.6875 35.3739 28.525 35.3739 27.0875V26.875H0.626068Z" fill="#393434"/>
<path d="M32.9259 30H3.07409C1.38052 30 0 28.625 0 26.9313V26.7188C0 26.4594 0.209739 26.25 0.469565 26.25H35.5304C35.7903 26.25 36 26.4594 36 26.7188V26.9313C36 28.6219 34.6226 30 32.9259 30ZM0.954783 27.1875C1.08313 28.2438 1.9847 29.0625 3.07409 29.0625H32.9259C34.0153 29.0625 34.9169 28.2438 35.0452 27.1875H0.954783Z" fill="#252D32"/>
<path d="M2.03478 25.3125C1.77496 25.3125 1.56522 25.1031 1.56522 24.8438V5.95312C1.56522 4.90937 2.41669 4.0625 3.45913 4.0625H4.22609C4.48591 4.0625 4.69565 4.27188 4.69565 4.53125C4.69565 4.79062 4.48591 5 4.22609 5H3.45913C2.93322 5 2.50435 5.42812 2.50435 5.95312V24.8438C2.50435 25.1031 2.29461 25.3125 2.03478 25.3125Z" fill="#252D32"/>
<path d="M33.9652 25.3125C33.7054 25.3125 33.4957 25.1031 33.4957 24.8438V5.95312C33.4957 5.42812 33.0668 5 32.5409 5H31.4609C31.201 5 30.9913 4.79062 30.9913 4.53125C30.9913 4.27188 31.201 4.0625 31.4609 4.0625H32.5409C33.5864 4.0625 34.4348 4.9125 34.4348 5.95312V24.8438C34.4348 25.1031 34.225 25.3125 33.9652 25.3125Z" fill="#252D32"/>
<path d="M29.8956 25.3125C29.6358 25.3125 29.4261 25.1031 29.4261 24.8438V1.15313C29.4261 1.03438 29.329 0.9375 29.2101 0.9375H6.7899C6.67094 0.9375 6.5739 1.03438 6.5739 1.15313V24.8438C6.5739 25.1031 6.36416 25.3125 6.10433 25.3125C5.8445 25.3125 5.63477 25.1031 5.63477 24.8438V1.15313C5.63477 0.51875 6.15442 0 6.7899 0H29.2101C29.8455 0 30.3652 0.51875 30.3652 1.15313V24.8438C30.3652 25.1031 30.1555 25.3125 29.8956 25.3125Z" fill="#252D32"/>
<path d="M16.4348 3.4375H15.1826C14.9228 3.4375 14.713 3.22812 14.713 2.96875C14.713 2.70938 14.9228 2.5 15.1826 2.5H16.4348C16.6946 2.5 16.9044 2.70938 16.9044 2.96875C16.9044 3.22812 16.6946 3.4375 16.4348 3.4375ZM13.3044 3.4375H12.0522C11.7924 3.4375 11.5826 3.22812 11.5826 2.96875C11.5826 2.70938 11.7924 2.5 12.0522 2.5H13.3044C13.5642 2.5 13.7739 2.70938 13.7739 2.96875C13.7739 3.22812 13.5642 3.4375 13.3044 3.4375ZM10.1739 3.4375H8.92174C8.66192 3.4375 8.45218 3.22812 8.45218 2.96875C8.45218 2.70938 8.66192 2.5 8.92174 2.5H10.1739C10.4337 2.5 10.6435 2.70938 10.6435 2.96875C10.6435 3.22812 10.4337 3.4375 10.1739 3.4375Z" fill="#252D32"/>
</svg>
