<svg width="50" height="50" viewBox="0 0 50 50" fill="none" xmlns="http://www.w3.org/2000/svg">
<g clip-path="url(#clip0_19_285)">
<path d="M7.47058 35.8572V37.2988C7.47058 38.0405 8.08117 38.6429 8.83293 38.6429H42.8141C43.5659 38.6429 44.1765 38.0405 44.1765 37.2988V35.8572H7.47058Z" fill="#393434"/>
<path d="M42.7329 39.3393H8.91412C7.72824 39.3393 6.76471 38.3886 6.76471 37.2186V13.9509C6.76471 12.7809 7.72824 11.8303 8.91412 11.8303H21.7647C22.0576 11.8303 22.2941 12.0636 22.2941 12.3526C22.2941 12.6417 22.0576 12.875 21.7647 12.875H8.91412C8.31059 12.875 7.82353 13.359 7.82353 13.9509V37.2186C7.82353 37.8141 8.31412 38.2946 8.91412 38.2946H42.7329C43.3365 38.2946 43.8235 37.8106 43.8235 37.2186V24.5401C43.8235 24.2511 44.06 24.0178 44.3529 24.0178C44.6459 24.0178 44.8824 24.2511 44.8824 24.5401V37.2186C44.8824 38.3886 43.9188 39.3393 42.7329 39.3393Z" fill="#393434"/>
<path d="M22.0577 44.1411C21.9765 44.1411 21.8918 44.1237 21.8141 44.0819C21.5529 43.9496 21.4541 43.6327 21.5882 43.3785C22.0506 42.4976 22.2941 41.5051 22.2941 40.5127V39.1651C22.2941 38.8761 22.5306 38.6428 22.8235 38.6428C23.1165 38.6428 23.3529 38.8761 23.3529 39.1651V40.5127C23.3529 41.6723 23.0671 42.8284 22.5271 43.8556C22.4318 44.0367 22.2482 44.1376 22.0577 44.1376V44.1411Z" fill="#393434"/>
<path d="M29.5894 44.1411C29.3988 44.1411 29.2118 44.0366 29.12 43.859C28.58 42.8283 28.2941 41.6722 28.2941 40.5161V39.1686C28.2941 38.8795 28.5306 38.6462 28.8235 38.6462C29.1165 38.6462 29.3529 38.8795 29.3529 39.1686V40.5161C29.3529 41.5086 29.5965 42.501 30.0588 43.382C30.1929 43.6396 30.0906 43.953 29.8329 44.0853C29.7553 44.1236 29.6741 44.1445 29.5894 44.1445V44.1411Z" fill="#393434"/>
<path d="M33.0588 47H18.9412C18.6482 47 18.4118 46.7667 18.4118 46.4776V44.0401C18.4118 43.7511 18.6482 43.5178 18.9412 43.5178H23.8824C24.1753 43.5178 24.4118 43.7511 24.4118 44.0401C24.4118 44.3292 24.1753 44.5625 23.8824 44.5625H19.4706V45.9553H32.5294V44.5625H26.7059C26.413 44.5625 26.1765 44.3292 26.1765 44.0401C26.1765 43.7511 26.413 43.5178 26.7059 43.5178H33.0588C33.3518 43.5178 33.5882 43.7511 33.5882 44.0401V46.4776C33.5882 46.7667 33.3518 47 33.0588 47Z" fill="#393434"/>
<path d="M46.4706 47H5.52941C5.23647 47 5 46.7667 5 46.4776C5 46.1886 5.23647 45.9553 5.52941 45.9553H46.4706C46.7635 45.9553 47 46.1886 47 46.4776C47 46.7667 46.7635 47 46.4706 47Z" fill="#393434"/>
<path d="M43.6471 36.2053H7.64706C7.35412 36.2053 7.11765 35.972 7.11765 35.683C7.11765 35.3939 7.35412 35.1606 7.64706 35.1606H43.6471C43.94 35.1606 44.1765 35.3939 44.1765 35.683C44.1765 35.972 43.94 36.2053 43.6471 36.2053Z" fill="#393434"/>
<path d="M43.6471 36.2053H7.99999C7.70705 36.2053 7.47058 35.972 7.47058 35.683C7.47058 35.3939 7.70705 35.1606 7.99999 35.1606H43.6471C43.94 35.1606 44.1765 35.3939 44.1765 35.683C44.1765 35.972 43.94 36.2053 43.6471 36.2053Z" fill="#393434"/>
<path d="M21.4118 21.5803H12.9412C12.6482 21.5803 12.4118 21.347 12.4118 21.058C12.4118 20.7689 12.6482 20.5356 12.9412 20.5356H21.4118C21.7047 20.5356 21.9412 20.7689 21.9412 21.058C21.9412 21.347 21.7047 21.5803 21.4118 21.5803Z" fill="#393434"/>
<path d="M23.1765 25.4106H12.9412C12.6482 25.4106 12.4118 25.1773 12.4118 24.8883C12.4118 24.5993 12.6482 24.366 12.9412 24.366H23.1765C23.4694 24.366 23.7059 24.5993 23.7059 24.8883C23.7059 25.1773 23.4694 25.4106 23.1765 25.4106Z" fill="#393434"/>
<path d="M38.7059 29.2412H34.8235C34.5306 29.2412 34.2941 29.0079 34.2941 28.7189C34.2941 28.4298 34.5306 28.1965 34.8235 28.1965H38.7059C38.9988 28.1965 39.2353 28.4298 39.2353 28.7189C39.2353 29.0079 38.9988 29.2412 38.7059 29.2412Z" fill="#393434"/>
<path d="M31.6471 29.2412H12.9412C12.6482 29.2412 12.4118 29.0079 12.4118 28.7189C12.4118 28.4298 12.6482 28.1965 12.9412 28.1965H31.6471C31.94 28.1965 32.1765 28.4298 32.1765 28.7189C32.1765 29.0079 31.94 29.2412 31.6471 29.2412Z" fill="#393434"/>
<path d="M43.9718 8.69653H26.0282C25.1353 8.69653 24.4118 9.41037 24.4118 10.2914V20.6786C24.4118 21.5596 25.1353 22.2734 26.0282 22.2734H26.4518L26.1835 26.351L30.38 22.2734H43.9718C44.8647 22.2734 45.5882 21.5596 45.5882 20.6786V10.2914C45.5882 9.41037 44.8647 8.69653 43.9718 8.69653Z" fill="#FFD600"/>
<path d="M26.0071 26.7026C25.9329 26.7026 25.8588 26.6852 25.7882 26.6538C25.5871 26.5633 25.4671 26.3613 25.4812 26.1454L25.7141 22.6215C24.5953 22.5484 23.7059 21.6291 23.7059 20.5079V10.1171C23.7059 8.95063 24.6694 8 25.8518 8H43.7918C44.9741 8 45.9377 8.95063 45.9377 10.1171V20.5044C45.9377 21.6709 44.9741 22.6215 43.7918 22.6215H30.4188L26.3777 26.5459C26.2753 26.6434 26.1412 26.6956 26.0071 26.6956V26.7026ZM25.8518 9.04464C25.2518 9.04464 24.7647 9.52518 24.7647 10.1171V20.5044C24.7647 21.0963 25.2518 21.5769 25.8518 21.5769H26.2753C26.4235 21.5769 26.5612 21.6361 26.66 21.7405C26.7588 21.845 26.8118 21.9878 26.8012 22.1305L26.6212 24.8396L29.8259 21.7266C29.9247 21.6291 30.0588 21.5769 30.1965 21.5769H43.7882C44.3882 21.5769 44.8753 21.0963 44.8753 20.5044V10.1171C44.8753 9.52518 44.3882 9.04464 43.7882 9.04464H25.8518Z" fill="#393434"/>
<path d="M29.0388 17.7012C28.9471 17.7012 28.8659 17.6699 28.8024 17.6072C28.7388 17.5446 28.7071 17.4679 28.7071 17.3739V13.1327C28.7071 13.0352 28.7388 12.9586 28.8024 12.8994C28.8659 12.8402 28.9435 12.8088 29.0388 12.8088H31.9118C32.0106 12.8088 32.0882 12.8367 32.1482 12.8924C32.2082 12.9481 32.2365 13.0247 32.2365 13.1153C32.2365 13.2058 32.2082 13.2754 32.1482 13.3277C32.0882 13.3834 32.0106 13.4078 31.9118 13.4078H29.3706V14.9295H31.1953C31.2941 14.9295 31.3718 14.9573 31.4318 15.013C31.4918 15.0687 31.52 15.1419 31.52 15.2289C31.52 15.316 31.4918 15.3891 31.4318 15.4448C31.3718 15.5005 31.2941 15.5284 31.1953 15.5284H29.3706V17.3704C29.3706 17.461 29.3388 17.5411 29.2753 17.6037C29.2118 17.6664 29.1341 17.6978 29.0388 17.6978V17.7012Z" fill="#393434"/>
<path d="M32.12 17.7013C32 17.7013 31.9118 17.6526 31.8482 17.5516C31.7847 17.4506 31.7776 17.3461 31.8306 17.2312L33.6165 13.0248C33.68 12.8785 33.7824 12.8054 33.9271 12.8054C34.0788 12.8054 34.1847 12.8785 34.2376 13.0248L36.0306 17.2417C36.0765 17.3601 36.0694 17.4645 36.0094 17.5585C35.9494 17.6526 35.8541 17.7013 35.7341 17.7013C35.6706 17.7013 35.6106 17.6839 35.5541 17.6491C35.4976 17.6143 35.4553 17.5655 35.4306 17.5028L33.8565 13.6411H34.0329L32.4306 17.5028C32.4024 17.569 32.3565 17.6212 32.3 17.6526C32.2435 17.6874 32.1835 17.7013 32.1235 17.7013H32.12ZM32.4553 16.6218L32.7094 16.0821H35.2012L35.4553 16.6218H32.4553Z" fill="#393434"/>
<path d="M38.9494 17.7639C38.5753 17.7639 38.2365 17.7012 37.9259 17.5794C37.6153 17.4575 37.3506 17.2834 37.1282 17.0605C36.9059 16.8377 36.7329 16.573 36.6094 16.2631C36.4859 15.9567 36.4259 15.6189 36.4259 15.2498C36.4259 14.8807 36.4859 14.5464 36.6094 14.24C36.7329 13.9336 36.9059 13.6689 37.1282 13.4461C37.3506 13.2232 37.6153 13.0491 37.9259 12.9272C38.2329 12.8054 38.5753 12.7427 38.9494 12.7427C39.3235 12.7427 39.6623 12.8054 39.9694 12.9272C40.2765 13.0491 40.5412 13.2232 40.767 13.4461C40.9929 13.6689 41.1659 13.9336 41.2894 14.24C41.4129 14.5464 41.4729 14.8807 41.4729 15.2498C41.4729 15.6189 41.4129 15.9567 41.2894 16.2631C41.1659 16.5696 40.9929 16.8342 40.767 17.0605C40.5412 17.2834 40.2765 17.4575 39.9694 17.5794C39.6623 17.7012 39.3235 17.7639 38.9494 17.7639ZM38.9494 17.1754C39.2247 17.1754 39.4788 17.1267 39.7082 17.0292C39.9376 16.9317 40.1388 16.7959 40.3082 16.6218C40.4776 16.4477 40.6082 16.2457 40.7 16.0124C40.7918 15.7791 40.8376 15.5249 40.8376 15.2533C40.8376 14.9817 40.7918 14.7275 40.7 14.4942C40.6082 14.2609 40.4776 14.0554 40.3082 13.8848C40.1388 13.7107 39.9376 13.5784 39.7082 13.4809C39.4788 13.3834 39.2247 13.3381 38.9494 13.3381C38.6741 13.3381 38.42 13.3869 38.1906 13.4809C37.9612 13.5784 37.76 13.7107 37.5941 13.8848C37.4282 14.0589 37.2976 14.2609 37.2023 14.4942C37.1106 14.7275 37.0612 14.9817 37.0612 15.2533C37.0612 15.5249 37.107 15.7791 37.2023 16.0124C37.2941 16.2457 37.4247 16.4512 37.5941 16.6218C37.76 16.7959 37.9612 16.9317 38.1906 17.0292C38.42 17.1267 38.6741 17.1754 38.9494 17.1754ZM40.6823 17.6003L39.3553 16.291C39.2882 16.2248 39.2529 16.1482 39.2529 16.0681C39.2529 15.988 39.2882 15.9114 39.3553 15.8453C39.4223 15.7791 39.5 15.7443 39.5812 15.7443C39.6623 15.7443 39.74 15.7791 39.807 15.8453L41.1341 17.1615C41.1976 17.2277 41.2294 17.3008 41.2329 17.3809C41.2329 17.461 41.2012 17.5341 41.1341 17.6003C41.067 17.6664 40.9894 17.7012 40.9082 17.7012C40.827 17.7012 40.7494 17.6664 40.6823 17.6003Z" fill="#393434"/>
<path d="M42.4118 46.3035H37.8235V45.7812C37.8235 44.5311 38.8506 43.5178 40.1176 43.5178C41.3847 43.5178 42.4118 44.5311 42.4118 45.7812V46.3035Z" fill="#FFD600"/>
<path d="M42.5882 47.0001H37.6471C37.3541 47.0001 37.1176 46.7668 37.1176 46.4778V45.7814C37.1176 44.1482 38.4624 42.8215 40.1176 42.8215C41.7729 42.8215 43.1176 44.1482 43.1176 45.7814V46.4778C43.1176 46.7668 42.8812 47.0001 42.5882 47.0001ZM38.1765 45.9555H42.0588V45.7814C42.0588 44.7263 41.1871 43.8662 40.1176 43.8662C39.0482 43.8662 38.1765 44.7263 38.1765 45.7814V45.9555Z" fill="#393434"/>
<path d="M40.1176 43.5179C39.8247 43.5179 39.5882 43.2846 39.5882 42.9956C39.5882 42.3235 39.0341 41.7768 38.3529 41.7768H31.2941C31.0012 41.7768 30.7647 41.5435 30.7647 41.2545C30.7647 40.9655 31.0012 40.7322 31.2941 40.7322H38.3529C39.6165 40.7322 40.6471 41.749 40.6471 42.9956C40.6471 43.2846 40.4106 43.5179 40.1176 43.5179Z" fill="#393434"/>
</g>
<defs>
<clipPath id="clip0_19_285">
<rect width="42" height="39" fill="white" transform="translate(5 8)"/>
</clipPath>
</defs>
</svg>
