<svg width="60" height="52" viewBox="0 0 60 52" fill="none" xmlns="http://www.w3.org/2000/svg">
<path d="M26.3445 21.251C26.2588 21.2192 26.1781 21.1874 26.0924 21.1502C25.4168 22.1531 24.2571 22.811 22.9412 22.811C21.6252 22.811 20.4706 22.1531 19.7899 21.1502C19.7092 21.182 19.6286 21.2139 19.5479 21.2457C17.9899 21.8453 15.6302 22.8163 15.6302 26.2122V28.1171H30.2521V26.2122C30.2521 22.811 27.9126 21.8453 26.3445 21.2457V21.251Z" fill="#312E27"/>
<path d="M28.5781 11.0261C28.5781 8.87715 26.879 6.5849 23.9042 6.37266C22.6336 6.28245 21.2269 6.95633 20.642 7.54001C18.2874 7.93266 17.5008 9.88001 17.5008 11.249C17.5008 14.3743 18.484 15.738 16.5176 18.078L19.4521 19.6274H21.1765V18.7571C20.0672 17.9241 19.1597 16.449 19.1597 14.9474V13.1539C19.1597 13.1539 20.2538 12.1192 21.5395 10.2727C22.8302 11.9335 26.7227 13.1539 26.7227 13.1539V14.5865C26.7227 16.1041 25.8151 17.5951 24.7059 18.4282V19.0967H26.4101C28.7647 19.4416 29.7479 18.078 29.7479 18.078C27.7865 15.738 28.5781 14.1461 28.5781 11.0208V11.0261Z" fill="#FFC960"/>
<path d="M1.00839 46.6939V47.0547C1.00839 49.4902 2.88402 51.4694 5.20335 51.4694H54.7966C57.1109 51.4694 58.9916 49.4955 58.9916 47.0547V46.6939H1.00839Z" fill="#312E27"/>
<path d="M55.0487 52H4.95126C2.22353 52 0 49.6653 0 46.7894V46.4286C0 45.9882 0.337815 45.6327 0.756303 45.6327H59.2437C59.6622 45.6327 60 45.9882 60 46.4286V46.7894C60 49.66 57.7815 52 55.0487 52ZM1.53782 47.2245C1.74454 49.018 3.19664 50.4082 4.95126 50.4082H55.0487C56.8034 50.4082 58.2555 49.018 58.4622 47.2245H1.53782Z" fill="#312E27"/>
<path d="M3.2773 44.0408C2.85881 44.0408 2.521 43.6853 2.521 43.2449V10.1082C2.521 8.33592 3.89242 6.89796 5.57142 6.89796H6.80671C7.2252 6.89796 7.56301 7.25347 7.56301 7.69388C7.56301 8.13429 7.2252 8.4898 6.80671 8.4898H5.57142C4.72436 8.4898 4.0336 9.21674 4.0336 10.1082V43.2449C4.0336 43.6853 3.69579 44.0408 3.2773 44.0408Z" fill="#312E27"/>
<path d="M56.7227 46.6939C56.3042 46.6939 55.9664 46.3384 55.9664 45.898V10.1082C55.9664 9.21674 55.2756 8.4898 54.4286 8.4898H52.6891C52.2706 8.4898 51.9328 8.13429 51.9328 7.69388C51.9328 7.25347 52.2706 6.89796 52.6891 6.89796H54.4286C56.1126 6.89796 57.479 8.34123 57.479 10.1082V45.898C57.479 46.3384 57.1412 46.6939 56.7227 46.6939Z" fill="#312E27"/>
<path d="M37.0891 31.0355L45.1059 33.5771L41.3698 35.8322L39.005 39.6155L37.0891 31.0355Z" fill="#FFC960"/>
<path d="M44.6219 22.2857H32.521C32.1025 22.2857 31.7647 21.9302 31.7647 21.4898C31.7647 21.0494 32.1025 20.6939 32.521 20.6939H44.6219C45.0403 20.6939 45.3782 21.0494 45.3782 21.4898C45.3782 21.9302 45.0403 22.2857 44.6219 22.2857Z" fill="#312E27"/>
<path d="M44.6219 11.6735H32.521C32.1025 11.6735 31.7647 11.318 31.7647 10.8776C31.7647 10.4371 32.1025 10.0816 32.521 10.0816H44.6219C45.0403 10.0816 45.3782 10.4371 45.3782 10.8776C45.3782 11.318 45.0403 11.6735 44.6219 11.6735Z" fill="#312E27"/>
<path d="M31.5126 34.4898H15.3782C14.9597 34.4898 14.6219 34.1343 14.6219 33.6939C14.6219 33.2535 14.9597 32.898 15.3782 32.898H31.5126C31.9311 32.898 32.2689 33.2535 32.2689 33.6939C32.2689 34.1343 31.9311 34.4898 31.5126 34.4898Z" fill="#312E27"/>
<path d="M24.4538 39.7959H15.3782C14.9597 39.7959 14.6219 39.4404 14.6219 39C14.6219 38.5596 14.9597 38.2041 15.3782 38.2041H24.4538C24.8723 38.2041 25.2101 38.5596 25.2101 39C25.2101 39.4404 24.8723 39.7959 24.4538 39.7959Z" fill="#312E27"/>
<path d="M38.0672 16.9796H32.521C32.1025 16.9796 31.7647 16.6241 31.7647 16.1837C31.7647 15.7433 32.1025 15.3878 32.521 15.3878H38.0672C38.4857 15.3878 38.8235 15.7433 38.8235 16.1837C38.8235 16.6241 38.4857 16.9796 38.0672 16.9796Z" fill="#312E27"/>
<path d="M44.6218 16.9796H41.5966C41.1781 16.9796 40.8403 16.6241 40.8403 16.1837C40.8403 15.7433 41.1781 15.3878 41.5966 15.3878H44.6218C45.0403 15.3878 45.3781 15.7433 45.3781 16.1837C45.3781 16.6241 45.0403 16.9796 44.6218 16.9796Z" fill="#312E27"/>
<path d="M50.1681 46.6939C49.7496 46.6939 49.4118 46.3384 49.4118 45.898V1.59184H10.5882V45.3673C10.5882 45.8078 10.2504 46.1633 9.83193 46.1633C9.41344 46.1633 9.07562 45.8078 9.07562 45.3673V0.795918C9.07562 0.35551 9.41344 0 9.83193 0H50.1681C50.5865 0 50.9244 0.35551 50.9244 0.795918V45.898C50.9244 46.3384 50.5865 46.6939 50.1681 46.6939Z" fill="#312E27"/>
<path d="M22.9664 19.6539C20.8336 19.6539 18.6555 17.038 18.6555 14.4751V13.0796C18.6555 12.862 18.7412 12.6498 18.8924 12.5012C18.9025 12.4906 19.8756 11.5196 21.0151 9.82164C21.1513 9.6147 21.3731 9.49266 21.6151 9.48735C21.8571 9.49796 22.084 9.59347 22.2302 9.7898C23.0975 10.9518 25.7445 12.0078 26.6975 12.3208C27.0151 12.4216 27.2319 12.7347 27.2319 13.0796V14.4751C27.2319 17.038 25.084 19.6539 22.9714 19.6539H22.9664ZM20.1681 13.4139V14.4751C20.1681 16.2527 21.7966 18.062 22.9664 18.062C24.1361 18.062 25.7143 16.2527 25.7143 14.4751V13.658C24.7916 13.3184 22.9412 12.549 21.726 11.4984C21.0504 12.4322 20.4756 13.0849 20.1681 13.4139Z" fill="#312E27"/>
<path d="M30.5042 29.1837H15.3782C14.9597 29.1837 14.6219 28.8282 14.6219 28.3878V26.3767C14.6219 22.1743 17.6924 20.9698 19.1698 20.3861C20.3798 19.9139 20.6723 19.6433 20.6723 19.0171V18.3008C20.6723 17.8604 21.0101 17.5049 21.4286 17.5049C21.8471 17.5049 22.1849 17.8604 22.1849 18.3008V19.0171C22.1849 20.9008 20.6874 21.4845 19.6992 21.8771C17.8235 22.6147 16.1345 23.5114 16.1345 26.3767V27.5918H29.7479V26.3767C29.7479 23.5061 28.0689 22.6094 26.1983 21.8824C25.2051 21.4951 23.6975 20.9061 23.6975 19.0224V18.3061C23.6975 17.8657 24.0353 17.5102 24.4538 17.5102C24.8723 17.5102 25.2101 17.8657 25.2101 18.3061V19.0224C25.2101 19.6433 25.5076 19.9139 26.7227 20.3914C28.195 20.9645 31.2605 22.1637 31.2605 26.382V28.3931C31.2605 28.8335 30.9227 29.189 30.5042 29.189V29.1837Z" fill="#312E27"/>
</svg>
