<svg width="60" height="56" viewBox="0 0 60 56" fill="none" xmlns="http://www.w3.org/2000/svg">
<path d="M5.60976 35.6812C5.20488 35.6812 4.87805 35.3491 4.87805 34.9378V32.7672C4.87805 31.5084 5.48781 30.6858 6.74147 30.2447C7.27805 30.0564 7.63903 29.6104 7.68781 29.0801V29.0107C7.73171 28.5994 8.08293 28.302 8.48781 28.3367C8.89269 28.3714 9.18537 28.7332 9.15122 29.1445V29.2139C9.04391 30.319 8.28781 31.2755 7.21952 31.6521C6.47805 31.9098 6.34147 32.232 6.34147 32.7672V34.9378C6.34147 35.3491 6.01464 35.6812 5.60976 35.6812Z" fill="#312E27"/>
<path d="M10.0927 30.1609C8.58047 30.1609 6.82925 28.6296 6.82925 26.6522V25.2795C6.82925 23.6689 7.9073 22.2813 9.39023 21.979C10.3512 21.7807 11.3414 22.0285 12.0878 22.653C12.839 23.2774 13.2683 24.1991 13.2683 25.1853L13.3512 26.6126C13.3512 26.6126 13.3512 26.6423 13.3512 26.6572C13.3512 28.6345 11.6 30.1659 10.0927 30.1659V30.1609ZM10.0536 23.3963C9.93169 23.3963 9.80486 23.4112 9.67803 23.436C8.87316 23.5995 8.29267 24.3726 8.29267 25.2795V26.6522C8.29267 27.8069 9.38535 28.6742 10.0927 28.6742C10.8 28.6742 11.878 27.8168 11.8878 26.6671L11.8049 25.22C11.8049 24.6402 11.5707 24.1347 11.161 23.7977C10.8439 23.5301 10.4585 23.3914 10.0488 23.3914L10.0536 23.3963Z" fill="#312E27"/>
<path d="M24.1463 35.6811C23.7414 35.6811 23.4146 35.3491 23.4146 34.9378V32.7671C23.4146 32.2319 23.278 31.9098 22.5414 31.6521C21.4732 31.2755 20.7171 30.319 20.6146 29.2188V29.1445C20.5707 28.7332 20.8683 28.3763 21.2732 28.3367C21.6732 28.302 22.0293 28.6043 22.0683 29.0107V29.0801C22.1219 29.6103 22.4829 30.0563 23.0195 30.2447C24.2732 30.6857 24.8829 31.5084 24.8829 32.7671V34.9378C24.8829 35.3491 24.5561 35.6811 24.1512 35.6811H24.1463Z" fill="#312E27"/>
<path d="M19.8488 30.1609C18.3366 30.1609 16.5854 28.6296 16.5854 26.6522V25.2795C16.5854 23.6689 17.6634 22.2813 19.1463 21.979C20.1073 21.7807 21.0976 22.0285 21.8439 22.653C22.5951 23.2774 23.0244 24.1991 23.0244 25.1853L23.1073 26.6126C23.1073 26.6126 23.1073 26.6423 23.1073 26.6572C23.1073 28.6345 21.3561 30.1659 19.8488 30.1659V30.1609ZM19.8097 23.3963C19.6878 23.3963 19.561 23.4112 19.4341 23.436C18.6293 23.5995 18.0488 24.3726 18.0488 25.2795V26.6522C18.0488 27.8069 19.1415 28.6742 19.8488 28.6742C20.5561 28.6742 21.6341 27.8168 21.6439 26.6671L21.561 25.22C21.561 24.6402 21.3268 24.1347 20.9171 23.7977C20.6 23.5301 20.2146 23.3914 19.8049 23.3914L19.8097 23.3963Z" fill="#312E27"/>
<path d="M10.8732 42.2867C10.4683 42.2867 10.1415 41.9546 10.1415 41.5433C10.1415 40.2846 10.7512 39.4619 12.0049 39.0208C12.5415 38.8325 12.9025 38.3865 12.9512 37.8562V37.7869C12.9951 37.3755 13.3464 37.0732 13.7512 37.1129C14.1561 37.1476 14.4488 37.5093 14.4146 37.9207V37.99C14.3073 39.0952 13.5512 40.0516 12.4829 40.4283C11.7415 40.686 11.6049 41.0081 11.6049 41.5433C11.6049 41.9546 11.2781 42.2867 10.8732 42.2867Z" fill="#312E27"/>
<path d="M20.0585 42.2866C19.6536 42.2866 19.3268 41.9546 19.3268 41.5433C19.3268 41.008 19.1902 40.6859 18.4536 40.4282C17.3854 40.0516 16.6293 39.0951 16.5268 37.9949V37.9206C16.4829 37.5093 16.7805 37.1525 17.1854 37.1128C17.5805 37.0732 17.9415 37.3804 17.9805 37.7868V37.8562C18.0341 38.3864 18.3951 38.8325 18.9317 39.0208C20.1854 39.4618 20.7951 40.2845 20.7951 41.5433C20.7951 41.9546 20.4683 42.2866 20.0634 42.2866H20.0585Z" fill="#312E27"/>
<path d="M15.4585 38.9383C13.9463 38.9383 12.1951 37.4069 12.1951 35.4296V34.0568C12.1951 32.4462 13.2732 31.0586 14.7561 30.7563C15.722 30.5581 16.7073 30.8059 17.4537 31.4303C18.2049 32.0547 18.6342 32.9765 18.6342 33.9627L18.7171 35.3899C18.7171 35.3899 18.7171 35.4197 18.7171 35.4296C18.7171 37.4069 16.9659 38.9383 15.4585 38.9383ZM15.4195 32.1737C15.2976 32.1737 15.1707 32.1885 15.0439 32.2133C14.239 32.3768 13.6585 33.1499 13.6585 34.0568V35.4296C13.6585 36.5843 14.7512 37.4515 15.4585 37.4515C16.1659 37.4515 17.2439 36.5942 17.2537 35.4445L17.1707 33.9974C17.1707 33.4175 16.9366 32.9121 16.5268 32.5751C16.2098 32.3075 15.8244 32.1687 15.4146 32.1687L15.4195 32.1737Z" fill="#312E27"/>
<path d="M10.8732 19.9859C10.4683 19.9859 10.1415 19.6539 10.1415 19.2425C10.1415 17.9838 10.7512 17.1611 12.0049 16.7201C12.5415 16.5317 12.9025 16.0857 12.9512 15.5555V15.4861C12.9951 15.0747 13.3464 14.7724 13.7512 14.8121C14.1561 14.8468 14.4488 15.2085 14.4146 15.6199V15.6893C14.3073 16.7944 13.5512 17.7509 12.4829 18.1275C11.7415 18.3852 11.6049 18.7073 11.6049 19.2425C11.6049 19.6539 11.2781 19.9859 10.8732 19.9859Z" fill="#312E27"/>
<path d="M20.0585 19.9858C19.6536 19.9858 19.3268 19.6538 19.3268 19.2425C19.3268 18.7073 19.1902 18.3851 18.4536 18.1274C17.3854 17.7508 16.6293 16.7943 16.5268 15.6942V15.6198C16.4829 15.2085 16.7805 14.8517 17.1854 14.812C17.5805 14.7724 17.9415 15.0797 17.9805 15.486V15.5554C18.0341 16.0857 18.3951 16.5317 18.9317 16.72C20.1854 17.1611 20.7951 17.9837 20.7951 19.2425C20.7951 19.6538 20.4683 19.9858 20.0634 19.9858H20.0585Z" fill="#312E27"/>
<path d="M15.4585 16.6355C13.9463 16.6355 12.1951 15.1042 12.1951 13.1269V11.7541C12.1951 10.1435 13.2732 8.75588 14.7561 8.45358C15.722 8.25535 16.7073 8.50314 17.4537 9.12756C18.2049 9.75198 18.6342 10.6738 18.6342 11.6599L18.7171 13.0872C18.7171 13.0872 18.7171 13.1169 18.7171 13.1269C18.7171 15.1042 16.9659 16.6355 15.4585 16.6355ZM15.4195 9.87092C15.2976 9.87092 15.1707 9.88579 15.0439 9.91057C14.239 10.0741 13.6585 10.8472 13.6585 11.7541V13.1269C13.6585 14.2815 14.7512 15.1488 15.4585 15.1488C16.1659 15.1488 17.2439 14.2915 17.2537 13.1417L17.1707 11.6946C17.1707 11.1148 16.9366 10.6093 16.5268 10.2723C16.2098 10.0047 15.8244 9.86597 15.4146 9.86597L15.4195 9.87092Z" fill="#312E27"/>
<path d="M45.0537 22.3001H47.3171C48.2927 19.3266 46.6976 13.3301 40.9756 11.893C40.9756 11.893 39.5122 10.9018 37.561 10.4062L37.0732 11.893C37.0732 11.893 34.8195 11.1496 32.6829 11.447V12.7503C31.361 13.4243 26.7073 14.8416 27.3171 22.3001L39.0049 17.3294L45.0585 22.3001H45.0537Z" fill="#FFC960"/>
<path d="M36.5659 34.011C35.8439 34.011 35.1171 33.8227 34.4781 33.446C34.1268 33.2379 34.0098 32.782 34.2146 32.4301C34.4195 32.0733 34.8683 31.9544 35.2146 32.1625C36.0244 32.6432 37.0976 32.6432 37.8878 32.1625C38.2342 31.9544 38.6829 32.0683 38.8927 32.4202C39.0976 32.7721 38.9854 33.228 38.639 33.4411C38.0098 33.8227 37.2878 34.011 36.561 34.011H36.5659Z" fill="#312E27"/>
<path d="M36.1805 30.2296H35.8537C35.4488 30.2296 35.1219 29.8976 35.1219 29.4862C35.1219 29.0749 35.4488 28.7429 35.8537 28.7429H36.1805C36.4049 28.7429 36.5854 28.5595 36.5854 28.3315V25.9231C36.5854 23.9606 37.7073 22.791 39.5805 22.791H41.7073C42.1122 22.791 42.439 23.1231 42.439 23.5344C42.439 23.9457 42.1122 24.2777 41.7073 24.2777H39.5805C38.5219 24.2777 38.0488 24.7832 38.0488 25.9231V28.3315C38.0488 29.3772 37.2098 30.2296 36.1805 30.2296Z" fill="#312E27"/>
<path d="M36.1171 37.6834C32.0488 37.6834 27.3171 33.3918 27.3171 27.8611V22.0481C27.3171 21.6367 27.6439 21.3047 28.0488 21.3047C28.4537 21.3047 28.7805 21.6367 28.7805 22.0481V27.8611C28.7805 32.4799 32.7951 36.1967 36.1171 36.1967C39.2488 36.1967 43.9024 32.7673 43.9024 28.0346V22.053C43.9024 21.6417 44.2293 21.3096 44.6342 21.3096C45.039 21.3096 45.3659 21.6417 45.3659 22.053V28.0346C45.3659 33.3819 40.3073 37.6834 36.1171 37.6834Z" fill="#312E27"/>
<path d="M33.9025 24.2836H31.4634C31.0585 24.2836 30.7317 23.9516 30.7317 23.5402C30.7317 23.1289 31.0585 22.7969 31.4634 22.7969H33.9025C34.3073 22.7969 34.6342 23.1289 34.6342 23.5402C34.6342 23.9516 34.3073 24.2836 33.9025 24.2836Z" fill="#312E27"/>
<path d="M32.8341 25.334C32.3854 25.334 32.0244 25.7057 32.0244 26.1566C32.0244 26.6076 32.3902 26.9793 32.8341 26.9793C33.278 26.9793 33.6439 26.6076 33.6439 26.1566C33.6439 25.7057 33.278 25.334 32.8341 25.334Z" fill="#312E27"/>
<path d="M40.5317 25.334C40.0829 25.334 39.722 25.7057 39.722 26.1566C39.722 26.6076 40.0878 26.9793 40.5317 26.9793C40.9756 26.9793 41.3415 26.6076 41.3415 26.1566C41.3415 25.7057 40.9756 25.334 40.5317 25.334Z" fill="#312E27"/>
<path d="M45.2488 29.0006C44.8439 29.0006 44.5171 28.6685 44.5171 28.2572C44.5171 27.8459 44.8439 27.5138 45.2488 27.5138C45.8049 27.5138 46.2683 27.0926 46.3317 26.5276L46.3756 26.1312C46.4 25.9082 46.3317 25.6951 46.1854 25.5315C46.039 25.363 45.839 25.2738 45.6195 25.2738H45.122C44.7171 25.2738 44.3903 24.9418 44.3903 24.5305C44.3903 24.1191 44.7171 23.7871 45.122 23.7871H45.6195C46.2537 23.7871 46.8537 24.0597 47.2781 24.5404C47.6976 25.0161 47.9025 25.6604 47.8342 26.2997L47.7903 26.6961C47.6488 28.0094 46.5561 29.0055 45.2537 29.0055L45.2488 29.0006Z" fill="#312E27"/>
<path d="M27.3073 29.0016C26.0049 29.0016 24.9122 28.0105 24.7707 26.6922L24.7268 26.2958C24.6585 25.6565 24.8585 25.0172 25.2829 24.5365C25.7024 24.0607 26.3073 23.7832 26.9414 23.7832H27.5658C27.9707 23.7832 28.2975 24.1152 28.2975 24.5266C28.2975 24.9379 27.9707 25.2699 27.5658 25.2699H26.9414C26.7219 25.2699 26.5219 25.3591 26.3756 25.5276C26.2293 25.6961 26.161 25.9092 26.1854 26.1273L26.2293 26.5237C26.2878 27.0837 26.7561 27.5099 27.3122 27.5099C27.7171 27.5099 28.0439 27.842 28.0439 28.2533C28.0439 28.6646 27.7171 28.9967 27.3122 28.9967L27.3073 29.0016Z" fill="#312E27"/>
<path d="M47.561 22.3009C47.5268 22.3009 47.4927 22.3009 47.4585 22.296C47.0585 22.2365 46.7805 21.8599 46.839 21.4535C47.278 18.3413 44.7512 12.994 40.5024 12.2655C40.1024 12.1961 39.8341 11.8146 39.9024 11.4082C39.9707 11.0018 40.3463 10.7342 40.7463 10.7986C45.8878 11.6758 48.8195 17.8953 48.2927 21.6616C48.239 22.0333 47.9268 22.3009 47.5707 22.3009H47.561Z" fill="#312E27"/>
<path d="M28.2293 22.6975C27.9219 22.6975 27.6341 22.4993 27.5366 22.187C27.4098 21.7955 27.6195 21.3793 28 21.2504C34.6195 19.0253 38.7366 16.4483 38.7756 16.4235C39.0439 16.255 39.3902 16.2798 39.6341 16.4879L45.3658 21.3892C45.6732 21.6518 45.7122 22.1226 45.4537 22.4348C45.1951 22.747 44.7317 22.7916 44.4244 22.524L39.0927 17.9647C37.8293 18.7081 34.039 20.7895 28.4634 22.6628C28.3854 22.6876 28.3073 22.7024 28.2341 22.7024L28.2293 22.6975Z" fill="#312E27"/>
<path d="M25.6098 22.3001C25.2439 22.3001 24.9268 22.0226 24.8829 21.641C23.9317 13.4442 28.3171 11.3925 30.1854 10.5153C30.2049 10.5054 30.2244 10.4955 30.2439 10.4906V9.09799C30.2439 8.72631 30.5122 8.4141 30.8732 8.35958C32.361 8.14649 34.078 8.47357 35.122 8.74118V8.22578C35.122 8.01268 35.2098 7.81445 35.3659 7.67073C35.522 7.53197 35.7268 7.46259 35.9366 7.48737C38.9561 7.82932 41.2195 10.8028 41.3171 10.9316C41.561 11.2587 41.5024 11.7245 41.1805 11.9723C40.8585 12.2201 40.4 12.1606 40.1561 11.8336C40.1317 11.8038 38.5951 9.79675 36.5902 9.14755V9.73233C36.5902 9.9702 36.478 10.1982 36.2878 10.3369C36.0976 10.4757 35.8537 10.5153 35.6293 10.436C35.6049 10.4261 33.5317 9.72737 31.7171 9.78684V10.9614C31.7171 11.2389 31.5659 11.4916 31.322 11.6205C31.1805 11.6948 31.0049 11.7791 30.8098 11.8683C28.961 12.7355 25.522 14.3461 26.3463 21.4675C26.3951 21.8739 26.1073 22.2456 25.7073 22.2902C25.678 22.2902 25.6488 22.2952 25.6195 22.2952L25.6098 22.3001Z" fill="#312E27"/>
<path d="M42.5122 56.0008H18.7805C18.3756 56.0008 18.0488 55.6687 18.0488 55.2574V51.4514C18.0488 45.6631 20.7366 42.313 27.3317 39.8995C29.678 39.0422 31.2195 38.3236 31.2195 36.2868V35.925C31.2195 35.5137 31.5463 35.1816 31.9512 35.1816C32.3561 35.1816 32.6829 35.5137 32.6829 35.925V36.2868C32.6829 39.5229 29.9902 40.5041 27.8293 41.297C21.8439 43.4875 19.5122 46.3321 19.5122 51.4514V54.514H42.5122C42.9171 54.514 43.2439 54.8461 43.2439 55.2574C43.2439 55.6687 42.9171 56.0008 42.5122 56.0008Z" fill="#312E27"/>
<path d="M41.0098 39.3087C40.8 39.3087 40.5951 39.2195 40.4488 39.0461C39.8293 38.2978 39.5122 37.371 39.5122 36.2907V35.9289C39.5122 35.5176 39.839 35.1855 40.2439 35.1855C40.6488 35.1855 40.9756 35.5176 40.9756 35.9289V36.2907C40.9756 37.0291 41.161 37.599 41.5659 38.0847C41.8293 38.3969 41.7903 38.8677 41.4781 39.1303C41.3415 39.2493 41.1756 39.3038 41.0049 39.3038L41.0098 39.3087Z" fill="#312E27"/>
<path d="M36.1756 42.1238H36.0293C33.7219 42.1238 31.7756 41.1128 30.5463 39.2792C30.3171 38.9422 30.4049 38.4764 30.7366 38.2484C31.0732 38.0155 31.5268 38.1047 31.7512 38.4417C32.7024 39.859 34.2195 40.6371 36.0244 40.6371H36.1707C38.0146 40.6371 39.5512 39.8293 40.4976 38.3673C40.7219 38.0254 41.1756 37.9263 41.5122 38.1542C41.8488 38.3773 41.9463 38.8381 41.7219 39.185C40.4976 41.0831 38.5268 42.1288 36.1756 42.1288V42.1238Z" fill="#312E27"/>
<path d="M26.5854 55.5051C26.1805 55.5051 25.8537 55.1731 25.8537 54.7617V51.7883C25.8537 51.377 26.1805 51.0449 26.5854 51.0449C26.9903 51.0449 27.3171 51.377 27.3171 51.7883V54.7617C27.3171 55.1731 26.9903 55.5051 26.5854 55.5051Z" fill="#312E27"/>
<path d="M50.4878 55.0092C55.2024 55.0092 59.0244 51.1264 59.0244 46.3366C59.0244 41.5469 55.2024 37.6641 50.4878 37.6641C45.7732 37.6641 41.9512 41.5469 41.9512 46.3366C41.9512 51.1264 45.7732 55.0092 50.4878 55.0092Z" fill="#FFC960"/>
<path d="M50.4878 55.9993C45.2439 55.9993 40.9756 51.663 40.9756 46.3356C40.9756 41.0082 45.2439 36.6719 50.4878 36.6719C55.7317 36.6719 60 41.0082 60 46.3356C60 51.663 55.7317 55.9993 50.4878 55.9993ZM50.4878 38.1586C46.0488 38.1586 42.439 41.8259 42.439 46.3356C42.439 50.8453 46.0488 54.5126 50.4878 54.5126C54.9268 54.5126 58.5366 50.8453 58.5366 46.3356C58.5366 41.8259 54.9268 38.1586 50.4878 38.1586Z" fill="#312E27"/>
<path d="M50.4878 51.0448C50.0829 51.0448 49.7561 50.7128 49.7561 50.3015V42.3723C49.7561 41.9609 50.0829 41.6289 50.4878 41.6289C50.8927 41.6289 51.2195 41.9609 51.2195 42.3723V50.3015C51.2195 50.7128 50.8927 51.0448 50.4878 51.0448Z" fill="#312E27"/>
<path d="M54.3903 47.0805H46.5854C46.1805 47.0805 45.8537 46.7484 45.8537 46.3371C45.8537 45.9258 46.1805 45.5938 46.5854 45.5938H54.3903C54.7951 45.5938 55.122 45.9258 55.122 46.3371C55.122 46.7484 54.7951 47.0805 54.3903 47.0805Z" fill="#312E27"/>
<path d="M15.7122 54.0078C15.6 54.0078 15.4878 53.983 15.3805 53.9285C5.89268 49.0421 0 39.2942 0 28.4956C0 12.7809 12.5805 0 28.0488 0C43.5171 0 56.0976 12.7809 56.0976 28.4956C56.0976 30.7901 55.8293 33.0796 55.2976 35.2899C55.2 35.6864 54.8049 35.9342 54.4146 35.835C54.0244 35.7359 53.7805 35.3345 53.878 34.9381C54.3805 32.8418 54.639 30.6761 54.639 28.5005C54.639 13.6085 42.7122 1.49168 28.0537 1.49168C13.3951 1.49168 1.46341 13.6035 1.46341 28.4956C1.46341 38.7342 7.04878 47.9667 16.0439 52.6004C16.4049 52.7887 16.5463 53.2347 16.3659 53.6014C16.239 53.8591 15.9805 54.0078 15.7122 54.0078Z" fill="#312E27"/>
</svg>
