<svg width="40" height="40" viewBox="0 0 40 40" fill="none" xmlns="http://www.w3.org/2000/svg">
<path d="M32 17.3334C32 26.6667 20 34.6667 20 34.6667C20 34.6667 8 26.6667 8 17.3334C8 14.1508 9.26428 11.0985 11.5147 8.84809C13.7652 6.59766 16.8174 5.33337 20 5.33337C23.1826 5.33337 26.2348 6.59766 28.4853 8.84809C30.7357 11.0985 32 14.1508 32 17.3334Z" fill="#F8B62D" stroke="#F8B62D" stroke-width="2" stroke-linecap="round" stroke-linejoin="round"/>
<path d="M20 21.3334C22.2091 21.3334 24 19.5425 24 17.3334C24 15.1242 22.2091 13.3334 20 13.3334C17.7909 13.3334 16 15.1242 16 17.3334C16 19.5425 17.7909 21.3334 20 21.3334Z" fill="white" stroke="white" stroke-width="2" stroke-linecap="round" stroke-linejoin="round"/>
</svg>
