<svg width="40" height="38" viewBox="0 0 40 38" fill="none" xmlns="http://www.w3.org/2000/svg">
<path d="M28.8273 26.5985L27.9318 24.9487L26.5679 24.8949L25.4383 23.2148H18.9013C18.5707 23.2148 18.3021 23.4769 18.3021 23.7995V37.3275H38.4984C38.9461 37.3275 39.3112 36.9713 39.3112 36.5345V26.911H29.3577C29.1373 26.911 28.9306 26.7901 28.8273 26.5985Z" fill="#0085FF"/>
<path d="M38.34 37.9995H17.5478C16.6317 37.9995 15.8878 37.2737 15.8878 36.3799V22.479C15.8878 21.5852 16.6317 20.8594 17.5478 20.8594H23.9849C24.5222 20.8594 25.0112 21.1248 25.2971 21.5684L26.9916 24.2095C27.1294 24.4245 27.3705 24.5555 27.6288 24.5555H38.3365C39.2527 24.5555 39.9966 25.2813 39.9966 26.1751V36.3799C39.9966 37.2737 39.2527 37.9995 38.3365 37.9995H38.34ZM17.5478 21.8708C17.2034 21.8708 16.921 22.143 16.921 22.4823V36.3833C16.921 36.7193 17.2 36.9948 17.5478 36.9948H38.34C38.6844 36.9948 38.9668 36.7227 38.9668 36.3833V26.1785C38.9668 25.8425 38.6878 25.567 38.34 25.567H27.6322C27.0123 25.567 26.4474 25.2612 26.1168 24.7471L24.4223 22.106C24.3293 21.9581 24.164 21.8708 23.9883 21.8708H17.5513H17.5478Z" fill="#312E27"/>
<path d="M36.0393 25.2305C35.7534 25.2305 35.5227 25.0054 35.5227 24.7265V17.5022H19.6797V19.0143C19.6797 19.2932 19.449 19.5183 19.1631 19.5183C18.8772 19.5183 18.6465 19.2932 18.6465 19.0143V16.9982C18.6465 16.7193 18.8772 16.4941 19.1631 16.4941H36.0393C36.3251 16.4941 36.5559 16.7193 36.5559 16.9982V24.7265C36.5559 25.0054 36.3251 25.2305 36.0393 25.2305Z" fill="#312E27"/>
<path d="M39.4834 23.2152C39.1975 23.2152 38.9668 22.99 38.9668 22.7111V14.4787H26.0513C25.7655 14.4787 25.5347 14.2536 25.5347 13.9747C25.5347 13.6958 25.7655 13.4707 26.0513 13.4707H39.4834C39.7693 13.4707 40 13.6958 40 13.9747V22.7111C40 22.99 39.7693 23.2152 39.4834 23.2152Z" fill="#312E27"/>
<path d="M14.3345 21.8866C14.269 21.8866 14.2036 21.8765 14.1416 21.8496C11.3932 20.771 9.79168 18.0224 10.2429 15.1629C10.7767 11.7893 14.0245 9.47078 17.4824 9.98824C19.9656 10.3612 21.9942 12.1354 22.6451 14.5043C22.7175 14.7731 22.5556 15.0486 22.2801 15.1226C22.0045 15.1931 21.7221 15.0352 21.6463 14.7664C21.1022 12.7839 19.4042 11.2987 17.324 10.9862C14.4275 10.5528 11.7101 12.4916 11.2623 15.3175C10.8835 17.7099 12.2232 20.0116 14.5239 20.9155C14.7891 21.0196 14.9165 21.312 14.8098 21.5707C14.7271 21.7656 14.5342 21.8866 14.331 21.8866H14.3345Z" fill="#312E27"/>
<path d="M11.2346 31.3529C11.2071 31.3529 11.183 31.3529 11.1554 31.3462C10.873 31.3025 10.6801 31.0472 10.7249 30.7716L11.2519 27.435C10.3219 27.0251 9.44714 26.5042 8.64122 25.886L5.84804 27.8819C5.61728 28.0465 5.29353 27.9961 5.12477 27.7744L1.68065 23.1878C1.51189 22.9626 1.56355 22.6468 1.79086 22.4821L4.58404 20.4862C4.22241 19.5521 3.98132 18.581 3.85733 17.5897L0.437325 17.0756C0.303004 17.0555 0.179016 16.9816 0.099801 16.874C0.0171421 16.7665 -0.0138549 16.6321 0.00680977 16.4977L0.895392 10.8795C0.916057 10.7485 0.991828 10.6275 1.10204 10.5502C1.21225 10.4729 1.35002 10.4393 1.48778 10.4595L4.90779 10.9736C5.32797 10.0664 5.86181 9.20951 6.49553 8.4266L4.44972 5.70151C4.36706 5.59399 4.33607 5.45958 4.35673 5.32517C4.3774 5.19413 4.45317 5.07316 4.56338 4.99588L9.26116 1.63908C9.49191 1.47444 9.81566 1.52484 9.98442 1.74661L12.0302 4.47169C12.9877 4.11888 13.983 3.88367 14.9991 3.7627L15.526 0.426068C15.5467 0.295022 15.6224 0.174056 15.7327 0.0967725C15.8429 0.0161287 15.9806 -0.0141127 16.1184 0.00604828L21.877 0.872968C22.1594 0.91665 22.3523 1.17202 22.3075 1.44756L21.7805 4.78419C22.7104 5.19413 23.5887 5.71495 24.3912 6.33322L27.1844 4.33729C27.2946 4.26 27.4323 4.2264 27.5701 4.24656C27.7044 4.26673 27.8284 4.34065 27.9076 4.44817L31.3517 9.03479C31.4344 9.14231 31.4654 9.27672 31.4447 9.41112C31.4241 9.54217 31.3483 9.66313 31.2381 9.74042L28.1212 11.9682C27.8904 12.1328 27.5667 12.0824 27.3979 11.8607C27.2291 11.6355 27.2808 11.3197 27.5081 11.155L30.2083 9.22631L27.3738 5.45286L24.677 7.38159C24.4842 7.51936 24.2224 7.50928 24.0399 7.36143C23.1272 6.61211 22.1077 6.00729 21.009 5.56375C20.7886 5.47638 20.6612 5.25125 20.6956 5.02276L21.2054 1.79701L16.4663 1.08466L15.9565 4.31041C15.9186 4.5389 15.7292 4.71699 15.4916 4.73715C14.3068 4.83795 13.1461 5.11348 12.0475 5.56038C11.827 5.64775 11.5722 5.58055 11.4344 5.39238L9.45747 2.76138L5.58973 5.52678L7.56665 8.16115C7.70786 8.34931 7.69753 8.60469 7.54599 8.78277C6.77795 9.67321 6.15801 10.6678 5.70338 11.7397C5.61039 11.9548 5.37964 12.0791 5.14888 12.0455L1.84253 11.5482L1.11237 16.1718L4.41873 16.6691C4.65293 16.706 4.83546 16.8908 4.85613 17.1227C4.95945 18.2786 5.24187 19.4109 5.69994 20.4828C5.78948 20.6979 5.7206 20.9465 5.52773 21.0809L2.83099 23.0097L5.6655 26.7831L8.36569 24.8544C8.55856 24.7166 8.82031 24.7267 9.00285 24.8746C9.91554 25.6239 10.935 26.2287 12.0337 26.6722C12.2541 26.7596 12.3815 26.9847 12.3471 27.2132L11.7581 30.9363C11.7203 31.1849 11.4998 31.363 11.2484 31.363L11.2346 31.3529Z" fill="#312E27"/>
</svg>
