<svg width="37" height="36" viewBox="0 0 37 36" fill="none" xmlns="http://www.w3.org/2000/svg">
<path d="M36.4848 34.9416H15.5338C15.2488 34.9416 15.0187 34.7143 15.0187 34.4327C15.0187 34.1511 15.2488 33.9239 15.5338 33.9239H35.9696V6.49642L30.0965 1.01772H8.8364V13.3999C8.8364 13.6815 8.60629 13.9088 8.32122 13.9088C8.03615 13.9088 7.80603 13.6815 7.80603 13.3999V0.508858C7.80603 0.22729 8.03615 0 8.32122 0H30.3025C30.4331 0 30.5601 0.0508858 30.6563 0.139088L36.8385 5.90614C36.9416 6.00113 37 6.13683 37 6.27591V34.4327C37 34.7143 36.7699 34.9416 36.4848 34.9416Z" fill="#252D32"/>
<path d="M6.33606 17.5793C6.02008 17.7964 5.87583 18.1865 5.97543 18.5563L7.92627 25.6701C8.02588 26.0365 8.35216 26.3045 8.73683 26.335L22.166 26.9965L17.5912 10.3162L6.33606 17.5793Z" fill="#FFD600"/>
<path d="M22.0973 27.5768C22.0973 27.5768 22.0802 27.5768 22.0699 27.5768L8.55479 26.9119C7.93657 26.8644 7.42481 26.4438 7.26682 25.8704L5.30568 18.7125C5.14769 18.1358 5.37437 17.5184 5.87238 17.1792L17.2134 9.85499C17.4504 9.70233 17.7698 9.76679 17.9278 10.0043C18.0823 10.2383 18.0171 10.5538 17.7766 10.7099L6.44939 18.0205C6.32231 18.1087 6.25706 18.2817 6.30171 18.4445L8.26285 25.6024C8.3075 25.7653 8.45175 25.884 8.62005 25.8976L22.1214 26.5625C22.4065 26.5761 22.6228 26.8169 22.6091 27.0951C22.5954 27.3665 22.3687 27.5802 22.0939 27.5802L22.0973 27.5768Z" fill="#252D32"/>
<path d="M3.29989 27.2749C2.91865 27.2749 2.54084 27.1765 2.20082 26.9832C1.68563 26.6914 1.31813 26.2199 1.16358 25.6533L0.0782495 21.7012C-0.0763067 21.1347 -0.000745886 20.5444 0.294628 20.0355C0.590002 19.5267 1.06741 19.1637 1.64098 19.011L5.63197 17.9424C5.90673 17.8678 6.18837 18.0306 6.26393 18.302C6.33949 18.5734 6.17463 18.8516 5.89986 18.9262L1.90888 19.9948C1.6032 20.0763 1.34561 20.273 1.18762 20.5444C1.02963 20.8158 0.988414 21.1347 1.07084 21.4366L2.15617 25.3921C2.2386 25.694 2.43781 25.9485 2.71257 26.1045C2.98734 26.2606 3.31019 26.3013 3.61587 26.2199L7.60685 25.1513C7.88162 25.0766 8.16325 25.2395 8.23881 25.5109C8.31438 25.7822 8.14952 26.0604 7.87475 26.1351L3.88377 27.2037C3.69143 27.2545 3.49566 27.2817 3.29989 27.2817V27.2749Z" fill="#252D32"/>
<path d="M9.89086 35.9966C9.55427 35.9966 9.25546 35.9389 9.02191 35.8066C7.7992 35.1145 3.80822 28.3162 3.51628 27.251C3.44072 26.9796 3.60558 26.7014 3.88034 26.6268C4.15168 26.5522 4.43675 26.715 4.51231 26.9864C4.7802 27.96 8.65098 34.4225 9.5371 34.9246C10.0592 35.2197 12.2539 34.4802 12.6866 33.7338C12.9064 33.3573 12.7107 32.9468 11.0414 31.7425C9.35507 30.5246 8.30408 28.6012 8.1564 26.4707C8.13922 26.1892 8.35217 25.9483 8.63724 25.928C8.91887 25.911 9.16616 26.1213 9.18677 26.4029C9.31042 28.2314 10.2103 29.8801 11.6494 30.9216C12.8583 31.7968 14.3661 32.8857 13.5796 34.2427C13.0713 35.1213 11.2029 36 9.89086 36V35.9966Z" fill="#252D32"/>
<path d="M10.4988 29.9752C10.2996 29.9752 10.1107 29.8632 10.0282 29.6698C9.91489 29.412 10.0317 29.1135 10.2927 28.9981C10.6018 28.8624 11.0998 28.5673 11.2372 28.3298C11.2647 28.2247 11.2029 27.7362 11.093 27.3325C11.0174 27.0611 11.1823 26.7829 11.457 26.7083C11.7352 26.6303 12.0134 26.7965 12.089 27.0645C12.2161 27.5326 12.3947 28.3841 12.1336 28.8319C11.7833 29.4358 10.8869 29.8496 10.7117 29.9243C10.643 29.9548 10.5743 29.9684 10.5056 29.9684L10.4988 29.9752Z" fill="#252D32"/>
<path d="M24.6184 28.2891C24.5874 28.2891 24.5531 28.2891 24.5222 28.2857L22.4237 28.0211C22.2176 27.994 22.0459 27.8481 21.9909 27.6514L18.3468 14.3702C18.2713 14.0988 18.4361 13.8206 18.7109 13.746C18.9856 13.6713 19.2673 13.8342 19.3428 14.1056L22.8942 27.0577L24.6321 27.2782C24.6321 27.2782 24.6664 27.268 24.6871 27.2443C24.7077 27.2205 24.7111 27.1934 24.7042 27.1662L19.6966 8.90503C19.6897 8.8745 19.6691 8.85754 19.6417 8.84736C19.6142 8.83718 19.5867 8.84058 19.5627 8.85754L18.1923 9.90239L18.807 12.1414C18.8826 12.4128 18.7177 12.6909 18.443 12.7656C18.1682 12.8368 17.8866 12.6774 17.811 12.406L17.1069 9.83794C17.052 9.63779 17.1241 9.42746 17.289 9.30194L18.9479 8.03658C19.2604 7.81607 19.6451 7.76519 19.9885 7.88731C20.332 8.00944 20.593 8.29101 20.6892 8.63703L25.6968 26.8982C25.793 27.2477 25.7106 27.6208 25.4736 27.8956C25.2606 28.1466 24.9446 28.2925 24.6149 28.2925L24.6184 28.2891Z" fill="#252D32"/>
<path d="M26.3837 21.0939C26.2566 21.0939 26.1295 21.0464 26.0299 20.9548C25.8239 20.7615 25.817 20.4392 26.0128 20.2357C26.9504 19.262 27.3076 17.9017 26.9641 16.599C26.6207 15.2896 25.5903 14.2413 24.2749 13.858C24.0035 13.7799 23.8455 13.495 23.9245 13.227C24.0035 12.9556 24.2955 12.8029 24.5634 12.881C26.2223 13.3627 27.524 14.6891 27.9602 16.3412C28.3929 17.9865 27.943 19.7064 26.7581 20.9379C26.6585 21.043 26.5211 21.0973 26.3837 21.0973V21.0939Z" fill="#393434"/>
<path d="M29.2138 22.1251C29.0867 22.1251 28.9562 22.0776 28.8566 21.9826C28.6505 21.7892 28.6436 21.4669 28.8394 21.2634C30.2682 19.7843 30.8108 17.7183 30.2888 15.7406C29.7599 13.7357 28.2452 12.1854 26.2325 11.5951C25.9612 11.5137 25.8032 11.2321 25.8857 10.9641C25.9681 10.6961 26.2532 10.5401 26.5245 10.6215C28.884 11.3135 30.6632 13.1318 31.2848 15.4862C31.8962 17.8065 31.2573 20.2287 29.5813 21.9656C29.4817 22.0708 29.3443 22.1217 29.2103 22.1217L29.2138 22.1251Z" fill="#393434"/>
<path d="M33.7371 7.12388H29.9591C29.674 7.12388 29.4439 6.89659 29.4439 6.61503V0.847969C29.4439 0.566401 29.674 0.339111 29.9591 0.339111C30.2442 0.339111 30.4743 0.566401 30.4743 0.847969V6.10617H33.7371C34.0222 6.10617 34.2523 6.33346 34.2523 6.61503C34.2523 6.89659 34.0222 7.12388 33.7371 7.12388Z" fill="#252D32"/>
</svg>
