<svg width="40" height="36" viewBox="0 0 40 36" fill="none" xmlns="http://www.w3.org/2000/svg">
<path d="M0.677979 32.6035V32.8345C0.677979 34.3933 1.939 35.6601 3.49832 35.6601H36.5017C38.0576 35.6601 39.322 34.3967 39.322 32.8345V32.6035H0.677979Z" fill="#312E27"/>
<path d="M36.6712 35.9993H3.32881C1.49492 35.9993 0 34.505 0 32.6642V32.4333C0 32.1514 0.227119 31.9238 0.508475 31.9238H39.4915C39.7729 31.9238 40 32.1514 40 32.4333V32.6642C40 34.5016 38.5085 35.9993 36.6712 35.9993ZM1.0339 32.9427C1.17288 34.0906 2.14915 34.9804 3.32881 34.9804H36.6712C37.8508 34.9804 38.8271 34.0906 38.9661 32.9427H1.0339Z" fill="#312E27"/>
<path d="M2.20336 30.9066C1.922 30.9066 1.69489 30.6791 1.69489 30.3972V9.52737C1.69489 8.39303 2.61692 7.47266 3.74573 7.47266H4.57624C4.8576 7.47266 5.08472 7.7002 5.08472 7.98209C5.08472 8.26398 4.8576 8.49152 4.57624 8.49152H3.74573C3.17624 8.49152 2.71183 8.95681 2.71183 9.52737V30.3972C2.71183 30.6791 2.48472 30.9066 2.20336 30.9066Z" fill="#312E27"/>
<path d="M37.7966 30.9066C37.5153 30.9066 37.2882 30.6791 37.2882 30.3972V9.52737C37.2882 8.95681 36.8238 8.49152 36.2543 8.49152H35.4238C35.1424 8.49152 34.9153 8.26398 34.9153 7.98209C34.9153 7.7002 35.1424 7.47266 35.4238 7.47266H36.2543C37.3865 7.47266 38.3051 8.39643 38.3051 9.52737V30.3972C38.3051 30.6791 38.078 30.9066 37.7966 30.9066Z" fill="#312E27"/>
<path d="M33.3898 30.9057C33.1085 30.9057 32.8813 30.6781 32.8813 30.3962V1.01887H7.11863V30.3962C7.11863 30.6781 6.89152 30.9057 6.61016 30.9057C6.3288 30.9057 6.10168 30.6781 6.10168 30.3962V0.509434C6.10168 0.227547 6.3288 0 6.61016 0H33.3898C33.6712 0 33.8983 0.227547 33.8983 0.509434V30.3962C33.8983 30.6781 33.6712 30.9057 33.3898 30.9057Z" fill="#312E27"/>
<path d="M12.7118 7.13126C12.4305 7.13126 12.2034 6.90372 12.2034 6.62183V5.26334C12.2034 4.98145 12.4305 4.75391 12.7118 4.75391C12.9932 4.75391 13.2203 4.98145 13.2203 5.26334V6.62183C13.2203 6.90372 12.9932 7.13126 12.7118 7.13126Z" fill="#312E27"/>
<path d="M12.7118 14.6039C12.4305 14.6039 12.2034 14.3764 12.2034 14.0945V12.736C12.2034 12.4541 12.4305 12.2266 12.7118 12.2266C12.9932 12.2266 13.2203 12.4541 13.2203 12.736V14.0945C13.2203 14.3764 12.9932 14.6039 12.7118 14.6039Z" fill="#312E27"/>
<path d="M12.7186 13.2214C11.5186 13.2214 10.7356 12.4165 10.522 12.1652C10.339 11.9512 10.3627 11.6286 10.5763 11.4452C10.7898 11.2618 11.1119 11.2855 11.2949 11.4995C11.3966 11.6184 11.9356 12.1991 12.722 12.1991C12.7424 12.1991 12.7593 12.1991 12.7797 12.1991C13.2068 12.1855 13.9017 11.992 14.0746 11.5267C14.1864 11.2278 14.1017 10.8135 13.8712 10.518C13.5966 10.1648 13.1627 10.0935 12.661 10.0086C12.0814 9.91007 11.3559 9.7912 10.9051 9.12554C10.5356 8.58214 10.4678 7.82139 10.7322 7.23724C11.1356 6.35082 12.1864 6.03837 12.9932 6.11988C13.9525 6.21837 14.5356 6.86705 14.7424 7.14214C14.9119 7.36629 14.8644 7.68554 14.6407 7.85535C14.4169 8.02516 14.0983 7.97761 13.9288 7.75346C13.8305 7.62441 13.4678 7.19308 12.8915 7.13195C12.4237 7.0878 11.8339 7.2712 11.6576 7.65837C11.5356 7.92327 11.5729 8.30025 11.7458 8.55158C11.9424 8.84365 12.2847 8.91158 12.8305 9.00327C13.4237 9.10176 14.1593 9.22403 14.678 9.88969C15.1288 10.467 15.2678 11.2482 15.0339 11.8799C14.6847 12.8172 13.6237 13.184 12.8237 13.2146C12.7898 13.2146 12.7593 13.2146 12.7254 13.2146L12.7186 13.2214Z" fill="#312E27"/>
<path d="M28.6441 6.45246H17.7966C17.5153 6.45246 17.2881 6.22491 17.2881 5.94303C17.2881 5.66114 17.5153 5.43359 17.7966 5.43359H28.6441C28.9254 5.43359 29.1526 5.66114 29.1526 5.94303C29.1526 6.22491 28.9254 6.45246 28.6441 6.45246Z" fill="#312E27"/>
<path d="M28.6441 10.1888H26.2712C25.9898 10.1888 25.7627 9.96124 25.7627 9.67936C25.7627 9.39747 25.9898 9.16992 26.2712 9.16992H28.6441C28.9254 9.16992 29.1525 9.39747 29.1525 9.67936C29.1525 9.96124 28.9254 10.1888 28.6441 10.1888Z" fill="#312E27"/>
<path d="M23.8983 10.1888H17.7966C17.5153 10.1888 17.2881 9.96124 17.2881 9.67936C17.2881 9.39747 17.5153 9.16992 17.7966 9.16992H23.8983C24.1797 9.16992 24.4068 9.39747 24.4068 9.67936C24.4068 9.96124 24.1797 10.1888 23.8983 10.1888Z" fill="#312E27"/>
<path d="M28.6441 13.9251H17.7966C17.5153 13.9251 17.2881 13.6976 17.2881 13.4157C17.2881 13.1338 17.5153 12.9062 17.7966 12.9062H28.6441C28.9254 12.9062 29.1526 13.1338 29.1526 13.4157C29.1526 13.6976 28.9254 13.9251 28.6441 13.9251Z" fill="#312E27"/>
<path d="M28.6441 28.867H11.017C10.7356 28.867 10.5085 28.6395 10.5085 28.3576V17.1501C10.5085 16.8682 10.7356 16.6406 11.017 16.6406C11.2983 16.6406 11.5254 16.8682 11.5254 17.1501V27.8482H28.6441C28.9254 27.8482 29.1526 28.0757 29.1526 28.3576C29.1526 28.6395 28.9254 28.867 28.6441 28.867Z" fill="#0085FF"/>
<path d="M17.2881 23.4336H13.8983V25.811H17.2881V23.4336Z" fill="#0085FF"/>
<path d="M23.0508 21.3965H19.661V25.8116H23.0508V21.3965Z" fill="#0085FF"/>
<path d="M28.8135 19.0195H25.4237V25.812H28.8135V19.0195Z" fill="#0085FF"/>
</svg>
