<svg width="60" height="54" viewBox="0 0 60 54" fill="none" xmlns="http://www.w3.org/2000/svg">
<path d="M1.01697 48.9062V49.2527C1.01697 51.591 2.90849 53.4912 5.24748 53.4912H54.7526C57.0865 53.4912 58.9831 51.5961 58.9831 49.2527V48.9062H1.01697Z" fill="#312E27"/>
<path d="M55.0068 53.9999H4.99322C2.24237 53.9999 0 51.7584 0 48.9973V48.6509C0 48.228 0.340678 47.8867 0.762712 47.8867H59.2373C59.6593 47.8867 60 48.228 60 48.6509V48.9973C60 51.7533 57.7627 53.9999 55.0068 53.9999ZM1.55085 49.415C1.75932 51.1369 3.22373 52.4716 4.99322 52.4716H55.0068C56.7763 52.4716 58.2407 51.1369 58.4492 49.415H1.55085Z" fill="#312E27"/>
<path d="M3.30507 46.358C2.88304 46.358 2.54236 46.0167 2.54236 45.5938V14.2891C2.54236 12.5876 3.92541 11.207 5.61863 11.207H6.86439C7.28643 11.207 7.6271 11.5484 7.6271 11.9712C7.6271 12.394 7.28643 12.7353 6.86439 12.7353H5.61863C4.76439 12.7353 4.06778 13.4333 4.06778 14.2891V45.5938C4.06778 46.0167 3.7271 46.358 3.30507 46.358Z" fill="#312E27"/>
<path d="M56.6949 46.358C56.2729 46.358 55.9322 46.0167 55.9322 45.5938V14.2891C55.9322 13.4333 55.2356 12.7353 54.3813 12.7353H53.1356C52.7135 12.7353 52.3729 12.394 52.3729 11.9712C52.3729 11.5484 52.7135 11.207 53.1356 11.207H54.3813C56.0796 11.207 57.4576 12.5927 57.4576 14.2891V45.5938C57.4576 46.0167 57.1169 46.358 56.6949 46.358Z" fill="#312E27"/>
<path d="M50.0847 46.3585C49.6627 46.3585 49.322 46.0172 49.322 45.5943V1.5283H10.678V45.5943C10.678 46.0172 10.3373 46.3585 9.91524 46.3585C9.4932 46.3585 9.15253 46.0172 9.15253 45.5943V0.764151C9.15253 0.341321 9.4932 0 9.91524 0H50.0847C50.5068 0 50.8474 0.341321 50.8474 0.764151V45.5943C50.8474 46.0172 50.5068 46.3585 50.0847 46.3585Z" fill="#312E27"/>
<path d="M19.0678 10.6989C18.6458 10.6989 18.3051 10.3575 18.3051 9.9347V7.89696C18.3051 7.47413 18.6458 7.13281 19.0678 7.13281C19.4899 7.13281 19.8305 7.47413 19.8305 7.89696V9.9347C19.8305 10.3575 19.4899 10.6989 19.0678 10.6989Z" fill="#312E27"/>
<path d="M19.0678 21.9059C18.6458 21.9059 18.3051 21.5646 18.3051 21.1417V19.104C18.3051 18.6812 18.6458 18.3398 19.0678 18.3398C19.4899 18.3398 19.8305 18.6812 19.8305 19.104V21.1417C19.8305 21.5646 19.4899 21.9059 19.0678 21.9059Z" fill="#312E27"/>
<path d="M19.078 19.8331C17.278 19.8331 16.1034 18.6257 15.7831 18.2487C15.5085 17.9278 15.5441 17.4438 15.8644 17.1687C16.1848 16.8936 16.6678 16.9293 16.9424 17.2502C17.0949 17.4285 17.9034 18.2997 19.0831 18.2997C19.1136 18.2997 19.139 18.2997 19.1695 18.2997C19.8102 18.2793 20.8526 17.9889 21.1119 17.291C21.2797 16.8427 21.1526 16.2212 20.8068 15.778C20.3949 15.2482 19.7441 15.1412 18.9916 15.0138C18.1221 14.8661 17.0339 14.6878 16.3577 13.6893C15.8034 12.8742 15.7017 11.7331 16.0983 10.8568C16.7034 9.52721 18.2797 9.05853 19.4899 9.18079C20.9288 9.32853 21.8034 10.3015 22.1136 10.7142C22.3678 11.0504 22.2966 11.5293 21.961 11.784C21.6255 12.0387 21.1475 11.9674 20.8932 11.6312C20.7458 11.4376 20.2017 10.7906 19.3373 10.6989C18.6356 10.6327 17.7509 10.9078 17.4865 11.4885C17.3034 11.8859 17.3593 12.4514 17.6187 12.8283C17.9136 13.2665 18.4271 13.3683 19.2458 13.5059C20.1356 13.6536 21.239 13.837 22.017 14.8355C22.6932 15.7015 22.9017 16.8732 22.5509 17.8208C22.0271 19.2268 20.4356 19.777 19.2356 19.8229C19.1848 19.8229 19.139 19.8229 19.0882 19.8229L19.078 19.8331Z" fill="#312E27"/>
<path d="M42.9661 9.67869H26.6949C26.2729 9.67869 25.9322 9.33737 25.9322 8.91454C25.9322 8.49171 26.2729 8.15039 26.6949 8.15039H42.9661C43.3881 8.15039 43.7288 8.49171 43.7288 8.91454C43.7288 9.33737 43.3881 9.67869 42.9661 9.67869Z" fill="#312E27"/>
<path d="M42.9661 15.2822H39.4068C38.9847 15.2822 38.644 14.9409 38.644 14.5181C38.644 14.0952 38.9847 13.7539 39.4068 13.7539H42.9661C43.3881 13.7539 43.7288 14.0952 43.7288 14.5181C43.7288 14.9409 43.3881 15.2822 42.9661 15.2822Z" fill="#312E27"/>
<path d="M35.8474 15.2822H26.6949C26.2729 15.2822 25.9322 14.9409 25.9322 14.5181C25.9322 14.0952 26.2729 13.7539 26.6949 13.7539H35.8474C36.2695 13.7539 36.6102 14.0952 36.6102 14.5181C36.6102 14.9409 36.2695 15.2822 35.8474 15.2822Z" fill="#312E27"/>
<path d="M42.9661 20.8877H26.6949C26.2729 20.8877 25.9322 20.5464 25.9322 20.1235C25.9322 19.7007 26.2729 19.3594 26.6949 19.3594H42.9661C43.3881 19.3594 43.7288 19.7007 43.7288 20.1235C43.7288 20.5464 43.3881 20.8877 42.9661 20.8877Z" fill="#312E27"/>
<path d="M42.9661 43.3025H16.5254C16.1034 43.3025 15.7627 42.9612 15.7627 42.5384V25.727C15.7627 25.3042 16.1034 24.9629 16.5254 24.9629C16.9474 24.9629 17.2881 25.3042 17.2881 25.727V41.7742H42.9661C43.3881 41.7742 43.7288 42.1155 43.7288 42.5384C43.7288 42.9612 43.3881 43.3025 42.9661 43.3025Z" fill="#FFC960"/>
<path d="M25.9322 35.1504H20.8475V38.7164H25.9322V35.1504Z" fill="#FFC960"/>
<path d="M34.5763 32.0938H29.4915V38.7164H34.5763V32.0938Z" fill="#FFC960"/>
<path d="M43.2204 28.5273H38.1356V38.716H43.2204V28.5273Z" fill="#FFC960"/>
</svg>
