<svg width="60" height="54" viewBox="0 0 60 54" fill="none" xmlns="http://www.w3.org/2000/svg">
<path d="M47.6696 14.6141C47.3296 13.4027 47.186 12.9016 47.3775 11.0676C47.4924 9.9681 47.1476 8.86378 46.4581 8.10973C45.85 7.44324 45.0072 7.0881 44.0207 7.07351C43.676 6.81081 42.838 6.23675 42 6.14919C40.1899 5.89135 38.3655 6.39243 37.1205 7.49675C36.0622 8.43081 35.478 9.73459 35.478 11.1697C35.478 11.6805 35.4876 12.0892 35.4972 12.4346C35.5211 13.3832 35.5307 13.7773 35.2961 14.6141C34.7741 16.4676 34.6018 19.367 35.8276 21.4395C35.8276 21.4395 38.3464 20.4859 38.8252 19.9995C39.4908 19.3232 39.51 18.7005 39.51 18.7005C38.5092 18.36 37.4461 16.6378 37.494 14.7405V12.1476C37.4461 12.1476 41.4637 11.8362 43.4126 10.3816C44.2506 11.6562 45.1891 13.2373 45.1556 13.2373V14.7454C45.1891 16.6232 43.7334 18.1849 43.0678 18.5205C43.0678 18.5205 43.2833 20.0043 43.9489 20.3449C44.4469 20.5978 47.1764 21.9843 47.1764 21.9843C48.3879 19.9362 48.2011 16.4919 47.6744 14.6238L47.6696 14.6141Z" fill="#FFC960"/>
<path d="M48.2394 23.6432C48.0814 23.6432 47.9282 23.5897 47.7941 23.4876C47.0567 22.894 46.1804 22.5486 45.4238 22.2665C44.3655 21.8773 42.7614 21.2935 42.7614 19.4205V19.2162C42.7614 18.8124 43.0822 18.4865 43.4796 18.4865C43.8771 18.4865 44.1979 18.8124 44.1979 19.2162V19.4205C44.1979 20.1405 44.648 20.4324 45.9122 20.8946C46.8412 21.2351 47.8228 21.6486 48.6895 22.3443C49.0008 22.5924 49.0535 23.0546 48.8093 23.3708C48.6656 23.5508 48.4597 23.6481 48.2442 23.6481L48.2394 23.6432Z" fill="#312E27"/>
<path d="M34.4102 23.6432C34.1995 23.6432 33.9888 23.546 33.8452 23.366C33.601 23.0497 33.6536 22.5924 33.9649 22.3395C34.8316 21.6438 35.8085 21.2351 36.7422 20.8897C38.0064 20.4276 38.4565 20.1357 38.4565 19.4157V19.2114C38.4565 18.8076 38.7773 18.4816 39.1748 18.4816C39.5722 18.4816 39.8931 18.8076 39.8931 19.2114V19.4157C39.8931 21.2887 38.2937 21.8724 37.2306 22.2616C36.4693 22.5389 35.5978 22.8892 34.8603 23.4827C34.7263 23.5897 34.573 23.6384 34.415 23.6384L34.4102 23.6432Z" fill="#312E27"/>
<path d="M41.3248 20.1308C39.1556 20.1308 36.5363 17.7908 36.5363 14.8914V12.1962C36.5363 11.8411 36.7901 11.5346 37.1349 11.4762C37.1684 11.4714 40.7071 10.8438 43.1828 9.3746C43.5036 9.18487 43.9202 9.2773 44.1309 9.58865C45.5243 11.6076 46.0223 12.6584 46.0415 12.7022C46.0894 12.7995 46.1133 12.9065 46.1133 13.0184V14.8962C46.1133 17.8005 43.494 20.1357 41.3248 20.1357V20.1308ZM37.9729 12.7946V14.8914C37.9729 16.8908 39.8452 18.6714 41.3248 18.6714C42.8045 18.6714 44.6768 16.8908 44.6768 14.8914V13.1887C44.5235 12.8968 44.1117 12.1476 43.3216 10.9605C41.344 11.9919 39.0407 12.566 37.9729 12.7946Z" fill="#312E27"/>
<path d="M41.6456 24.48C39.9122 24.48 38.3511 23.5265 37.7574 22.1059C37.6041 21.7362 37.7717 21.3081 38.1405 21.1476C38.5092 20.987 38.9258 21.1622 39.0838 21.5368C39.4525 22.427 40.4868 23.0205 41.6504 23.0205C42.905 23.0205 43.8053 22.2081 44.1452 21.4005C44.2985 21.0308 44.7199 20.8557 45.0886 21.0113C45.4525 21.167 45.6249 21.5951 45.4717 21.9697C44.8444 23.473 43.312 24.48 41.6552 24.48H41.6456Z" fill="#312E27"/>
<path d="M54.9721 49.6216H17.6217C17.2243 49.6216 16.9034 49.2957 16.9034 48.8919C16.9034 48.4881 17.2243 48.1622 17.6217 48.1622H54.2538V1.45946H16.9034V28.4595C16.9034 28.8632 16.5826 29.1892 16.1851 29.1892C15.7877 29.1892 15.4669 28.8632 15.4669 28.4595V0.72973C15.4669 0.325946 15.7877 0 16.1851 0H54.9721C55.3695 0 55.6903 0.325946 55.6903 0.72973V48.8919C55.6903 49.2957 55.3695 49.6216 54.9721 49.6216Z" fill="#312E27"/>
<path d="M59.2817 54H21.9314C21.5339 54 21.2131 53.674 21.2131 53.2703C21.2131 52.8665 21.5339 52.5405 21.9314 52.5405H58.5634V5.1081C58.5634 4.70432 58.8843 4.37837 59.2817 4.37837C59.6792 4.37837 60 4.70432 60 5.1081V53.2703C60 53.674 59.6792 54 59.2817 54Z" fill="#FFC960"/>
<path d="M12.5938 51.0811L14.5523 48.2789L2.29848 40.1303L0.622505 43.2973L12.5938 51.0811Z" fill="#FFC960"/>
<path d="M12.7949 51.2903C12.6417 51.2903 12.4836 51.2416 12.3543 51.1346C12.0431 50.8865 11.9856 50.4292 12.2298 50.1081L13.5036 48.4492L2.51396 41.1421L1.32162 43.0784C1.11093 43.4189 0.665599 43.5259 0.330403 43.3119C-0.00479232 43.0978 -0.110139 42.6503 0.100555 42.3049L1.68076 39.7362C1.78132 39.5708 1.94892 39.454 2.13567 39.4103C2.32242 39.3665 2.52354 39.4054 2.68156 39.5124L14.9354 47.6611C15.1029 47.773 15.2179 47.953 15.2514 48.1524C15.2849 48.3519 15.2322 48.5611 15.1077 48.7216L13.3504 51.0032C13.2067 51.1881 12.996 51.2854 12.7853 51.2854L12.7949 51.2903Z" fill="#312E27"/>
<path d="M3.37111 41.2832C3.27534 41.2832 3.17957 41.2638 3.0838 41.22C2.71987 41.0595 2.55706 40.6265 2.71508 40.2568L3.66321 38.0481C4.31444 36.54 4.78372 34.954 5.05666 33.334L6.17717 26.7665C6.39266 25.5113 7.03432 24.3584 7.98723 23.5313L15.2322 17.1973C15.5339 16.9346 15.9888 16.9686 16.2474 17.2751C16.506 17.5816 16.4725 18.0438 16.1708 18.3065L8.92099 24.6454C8.21708 25.2535 7.7478 26.1 7.58978 27.0195L6.46927 33.587C6.17238 35.3238 5.66959 37.0216 4.97526 38.6416L4.02713 40.8503C3.90742 41.1227 3.64405 41.2881 3.37111 41.2881V41.2832Z" fill="#312E27"/>
<path d="M14.0782 47.8995C13.9058 47.8995 13.7382 47.8362 13.5994 47.7146C13.3025 47.447 13.2785 46.9849 13.5419 46.6832L14.8061 45.2481C14.8348 45.2189 14.8635 45.1897 14.897 45.1605C15.4094 44.747 15.9218 44.4503 16.4198 44.1632C17.5547 43.5065 18.7278 42.8303 20.1405 40.573C20.8827 39.3811 21.7973 37.114 22.5299 35.2995C22.8843 34.4189 23.1907 33.6551 23.4206 33.1686C24.067 31.7822 25.3647 27.8465 25.3791 27.8076C25.3935 27.7686 25.4078 27.7297 25.427 27.6957C25.8627 26.8686 25.585 25.8422 24.7997 25.3508C24.3831 25.093 23.8946 25.0249 23.4254 25.1513C22.9561 25.2827 22.573 25.5989 22.3432 26.0368C20.8348 28.8535 18.3448 32.58 17.4062 33.4265C16.7358 34.0297 15.3376 34.2681 14.4182 33.9276C14.0447 33.7913 13.8531 33.373 13.9872 32.9935C14.1213 32.614 14.5331 32.4195 14.9066 32.5557C15.3998 32.7357 16.2187 32.5459 16.4533 32.3319C17.2003 31.6605 19.5754 28.153 21.079 25.3459C21.4812 24.5676 22.1995 23.9789 23.0423 23.7405C23.8851 23.5022 24.7997 23.6335 25.5467 24.1005C26.9593 24.9811 27.4669 26.82 26.7199 28.3184C26.5523 28.8243 25.3647 32.4 24.7135 33.7913C24.5028 34.2389 24.2011 34.9881 23.8563 35.8492C23.0998 37.7222 22.1612 40.0476 21.352 41.3513C19.7526 43.92 18.3591 44.7227 17.1285 45.433C16.6736 45.6957 16.2474 45.9438 15.8356 46.2649L14.6145 47.6513C14.4709 47.8119 14.2745 47.8946 14.0782 47.8946V47.8995Z" fill="#312E27"/>
<path d="M39.17 36H28.6353C28.2378 36 27.917 35.6741 27.917 35.2703C27.917 34.8665 28.2378 34.5405 28.6353 34.5405H39.17C39.5674 34.5405 39.8883 34.8665 39.8883 35.2703C39.8883 35.6741 39.5674 36 39.17 36Z" fill="#312E27"/>
<path d="M47.7893 36H43.0008C42.6033 36 42.2825 35.6741 42.2825 35.2703C42.2825 34.8665 42.6033 34.5405 43.0008 34.5405H47.7893C48.1867 34.5405 48.5076 34.8665 48.5076 35.2703C48.5076 35.6741 48.1867 36 47.7893 36Z" fill="#312E27"/>
<path d="M47.7893 41.8378H26.241C25.8436 41.8378 25.5227 41.5119 25.5227 41.1081C25.5227 40.7043 25.8436 40.3784 26.241 40.3784H47.7893C48.1868 40.3784 48.5076 40.7043 48.5076 41.1081C48.5076 41.5119 48.1868 41.8378 47.7893 41.8378Z" fill="#312E27"/>
<path d="M47.7893 30.6487H29.593C29.1955 30.6487 28.8747 30.3227 28.8747 29.9189C28.8747 29.5151 29.1955 29.1892 29.593 29.1892H47.7893C48.1867 29.1892 48.5076 29.5151 48.5076 29.9189C48.5076 30.3227 48.1867 30.6487 47.7893 30.6487Z" fill="#312E27"/>
<path d="M29.1141 20.4324H21.9314C21.5339 20.4324 21.2131 20.1065 21.2131 19.7027C21.2131 19.2989 21.5339 18.973 21.9314 18.973H29.1141C29.5116 18.973 29.8324 19.2989 29.8324 19.7027C29.8324 20.1065 29.5116 20.4324 29.1141 20.4324Z" fill="#312E27"/>
<path d="M29.1141 15.0811H21.9314C21.5339 15.0811 21.2131 14.7551 21.2131 14.3514C21.2131 13.9476 21.5339 13.6216 21.9314 13.6216H29.1141C29.5116 13.6216 29.8324 13.9476 29.8324 14.3514C29.8324 14.7551 29.5116 15.0811 29.1141 15.0811Z" fill="#312E27"/>
<path d="M29.1141 9.72972H21.9314C21.5339 9.72972 21.2131 9.40378 21.2131 8.99999C21.2131 8.59621 21.5339 8.27026 21.9314 8.27026H29.1141C29.5116 8.27026 29.8324 8.59621 29.8324 8.99999C29.8324 9.40378 29.5116 9.72972 29.1141 9.72972Z" fill="#312E27"/>
</svg>
