<svg width="66" height="60" viewBox="0 0 66 60" fill="none" xmlns="http://www.w3.org/2000/svg">
<g clip-path="url(#clip0_169_3204)">
<path d="M45.9836 38.9189C45.1289 38.5514 43.441 37.6865 42.7377 37.2973C41.6557 42.1622 38.0853 42.7027 35.1639 42.7027C32.2426 42.7027 29.2131 42.1622 28.6721 37.2973C27.9148 37.773 26.4162 38.027 25.4262 38.3784C21.7854 39.6703 17.8525 42.4108 17.8525 49.7297H53.0164C53.0164 42.4108 49.7705 40.5405 45.9836 38.9189Z" fill="#FFC960"/>
<path d="M7.84426 22.7027C11.579 22.7027 14.6066 19.6776 14.6066 15.946C14.6066 12.2143 11.579 9.18919 7.84426 9.18919C4.10955 9.18919 1.08197 12.2143 1.08197 15.946C1.08197 19.6776 4.10955 22.7027 7.84426 22.7027Z" fill="#FFC960"/>
<path d="M61.4016 46.4865C63.3437 46.4865 64.918 44.9134 64.918 42.973C64.918 41.0325 63.3437 39.4595 61.4016 39.4595C59.4596 39.4595 57.8853 41.0325 57.8853 42.973C57.8853 44.9134 59.4596 46.4865 61.4016 46.4865Z" fill="#312E27"/>
<path d="M21.4771 27.7838C21.3093 27.7838 21.1362 27.7297 20.9902 27.6216L19.259 26.3243C18.902 26.0541 18.8262 25.546 19.0967 25.1892C19.3672 24.8324 19.8757 24.7622 20.2328 25.027L21.9639 26.3243C22.321 26.5946 22.3967 27.1027 22.1262 27.4595C21.9693 27.6703 21.7205 27.7838 21.4771 27.7838ZM17.1492 24.5406C16.9815 24.5406 16.8084 24.4865 16.6623 24.3784L14.9311 23.0811C14.5741 22.8108 14.4984 22.3027 14.7689 21.946C15.0393 21.5892 15.5479 21.5189 15.9049 21.7838L17.6361 23.0811C17.9931 23.3514 18.0689 23.8595 17.7984 24.2162C17.6415 24.427 17.3926 24.5406 17.1492 24.5406Z" fill="#312E27"/>
<path d="M60.3197 20C57.1874 20 54.6393 17.4541 54.6393 14.3243C54.6393 11.1946 57.1874 8.64865 60.3197 8.64865C63.452 8.64865 66 11.1946 66 14.3243C66 17.4541 63.452 20 60.3197 20ZM60.3197 10.2703C58.08 10.2703 56.2623 12.0865 56.2623 14.3243C56.2623 16.5622 58.08 18.3784 60.3197 18.3784C62.5593 18.3784 64.377 16.5622 64.377 14.3243C64.377 12.0865 62.5593 10.2703 60.3197 10.2703Z" fill="#312E27"/>
<path d="M35.4344 43.7838C31.258 43.7838 27.8607 41.2378 27.8607 38.1081C27.8607 37.6595 28.2231 37.2973 28.6721 37.2973C29.1211 37.2973 29.4836 37.6595 29.4836 38.1081C29.4836 40.346 32.1507 42.1622 35.4344 42.1622C38.7182 42.1622 41.3852 40.346 41.3852 38.1081C41.3852 37.6595 41.7477 37.2973 42.1967 37.2973C42.6457 37.2973 43.0082 37.6595 43.0082 38.1081C43.0082 41.2378 39.6108 43.7838 35.4344 43.7838Z" fill="#312E27"/>
<path d="M56.6735 39.7459C56.4733 39.7459 56.2785 39.6757 56.1217 39.5297L54.5366 38.0595C54.2066 37.7568 54.1903 37.2432 54.4933 36.9135C54.7962 36.5838 55.3102 36.5676 55.6402 36.8703L57.2253 38.3405C57.5553 38.6432 57.5715 39.1568 57.2685 39.4865C57.1062 39.6595 56.8899 39.7459 56.6735 39.7459ZM52.7081 36.0703C52.5079 36.0703 52.3131 36 52.1562 35.8541L50.5712 34.3838C50.2412 34.0811 50.2249 33.5676 50.5279 33.2378C50.8308 32.9081 51.3448 32.8919 51.6748 33.1946L53.2599 34.6649C53.5899 34.9676 53.6061 35.4811 53.3031 35.8108C53.1408 35.9838 52.9244 36.0703 52.7081 36.0703Z" fill="#312E27"/>
<path d="M50.041 27.5676C49.8516 27.5676 49.6677 27.5027 49.5108 27.373C49.17 27.0811 49.1321 26.5676 49.4243 26.227L50.8308 24.5838C51.1229 24.2433 51.6369 24.2054 51.9777 24.4973C52.3185 24.7892 52.3564 25.3027 52.0643 25.6432L50.6577 27.2865C50.4954 27.4757 50.2682 27.5676 50.041 27.5676ZM53.5628 23.4649C53.3734 23.4649 53.1895 23.4 53.0326 23.2703C52.6918 22.9784 52.6539 22.4649 52.9461 22.1243L54.3526 20.4811C54.6448 20.1405 55.1587 20.1027 55.4995 20.3946C55.8403 20.6865 55.8782 21.2 55.5861 21.5405L54.1795 23.1838C54.0172 23.373 53.79 23.4649 53.5628 23.4649Z" fill="#312E27"/>
<path d="M43.5979 35.2162C43.1705 35.2162 42.808 34.8811 42.7864 34.4432C42.7648 33.9946 43.111 33.6162 43.5546 33.5946C45.7672 33.4865 47.0818 32.5622 47.6823 32C45.0369 28.4649 45.2316 25.573 45.4805 21.9622C45.5616 20.7784 45.6536 19.4378 45.6536 17.9514C45.6536 14.1351 42.7215 9.86487 37.2954 9.47027C35.0666 9.30811 32.5348 10.5784 31.5718 11.5622C31.4528 11.6865 31.2959 11.7676 31.1282 11.7946C26.8328 12.5243 25.6859 16.2919 25.6859 18.4C25.6859 20.0811 25.832 21.5243 25.9564 22.8C26.281 26.0378 26.5407 28.6324 24.0197 32.0054C24.5769 32.5243 25.7346 33.3459 27.6443 33.5568C28.0879 33.6054 28.4125 34.0054 28.3638 34.4541C28.3151 34.8973 27.9148 35.2162 27.4657 35.173C23.9277 34.7784 22.3643 32.6054 22.2993 32.5135C22.0884 32.2162 22.1046 31.8162 22.3372 31.5351C24.8907 28.4108 24.6851 26.3622 24.3443 22.9676C24.2144 21.6541 24.0629 20.173 24.0629 18.4054C24.0629 14.9568 26.0862 11.1405 30.6034 10.2486C32.0587 8.9027 34.9097 7.68108 37.409 7.86487C43.8143 8.32973 47.2711 13.4162 47.2711 17.9622C47.2711 19.5027 47.1792 20.8757 47.0926 22.0865C46.8384 25.7946 46.6707 28.2432 49.3648 31.5405C49.5974 31.8216 49.6082 32.2216 49.4026 32.5189C49.3323 32.6216 47.5957 35.0324 43.6303 35.227C43.6195 35.227 43.6033 35.227 43.5925 35.227L43.5979 35.2162Z" fill="#312E27"/>
<path d="M35.759 34.3027C31.7936 34.3027 27.5956 29.4595 27.5956 24.8811V22.1405C27.5956 21.9189 27.6875 21.7027 27.8498 21.5513C27.8715 21.5297 29.9326 19.5838 32.34 16.1784C32.4861 15.9676 32.7241 15.8432 32.9838 15.8378C33.2543 15.8378 33.4869 15.9459 33.6438 16.1459C35.9484 19.0811 43.1813 21.3459 43.2516 21.3676C43.5925 21.4703 43.8251 21.7892 43.8251 22.1405V24.8811C43.8251 29.4595 39.6812 34.3027 35.759 34.3027ZM29.2185 22.4865V24.8811C29.2185 28.827 32.9621 32.6811 35.759 32.6811C38.5559 32.6811 42.2021 28.8973 42.2021 24.8811V22.7297C40.5251 22.1622 35.6454 20.3676 33.0812 17.9243C31.3013 20.3405 29.7974 21.9027 29.2185 22.4865Z" fill="#312E27"/>
<path d="M52.9082 49.7405C52.4592 49.7405 52.0967 49.3784 52.0967 48.9297C52.0967 42.3459 47.8446 40.2487 43.4843 38.6649C41.342 37.8865 38.4098 36.8216 38.4098 33.4595V32.6973C38.4098 32.2487 38.7723 31.8865 39.2213 31.8865C39.6703 31.8865 40.0328 32.2487 40.0328 32.6973V33.4595C40.0328 35.5297 41.6179 36.2595 44.0361 37.1405C47.4172 38.3676 53.7143 40.6541 53.7143 48.9297C53.7143 49.3784 53.3518 49.7405 52.9028 49.7405H52.9082Z" fill="#312E27"/>
<path d="M17.9661 49.7405C17.5171 49.7405 17.1546 49.3784 17.1546 48.9297C17.1546 40.6865 23.4679 38.3838 26.8598 37.1459C29.2672 36.2703 30.8415 35.5405 30.8415 33.4649V32.1622C30.8415 31.7135 31.2039 31.3513 31.653 31.3513C32.102 31.3513 32.4644 31.7135 32.4644 32.1622V33.4649C32.4644 36.827 29.5485 37.8919 27.4171 38.6703C23.9764 39.9243 18.7776 41.827 18.7776 48.9351C18.7776 49.3838 18.4151 49.7459 17.9661 49.7459V49.7405Z" fill="#312E27"/>
<path d="M7.86047 23.7838C7.45474 23.7838 7.049 23.7514 6.63785 23.6919C4.56588 23.373 2.74818 22.2649 1.50933 20.573C0.275884 18.8811 -0.227231 16.8108 0.0973592 14.7405C0.41654 12.6703 1.52556 10.8541 3.21883 9.61622C4.9067 8.37839 6.97867 7.87568 9.05064 8.20001C11.1226 8.51893 12.9403 9.62703 14.1792 11.3189C15.418 13.0108 15.9211 15.0757 15.5965 17.146C15.2774 19.2162 14.1683 21.0324 12.4751 22.2703C11.1172 23.2649 9.51588 23.7838 7.86047 23.7838ZM7.83342 9.72974C6.52424 9.72974 5.25293 10.1405 4.17638 10.9297C2.83474 11.9081 1.95293 13.3514 1.69867 14.9946C1.44441 16.6378 1.84474 18.2757 2.82392 19.6162C3.8031 20.9568 5.24752 21.8378 6.89211 22.0919C8.53129 22.346 10.1759 21.946 11.5175 20.9676C12.8592 19.9892 13.741 18.546 13.9952 16.9027C14.2495 15.2595 13.8492 13.6216 12.87 12.2811C11.8908 10.9405 10.4464 10.0595 8.80179 9.80541C8.4772 9.75676 8.15261 9.72974 7.83342 9.72974Z" fill="#312E27"/>
<path d="M35.9754 60C19.4213 60 5.95082 46.5405 5.95082 30C5.95082 28.7351 6.03197 27.4595 6.18885 26.2108C6.24295 25.7676 6.6541 25.4541 7.09771 25.5081C7.54131 25.5622 7.85508 25.9676 7.80099 26.4162C7.64951 27.6 7.57918 28.8054 7.57918 30.0054C7.57918 45.6541 20.3193 58.3838 35.9808 58.3838C44.6474 58.3838 52.7243 54.5027 58.1557 47.7405C58.4371 47.3892 58.9456 47.3351 59.2972 47.6162C59.6489 47.8973 59.703 48.4054 59.4216 48.7568C53.6872 55.9027 45.1451 60.0054 35.9808 60.0054L35.9754 60Z" fill="#312E27"/>
<path d="M64.1282 38.6432C64.0579 38.6432 63.9821 38.6324 63.9118 38.6162C63.479 38.4973 63.2248 38.0486 63.3492 37.6162C64.0362 35.1513 64.3825 32.5892 64.3825 30C64.3825 27.1622 63.9659 24.3568 63.1382 21.6703C63.0084 21.2432 63.2464 20.7892 63.6792 20.6595C64.1066 20.5243 64.561 20.7676 64.6908 21.2C65.5618 24.0432 66.0054 27.0054 66.0054 30.0054C66.0054 32.7405 65.6375 35.4486 64.9126 38.0541C64.8152 38.4108 64.4852 38.6486 64.1336 38.6486L64.1282 38.6432Z" fill="#312E27"/>
<path d="M15.5587 9.93513C15.3477 9.93513 15.1367 9.85405 14.9798 9.69189C14.6661 9.37297 14.6715 8.85946 14.9907 8.54595C20.6331 3.03784 28.0825 0 35.9754 0C43.322 0 50.3872 2.67568 55.8782 7.54054C56.2136 7.83784 56.2461 8.35135 55.9485 8.68649C55.651 9.02162 55.1371 9.05405 54.8016 8.75676C49.6082 4.15676 42.9216 1.62703 35.9754 1.62703C28.5098 1.62703 21.4608 4.4973 16.1213 9.71351C15.9644 9.87027 15.7589 9.94595 15.5533 9.94595L15.5587 9.93513Z" fill="#312E27"/>
</g>
<defs>
<clipPath id="clip0_169_3204">
<rect width="66" height="60" fill="white"/>
</clipPath>
</defs>
</svg>
