<svg width="40" height="38" viewBox="0 0 40 38" fill="none" xmlns="http://www.w3.org/2000/svg">
<path d="M3.73982 24.2121C3.4699 24.2121 3.25201 23.9868 3.25201 23.7077V22.2348C3.25201 21.3806 3.65852 20.8224 4.49429 20.5231C4.85201 20.3953 5.09266 20.0927 5.12518 19.7329V19.6858C5.15445 19.4067 5.3886 19.2049 5.65852 19.2284C5.92844 19.252 6.12356 19.4975 6.10079 19.7766V19.8237C6.02925 20.5736 5.52518 21.2226 4.81299 21.4782C4.31868 21.653 4.22762 21.8716 4.22762 22.2348V23.7077C4.22762 23.9868 4.00974 24.2121 3.73982 24.2121Z" fill="#312E27"/>
<path d="M6.72847 20.4665C5.72034 20.4665 4.55286 19.4274 4.55286 18.0857V17.1542C4.55286 16.0612 5.27156 15.1196 6.26017 14.9145C6.90082 14.78 7.56099 14.9481 8.05855 15.3719C8.55936 15.7956 8.84554 16.4211 8.84554 17.0903L8.90082 18.0588C8.90082 18.0588 8.90082 18.0789 8.90082 18.089C8.90082 19.4308 7.73334 20.4699 6.72847 20.4699V20.4665ZM6.70245 15.8763C6.62115 15.8763 6.5366 15.8864 6.45204 15.9032C5.91546 16.0142 5.52847 16.5388 5.52847 17.1542V18.0857C5.52847 18.8692 6.25692 19.4577 6.72847 19.4577C7.20001 19.4577 7.91871 18.8759 7.92521 18.0957L7.86993 17.1138C7.86993 16.7204 7.71383 16.3773 7.44066 16.1487C7.22928 15.9671 6.97237 15.8729 6.6992 15.8729L6.70245 15.8763Z" fill="#312E27"/>
<path d="M16.0976 24.2121C15.8277 24.2121 15.6098 23.9868 15.6098 23.7077V22.2348C15.6098 21.8716 15.5187 21.653 15.0277 21.4781C14.3155 21.2226 13.8114 20.5735 13.7431 19.827V19.7765C13.7138 19.4974 13.9122 19.2553 14.1821 19.2284C14.4488 19.2049 14.6862 19.41 14.7122 19.6857V19.7328C14.748 20.0926 14.9886 20.3953 15.3464 20.5231C16.1821 20.8224 16.5886 21.3806 16.5886 22.2348V23.7077C16.5886 23.9868 16.3707 24.2121 16.1008 24.2121H16.0976Z" fill="#312E27"/>
<path d="M13.2325 20.4665C12.2244 20.4665 11.0569 19.4274 11.0569 18.0857V17.1542C11.0569 16.0612 11.7756 15.1196 12.7642 14.9145C13.4049 14.78 14.065 14.9481 14.5626 15.3719C15.0634 15.7956 15.3496 16.4211 15.3496 17.0903L15.4049 18.0588C15.4049 18.0588 15.4049 18.0789 15.4049 18.089C15.4049 19.4308 14.2374 20.4699 13.2325 20.4699V20.4665ZM13.2065 15.8763C13.1252 15.8763 13.0406 15.8864 12.9561 15.9032C12.4195 16.0142 12.0325 16.5388 12.0325 17.1542V18.0857C12.0325 18.8692 12.7609 19.4577 13.2325 19.4577C13.704 19.4577 14.4227 18.8759 14.4292 18.0957L14.374 17.1138C14.374 16.7204 14.2179 16.3773 13.9447 16.1487C13.7333 15.9671 13.4764 15.8729 13.2032 15.8729L13.2065 15.8763Z" fill="#312E27"/>
<path d="M7.24879 28.6948C6.97887 28.6948 6.76099 28.4695 6.76099 28.1904C6.76099 27.3362 7.16749 26.778 8.00326 26.4787C8.36099 26.3509 8.60164 26.0483 8.63416 25.6884V25.6414C8.66342 25.3622 8.89757 25.1571 9.16749 25.184C9.43741 25.2076 9.63253 25.453 9.60977 25.7322V25.7792C9.53822 26.5291 9.03416 27.1782 8.32196 27.4337C7.82765 27.6086 7.7366 27.8272 7.7366 28.1904C7.7366 28.4695 7.51871 28.6948 7.24879 28.6948Z" fill="#312E27"/>
<path d="M13.3724 28.6948C13.1024 28.6948 12.8845 28.4695 12.8845 28.1904C12.8845 27.8272 12.7935 27.6086 12.3024 27.4337C11.5902 27.1781 11.0862 26.5291 11.0179 25.7826V25.7321C10.9886 25.453 11.187 25.2109 11.4569 25.184C11.7203 25.1571 11.961 25.3656 11.987 25.6413V25.6884C12.0228 26.0482 12.2634 26.3509 12.6211 26.4787C13.4569 26.778 13.8634 27.3362 13.8634 28.1904C13.8634 28.4695 13.6455 28.6948 13.3756 28.6948H13.3724Z" fill="#312E27"/>
<path d="M10.3057 26.4216C9.29755 26.4216 8.13007 25.3825 8.13007 24.0407V23.1092C8.13007 22.0163 8.84877 21.0747 9.83738 20.8696C10.4813 20.7351 11.1382 20.9032 11.6358 21.3269C12.1366 21.7506 12.4227 22.3761 12.4227 23.0453L12.478 24.0138C12.478 24.0138 12.478 24.034 12.478 24.0407C12.478 25.3825 11.3106 26.4216 10.3057 26.4216ZM10.2797 21.8314C10.1984 21.8314 10.1138 21.8414 10.0293 21.8583C9.49267 21.9692 9.10568 22.4938 9.10568 23.1092V24.0407C9.10568 24.8243 9.83413 25.4128 10.3057 25.4128C10.7772 25.4128 11.4959 24.831 11.5024 24.0508L11.4471 23.0689C11.4471 22.6754 11.291 22.3324 11.0179 22.1037C10.8065 21.9222 10.5496 21.828 10.2764 21.828L10.2797 21.8314Z" fill="#312E27"/>
<path d="M7.24879 13.562C6.97887 13.562 6.76099 13.3367 6.76099 13.0576C6.76099 12.2034 7.16749 11.6452 8.00326 11.3459C8.36099 11.2181 8.60164 10.9154 8.63416 10.5556V10.5085C8.66342 10.2294 8.89757 10.0243 9.16749 10.0512C9.43741 10.0747 9.63253 10.3202 9.60977 10.5993V10.6464C9.53822 11.3963 9.03416 12.0454 8.32196 12.3009C7.82765 12.4758 7.7366 12.6944 7.7366 13.0576C7.7366 13.3367 7.51871 13.562 7.24879 13.562Z" fill="#312E27"/>
<path d="M13.3724 13.562C13.1024 13.562 12.8845 13.3367 12.8845 13.0575C12.8845 12.6944 12.7935 12.4758 12.3024 12.3009C11.5902 12.0453 11.0862 11.3963 11.0179 10.6498V10.5993C10.9886 10.3202 11.187 10.0781 11.4569 10.0512C11.7203 10.0243 11.961 10.2328 11.987 10.5085V10.5556C12.0228 10.9154 12.2634 11.2181 12.6211 11.3459C13.4569 11.6451 13.8634 12.2034 13.8634 13.0575C13.8634 13.3367 13.6455 13.562 13.3756 13.562H13.3724Z" fill="#312E27"/>
<path d="M10.3057 11.2888C9.29755 11.2888 8.13007 10.2497 8.13007 8.90792V7.97642C8.13007 6.8835 8.84877 5.94191 9.83738 5.73677C10.4813 5.60226 11.1382 5.7704 11.6358 6.19412C12.1366 6.61784 12.4227 7.24332 12.4227 7.91253L12.478 8.88102C12.478 8.88102 12.478 8.9012 12.478 8.90792C12.478 10.2497 11.3106 11.2888 10.3057 11.2888ZM10.2797 6.69854C10.1984 6.69854 10.1138 6.70863 10.0293 6.72545C9.49267 6.83642 9.10568 7.36102 9.10568 7.97642V8.90792C9.10568 9.69146 9.83413 10.28 10.3057 10.28C10.7772 10.28 11.4959 9.69819 11.5024 8.91801L11.4471 7.93607C11.4471 7.54262 11.291 7.19961 11.0179 6.97093C10.8065 6.78934 10.5496 6.69518 10.2764 6.69518L10.2797 6.69854Z" fill="#312E27"/>
<path d="M30.0358 15.1333H31.5447C32.1951 13.1156 31.1317 9.04657 27.3171 8.07135C27.3171 8.07135 26.3415 7.39878 25.0407 7.0625L24.7155 8.07135C24.7155 8.07135 23.213 7.56692 21.7886 7.76869V8.65312C20.9073 9.11046 17.8049 10.0722 18.2114 15.1333L26.0033 11.7604L30.039 15.1333H30.0358Z" fill="#0085FF"/>
<path d="M24.3772 23.0787C23.8959 23.0787 23.4114 22.951 22.9854 22.6954C22.7512 22.5541 22.6732 22.2448 22.8098 22.006C22.9463 21.7639 23.2455 21.6832 23.4764 21.8244C24.0163 22.1506 24.7317 22.1506 25.2585 21.8244C25.4894 21.6832 25.7886 21.7605 25.9285 21.9993C26.065 22.238 25.9902 22.5474 25.7594 22.692C25.3398 22.951 24.8585 23.0787 24.374 23.0787H24.3772Z" fill="#312E27"/>
<path d="M24.1203 20.5125H23.9024C23.6325 20.5125 23.4146 20.2871 23.4146 20.008C23.4146 19.7289 23.6325 19.5036 23.9024 19.5036H24.1203C24.2699 19.5036 24.3902 19.3792 24.3902 19.2245V17.5902C24.3902 16.2585 25.1382 15.4648 26.387 15.4648H27.8049C28.0748 15.4648 28.2927 15.6902 28.2927 15.9693C28.2927 16.2484 28.0748 16.4737 27.8049 16.4737H26.387C25.6813 16.4737 25.3658 16.8167 25.3658 17.5902V19.2245C25.3658 19.934 24.8065 20.5125 24.1203 20.5125Z" fill="#312E27"/>
<path d="M24.078 25.5712C21.3658 25.5712 18.2114 22.659 18.2114 18.9061V14.9615C18.2114 14.6823 18.4293 14.457 18.6992 14.457C18.9691 14.457 19.187 14.6823 19.187 14.9615V18.9061C19.187 22.0402 21.8634 24.5623 24.078 24.5623C26.1658 24.5623 29.2683 22.2353 29.2683 19.0238V14.9648C29.2683 14.6857 29.4862 14.4604 29.7561 14.4604C30.026 14.4604 30.2439 14.6857 30.2439 14.9648V19.0238C30.2439 22.6523 26.8715 25.5712 24.078 25.5712Z" fill="#312E27"/>
<path d="M22.6016 16.4776H20.9756C20.7057 16.4776 20.4878 16.2523 20.4878 15.9732C20.4878 15.6941 20.7057 15.4688 20.9756 15.4688H22.6016C22.8715 15.4688 23.0894 15.6941 23.0894 15.9732C23.0894 16.2523 22.8715 16.4776 22.6016 16.4776Z" fill="#312E27"/>
<path d="M21.8894 17.1914C21.5903 17.1914 21.3496 17.4436 21.3496 17.7496C21.3496 18.0557 21.5935 18.3079 21.8894 18.3079C22.1854 18.3079 22.4293 18.0557 22.4293 17.7496C22.4293 17.4436 22.1854 17.1914 21.8894 17.1914Z" fill="#312E27"/>
<path d="M27.0212 17.1914C26.722 17.1914 26.4813 17.4436 26.4813 17.7496C26.4813 18.0557 26.7252 18.3079 27.0212 18.3079C27.3171 18.3079 27.561 18.0557 27.561 17.7496C27.561 17.4436 27.3171 17.1914 27.0212 17.1914Z" fill="#312E27"/>
<path d="M30.1659 19.6783C29.8959 19.6783 29.6781 19.453 29.6781 19.1739C29.6781 18.8948 29.8959 18.6695 30.1659 18.6695C30.5366 18.6695 30.8455 18.3836 30.8878 18.0003L30.9171 17.7312C30.9333 17.5799 30.8878 17.4353 30.7903 17.3243C30.6927 17.21 30.5594 17.1495 30.413 17.1495H30.0813C29.8114 17.1495 29.5935 16.9242 29.5935 16.645C29.5935 16.3659 29.8114 16.1406 30.0813 16.1406H30.413C30.8358 16.1406 31.2358 16.3256 31.5187 16.6518C31.7984 16.9746 31.935 17.4118 31.8894 17.8456L31.8602 18.1146C31.7659 19.0058 31.0374 19.6817 30.1691 19.6817L30.1659 19.6783Z" fill="#312E27"/>
<path d="M18.2049 19.6797C17.3366 19.6797 16.6082 19.0072 16.5139 18.1127L16.4846 17.8436C16.4391 17.4098 16.5724 16.976 16.8553 16.6498C17.135 16.327 17.5382 16.1387 17.961 16.1387H18.3773C18.6472 16.1387 18.8651 16.364 18.8651 16.6431C18.8651 16.9222 18.6472 17.1475 18.3773 17.1475H17.961C17.8147 17.1475 17.6813 17.2081 17.5838 17.3224C17.4862 17.4367 17.4407 17.5813 17.4569 17.7293L17.4862 17.9983C17.5252 18.3783 17.8374 18.6675 18.2082 18.6675C18.4781 18.6675 18.696 18.8928 18.696 19.1719C18.696 19.4511 18.4781 19.6764 18.2082 19.6764L18.2049 19.6797Z" fill="#312E27"/>
<path d="M31.7073 15.1319C31.6845 15.1319 31.6618 15.1319 31.639 15.1286C31.3724 15.0882 31.187 14.8326 31.226 14.5569C31.5187 12.445 29.8341 8.81653 27.0016 8.3222C26.735 8.27512 26.5561 8.01618 26.6016 7.74043C26.6471 7.46468 26.8976 7.28308 27.1642 7.3268C30.5919 7.92202 32.5463 12.1424 32.1951 14.6981C32.1593 14.9503 31.9512 15.1319 31.7138 15.1319H31.7073Z" fill="#312E27"/>
<path d="M18.8195 15.401C18.6146 15.401 18.4227 15.2665 18.3577 15.0547C18.2731 14.789 18.413 14.5065 18.6666 14.4191C23.0797 12.9092 25.8244 11.1605 25.8504 11.1437C26.0292 11.0293 26.2601 11.0462 26.4227 11.1874L30.2439 14.5132C30.4488 14.6915 30.4748 15.0109 30.3024 15.2228C30.1301 15.4347 29.8211 15.4649 29.6162 15.2833L26.0618 12.1895C25.2195 12.6939 22.6927 14.1063 18.9756 15.3775C18.9236 15.3943 18.8715 15.4044 18.8227 15.4044L18.8195 15.401Z" fill="#312E27"/>
<path d="M17.0732 15.133C16.8292 15.133 16.6179 14.9447 16.5886 14.6857C15.9545 9.12361 18.878 7.73139 20.1236 7.13617C20.1366 7.12945 20.1496 7.12272 20.1626 7.11936V6.1744C20.1626 5.92219 20.3414 5.71033 20.5821 5.67334C21.574 5.52874 22.7187 5.75069 23.4146 5.93228V5.58255C23.4146 5.43794 23.4732 5.30343 23.5772 5.20591C23.6813 5.11175 23.8179 5.06467 23.9577 5.08148C25.9707 5.31352 27.4797 7.33122 27.5447 7.41865C27.7073 7.6406 27.6683 7.9567 27.4536 8.12485C27.239 8.29299 26.9333 8.25263 26.7707 8.03069C26.7545 8.01051 25.7301 6.64856 24.3935 6.20803V6.60485C24.3935 6.76626 24.3187 6.92095 24.1918 7.01511C24.065 7.10927 23.9024 7.13617 23.7528 7.08237C23.7366 7.07564 22.3545 6.60148 21.1447 6.64184V7.43883C21.1447 7.62715 21.0439 7.79865 20.8813 7.88609C20.787 7.93653 20.6699 7.9937 20.5398 8.05423C19.3073 8.64272 17.0146 9.73564 17.5642 14.568C17.5967 14.8438 17.4049 15.096 17.1382 15.1263C17.1187 15.1263 17.0992 15.1296 17.0797 15.1296L17.0732 15.133Z" fill="#312E27"/>
<path d="M28.3415 38.0003H12.5203C12.2504 38.0003 12.0325 37.775 12.0325 37.4959V34.9132C12.0325 30.9854 13.8244 28.7122 18.2211 27.0745C19.7854 26.4927 20.813 26.0051 20.813 24.623V24.3775C20.813 24.0984 21.0309 23.873 21.3008 23.873C21.5707 23.873 21.7886 24.0984 21.7886 24.3775V24.623C21.7886 26.8189 19.9935 27.4847 18.5529 28.0228C14.5626 29.5092 13.0081 31.4394 13.0081 34.9132V36.9915H28.3415C28.6114 36.9915 28.8293 37.2168 28.8293 37.4959C28.8293 37.775 28.6114 38.0003 28.3415 38.0003Z" fill="#312E27"/>
<path d="M27.3399 26.6748C27.2 26.6748 27.0634 26.6143 26.9659 26.4966C26.5529 25.9888 26.3415 25.36 26.3415 24.6269V24.3814C26.3415 24.1023 26.5594 23.877 26.8293 23.877C27.0992 23.877 27.3171 24.1023 27.3171 24.3814V24.6269C27.3171 25.1279 27.4407 25.5147 27.7106 25.8442C27.8862 26.0561 27.8602 26.3755 27.6521 26.5538C27.561 26.6345 27.4504 26.6715 27.3366 26.6715L27.3399 26.6748Z" fill="#312E27"/>
<path d="M24.1171 28.5837H24.0195C22.4813 28.5837 21.1837 27.8977 20.3642 26.6535C20.2114 26.4248 20.2699 26.1087 20.4911 25.954C20.7154 25.7959 21.0179 25.8565 21.1675 26.0851C21.8016 27.0469 22.813 27.5749 24.0163 27.5749H24.1138C25.3431 27.5749 26.3675 27.0267 26.9984 26.0347C27.148 25.8027 27.4504 25.7354 27.6748 25.8901C27.8992 26.0414 27.9642 26.3542 27.8146 26.5896C26.9984 27.8775 25.6845 28.5871 24.1171 28.5871V28.5837Z" fill="#312E27"/>
<path d="M17.7236 37.6633C17.4537 37.6633 17.2358 37.438 17.2358 37.1588V35.1411C17.2358 34.862 17.4537 34.6367 17.7236 34.6367C17.9935 34.6367 18.2114 34.862 18.2114 35.1411V37.1588C18.2114 37.438 17.9935 37.6633 17.7236 37.6633Z" fill="#312E27"/>
<path d="M33.6585 37.3266C36.8016 37.3266 39.3496 34.6918 39.3496 31.4416C39.3496 28.1914 36.8016 25.5566 33.6585 25.5566C30.5154 25.5566 27.9675 28.1914 27.9675 31.4416C27.9675 34.6918 30.5154 37.3266 33.6585 37.3266Z" fill="#0085FF"/>
<path d="M33.6585 37.9998C30.1626 37.9998 27.3171 35.0573 27.3171 31.4423C27.3171 27.8272 30.1626 24.8848 33.6585 24.8848C37.1545 24.8848 40 27.8272 40 31.4423C40 35.0573 37.1545 37.9998 33.6585 37.9998ZM33.6585 25.8936C30.6992 25.8936 28.2927 28.3821 28.2927 31.4423C28.2927 34.5025 30.6992 36.991 33.6585 36.991C36.6179 36.991 39.0244 34.5025 39.0244 31.4423C39.0244 28.3821 36.6179 25.8936 33.6585 25.8936Z" fill="#312E27"/>
<path d="M33.6585 34.6374C33.3886 34.6374 33.1707 34.4121 33.1707 34.133V28.7525C33.1707 28.4734 33.3886 28.248 33.6585 28.248C33.9284 28.248 34.1463 28.4734 34.1463 28.7525V34.133C34.1463 34.4121 33.9284 34.6374 33.6585 34.6374Z" fill="#312E27"/>
<path d="M36.2601 31.9463H31.0569C30.787 31.9463 30.5691 31.721 30.5691 31.4419C30.5691 31.1628 30.787 30.9375 31.0569 30.9375H36.2601C36.5301 30.9375 36.748 31.1628 36.748 31.4419C36.748 31.721 36.5301 31.9463 36.2601 31.9463Z" fill="#312E27"/>
<path d="M10.4748 36.6481C10.4 36.6481 10.3252 36.6313 10.2537 36.5943C3.92846 33.2786 0 26.6639 0 19.3363C0 8.67274 8.38699 0 18.6992 0C29.0114 0 37.3984 8.67274 37.3984 19.3363C37.3984 20.8933 37.2195 22.4469 36.865 23.9467C36.8 24.2158 36.5366 24.3839 36.2764 24.3166C36.0163 24.2494 35.8537 23.977 35.9187 23.708C36.2537 22.2855 36.426 20.8159 36.426 19.3396C36.426 9.23434 28.4748 1.01221 18.7024 1.01221C8.93008 1.01221 0.97561 9.23097 0.97561 19.3363C0.97561 26.2839 4.69919 32.5489 10.6959 35.6931C10.9366 35.8209 11.0309 36.1235 10.9106 36.3724C10.826 36.5473 10.6537 36.6481 10.4748 36.6481Z" fill="#312E27"/>
</svg>
