<svg width="20" height="19" viewBox="0 0 20 19" fill="none" xmlns="http://www.w3.org/2000/svg">
<path d="M2.64625 14.3292C4.61191 17.0513 7.03691 18.7491 9.30569 18.9818C10.8269 19.1393 13.5587 18.2614 13.5085 16.4941C13.4825 15.5693 12.6363 14.9333 12.0189 14.3086C11.8292 14.1172 11.6377 13.924 11.448 13.7345C9.87661 12.1624 8.91516 14.3011 7.28052 13.8096C6.35999 13.5319 5.84486 12.607 5.29255 11.9335C4.79788 11.3313 4.22882 10.5959 4.3404 9.79862C4.5431 8.35596 7.08154 8.11208 6.23353 6.25294C6.12195 6.00718 6.00851 5.75955 5.89694 5.51379C5.46363 4.57015 4.93363 3.16876 3.56678 3.24943C0.634102 3.42765 -0.249235 6.46118 0.0576084 8.78745C0.31982 10.7591 1.38354 12.6802 2.61092 14.2898C2.62208 14.3048 2.63509 14.318 2.64625 14.3292Z" fill="white"/>
<path d="M9.99001 3.88867C9.55113 3.89618 9.20152 4.25825 9.2071 4.70287C9.21268 5.14373 9.57345 5.50018 10.0123 5.4983C10.0328 5.4983 12.0301 5.50205 13.2798 6.89781C14.1482 7.86396 14.4904 9.31225 14.2895 11.1958C14.2672 11.4115 14.3305 11.6179 14.4532 11.7755C14.5815 11.9406 14.7749 12.0569 14.9981 12.0813C15.4351 12.1282 15.8293 11.8074 15.8758 11.3665C16.1269 8.99896 15.649 7.12669 14.4495 5.80222C12.7051 3.87366 10.1016 3.88867 9.99187 3.89055L9.99001 3.88867Z" fill="white"/>
<path d="M17.6082 3.0714C14.8057 -0.0277914 10.6159 -0.003403 10.4392 0.000349041C9.99845 0.00597711 9.64697 0.371802 9.65441 0.816419C9.65441 0.998393 9.7195 1.16348 9.82178 1.29668C9.97056 1.48991 10.203 1.61185 10.4634 1.60622C10.4987 1.60622 14.1064 1.58371 16.4291 4.15386C18.0359 5.93046 18.6663 8.54751 18.3074 11.9319C18.2591 12.3727 18.5771 12.7704 19.0141 12.8173C19.453 12.8642 19.8453 12.5453 19.8918 12.1026C20.3028 8.23984 19.5311 5.20444 17.6082 3.06765V3.0714Z" fill="white"/>
</svg>
