<svg width="60" height="60" viewBox="0 0 60 60" fill="none" xmlns="http://www.w3.org/2000/svg">
<path d="M18.5455 44.0703L14.7273 48.8491H54.24C55.3146 48.8491 56.1818 47.7606 56.1818 46.4172V44.0703H18.5455Z" fill="#312E27"/>
<path d="M3.54546 41.9466C3.09273 41.9466 2.72728 41.5908 2.72728 41.1501V13.6669C2.72728 11.9891 4.1291 10.6191 5.85819 10.6191H9.00001C9.45273 10.6191 9.81819 10.9749 9.81819 11.4156C9.81819 11.8563 9.45273 12.2121 9.00001 12.2121H5.85819C5.03455 12.2121 4.36364 12.8652 4.36364 13.6669V41.1501C4.36364 41.5908 3.99819 41.9466 3.54546 41.9466Z" fill="#312E27"/>
<path d="M54.1418 49.3802H15C14.5473 49.3802 14.1818 49.0244 14.1818 48.5837C14.1818 48.143 14.5473 47.7873 15 47.7873H54.1418C54.9655 47.7873 55.6364 47.1342 55.6364 46.3324V13.6669C55.6364 12.8652 54.9655 12.2121 54.1418 12.2121H51.5455C51.0927 12.2121 50.7273 11.8563 50.7273 11.4156C50.7273 10.9749 51.0927 10.6191 51.5455 10.6191H54.1418C55.8655 10.6191 57.2727 11.9837 57.2727 13.6669V46.3377C57.2727 48.0156 55.8709 49.3855 54.1418 49.3855V49.3802Z" fill="#312E27"/>
<path d="M24.8182 56.3042C24.6927 56.3042 24.5618 56.2777 24.4418 56.2139C24.0382 56.0122 23.8854 55.529 24.0927 55.1414C24.7473 53.9095 25.0909 52.529 25.0909 51.1431V49.1148C25.0909 48.6741 25.4564 48.3184 25.9091 48.3184C26.3618 48.3184 26.7273 48.6741 26.7273 49.1148V51.1431C26.7273 52.7838 26.3182 54.4192 25.5436 55.8741C25.3964 56.1449 25.1127 56.3042 24.8182 56.3042Z" fill="#312E27"/>
<path d="M35.1818 56.3042C34.8873 56.3042 34.5982 56.1502 34.4564 55.8741C33.6818 54.4192 33.2727 52.7785 33.2727 51.1431V49.1148C33.2727 48.6741 33.6382 48.3184 34.0909 48.3184C34.5436 48.3184 34.9091 48.6741 34.9091 49.1148V51.1431C34.9091 52.529 35.2527 53.9148 35.9073 55.1414C36.1146 55.5343 35.9564 56.0122 35.5582 56.2139C35.4382 56.2723 35.3073 56.3042 35.1818 56.3042Z" fill="#312E27"/>
<path d="M40.0909 59.9995H19.9091C19.4564 59.9995 19.0909 59.6437 19.0909 59.203V56.0172C19.0909 55.5765 19.4564 55.2207 19.9091 55.2207H27C27.4527 55.2207 27.8182 55.5765 27.8182 56.0172C27.8182 56.4579 27.4527 56.8136 27 56.8136H20.7273V58.4065H39.2727V56.8136H30.8182C30.3655 56.8136 30 56.4579 30 56.0172C30 55.5765 30.3655 55.2207 30.8182 55.2207H40.0909C40.5436 55.2207 40.9091 55.5765 40.9091 56.0172V59.203C40.9091 59.6437 40.5436 59.9995 40.0909 59.9995Z" fill="#312E27"/>
<path d="M59.1818 59.9992H0.818182C0.365455 59.9992 0 59.6434 0 59.2027C0 58.762 0.365455 58.4062 0.818182 58.4062H59.1818C59.6345 58.4062 60 58.762 60 59.2027C60 59.6434 59.6345 59.9992 59.1818 59.9992Z" fill="#312E27"/>
<path d="M55.3636 45.132H18.8182C18.3655 45.132 18 44.7762 18 44.3355C18 43.8948 18.3655 43.5391 18.8182 43.5391H55.3636C55.8164 43.5391 56.1818 43.8948 56.1818 44.3355C56.1818 44.7762 55.8164 45.132 55.3636 45.132Z" fill="#312E27"/>
<path d="M13.8491 32.6752L13.1291 33.5301C12.5945 34.1673 12.4527 34.9797 12.6545 35.7177L3.03818 47.192C2.03455 48.3602 2.19273 50.0912 3.39273 51.0682L4.01454 51.5726C5.20909 52.5496 6.99273 52.3956 7.99636 51.2274L17.6836 39.6735C18.4473 39.7053 19.2164 39.408 19.7345 38.7867L20.4545 37.9319L13.8545 32.6699L13.8491 32.6752Z" fill="#FFC960"/>
<path d="M5.82 53.0063C4.99637 53.0063 4.16728 52.7355 3.48546 52.1833L2.86364 51.6789C1.32 50.4204 1.11819 48.1797 2.41091 46.6771L11.7818 35.5001C11.6618 34.6134 11.9182 33.7107 12.4964 33.0204L13.2109 32.1656C13.4945 31.8258 14.0127 31.778 14.3618 32.0541C14.7109 32.3302 14.7655 32.8346 14.4764 33.1744L13.7618 34.0293C13.4127 34.4435 13.2982 34.9797 13.4455 35.5054C13.5164 35.755 13.4564 36.0151 13.2873 36.2169L3.67091 47.6912C2.95091 48.5249 3.06546 49.762 3.91637 50.4576L4.53819 50.962C5.3891 51.6523 6.66001 51.5461 7.3691 50.7178L17.0509 39.1744C17.2146 38.978 17.4655 38.8665 17.7164 38.8824C18.2673 38.9036 18.7636 38.6859 19.1018 38.2877L19.8218 37.4328C20.1109 37.093 20.6236 37.0452 20.9727 37.3213C21.3218 37.6027 21.3709 38.1019 21.0873 38.4417L20.3673 39.2966C19.7945 39.9815 18.9764 40.3904 18.0818 40.4647L8.6291 51.732C7.90364 52.5762 6.86728 53.0063 5.82 53.0063Z" fill="#312E27"/>
<path d="M16.9255 40.2382C16.7509 40.2382 16.5709 40.1851 16.4236 40.0683L14.3236 38.4754C13.9691 38.2046 13.9036 37.7054 14.1818 37.355C14.46 37.0099 14.9727 36.9461 15.3327 37.2169L17.4327 38.8099C17.7873 39.0807 17.8527 39.5798 17.5746 39.9302C17.4109 40.132 17.1709 40.2382 16.9309 40.2382H16.9255Z" fill="#312E27"/>
<path d="M30.0218 40.3593C21.54 40.3593 13.5655 35.2513 10.5164 27.0531C6.61637 16.5929 12.1909 5.00175 22.9364 1.2106C33.6818 -2.58055 45.5946 2.846 49.4836 13.3062C53.3782 23.7664 47.8036 35.3575 37.0582 39.1487C34.7346 39.9664 32.3564 40.3593 30.0164 40.3593H30.0218ZM29.9836 1.59821C27.8291 1.59821 25.6364 1.95397 23.4982 2.71326C13.5982 6.19644 8.46546 16.8743 12.0491 26.5115C15.6382 36.1433 26.6073 41.1398 36.5018 37.6513C46.3964 34.1575 51.5345 23.4796 47.9455 13.8478C45.1364 6.29733 37.7891 1.5929 29.9782 1.5929L29.9836 1.59821Z" fill="#312E27"/>
<path d="M16.6364 23.8944C16.3582 23.8944 16.0855 23.7564 15.9327 23.5068C15.6982 23.1298 15.8236 22.6413 16.2109 22.413L21.6655 19.2272C21.8891 19.0944 22.1673 19.0785 22.4073 19.1794L29.5746 22.1688L41.1873 12.4042C41.5309 12.1174 42.0491 12.1546 42.3436 12.4838C42.6382 12.8183 42.6 13.3174 42.2618 13.6095L30.2618 23.698C30.0273 23.8997 29.6891 23.9475 29.4055 23.8254L22.1564 20.7989L17.0618 23.7776C16.9309 23.8573 16.7836 23.8891 16.6418 23.8891L16.6364 23.8944Z" fill="#312E27"/>
<path d="M24.5455 27.6113H19.6364V31.8591H24.5455V27.6113Z" fill="#FFC960"/>
<path d="M33.2727 26.0176H28.3636V31.8583H33.2727V26.0176Z" fill="#FFC960"/>
<path d="M42 20.709H37.0909V31.8594H42V20.709Z" fill="#FFC960"/>
</svg>
