<svg width="60" height="58" viewBox="0 0 60 58" fill="none" xmlns="http://www.w3.org/2000/svg">
<path d="M2.02719 1.16016H57.3903C58.1883 1.16016 58.8349 1.80396 58.8349 2.59856V10.4402H0.582527V2.59856C0.582527 1.80396 1.22913 1.16016 2.02719 1.16016Z" fill="#FFC960"/>
<path d="M59.1262 57.9998H0.873786C0.390291 57.9998 0 57.6112 0 57.1298V13.6298C0 13.1484 0.390291 12.7598 0.873786 12.7598C1.35728 12.7598 1.74757 13.1484 1.74757 13.6298V56.2598H58.2524V14.2098C58.2524 13.7284 58.6427 13.3398 59.1262 13.3398C59.6097 13.3398 60 13.7284 60 14.2098V57.1298C60 57.6112 59.6097 57.9998 59.1262 57.9998Z" fill="#312E27"/>
<path d="M59.1262 11.02H0.873786C0.390291 11.02 0 10.6314 0 10.15V2.3084C0 1.0382 1.04272 0 2.31845 0H57.6816C58.9573 0 60 1.0382 60 2.3084V10.15C60 10.6314 59.6097 11.02 59.1262 11.02ZM1.74757 9.28H58.2524V2.3084C58.2524 1.9952 57.9961 1.74 57.6816 1.74H2.31845C2.00388 1.74 1.74757 1.9952 1.74757 2.3084V9.28Z" fill="#312E27"/>
<path d="M19.5146 6.38063H17.1845C16.701 6.38063 16.3107 5.99202 16.3107 5.51063C16.3107 5.02922 16.701 4.64062 17.1845 4.64062H19.5146C19.9981 4.64062 20.3884 5.02922 20.3884 5.51063C20.3884 5.99202 19.9981 6.38063 19.5146 6.38063ZM13.6893 6.38063H11.3592C10.8757 6.38063 10.4854 5.99202 10.4854 5.51063C10.4854 5.02922 10.8757 4.64062 11.3592 4.64062H13.6893C14.1728 4.64062 14.5631 5.02922 14.5631 5.51063C14.5631 5.99202 14.1728 6.38063 13.6893 6.38063ZM7.86408 6.38063H5.53398C5.05049 6.38063 4.66019 5.99202 4.66019 5.51063C4.66019 5.02922 5.05049 4.64062 5.53398 4.64062H7.86408C8.34757 4.64062 8.73786 5.02922 8.73786 5.51063C8.73786 5.99202 8.34757 6.38063 7.86408 6.38063Z" fill="#312E27"/>
<path d="M7.57281 50.4609L51.8447 50.4609V45.2409L7.57281 45.2409V50.4609Z" fill="#312E27"/>
<path d="M52.1359 35.3803H35.2427C34.7592 35.3803 34.3689 34.9917 34.3689 34.5103V17.6903C34.3689 17.2089 34.7592 16.8203 35.2427 16.8203H52.1359C52.6194 16.8203 53.0097 17.2089 53.0097 17.6903V34.5103C53.0097 34.9917 52.6194 35.3803 52.1359 35.3803ZM36.1165 33.6403H51.2621V18.5603H36.1165V33.6403Z" fill="#312E27"/>
<path d="M52.1359 51.6196H45.7281C45.2447 51.6196 44.8544 51.231 44.8544 50.7496C44.8544 50.2682 45.2447 49.8796 45.7281 49.8796H51.2621V42.3396H8.73786V49.8796H41.6505C42.134 49.8796 42.5243 50.2682 42.5243 50.7496C42.5243 51.231 42.134 51.6196 41.6505 51.6196H7.86407C7.38058 51.6196 6.99029 51.231 6.99029 50.7496V41.4696C6.99029 40.9882 7.38058 40.5996 7.86407 40.5996H52.1359C52.6194 40.5996 53.0097 40.9882 53.0097 41.4696V50.7496C53.0097 51.231 52.6194 51.6196 52.1359 51.6196Z" fill="#312E27"/>
<path d="M51.5534 34.7999C51.332 34.7999 51.1049 34.7129 50.9359 34.5447L35.2078 18.8847C34.8641 18.5425 34.8641 17.9915 35.2078 17.6551C35.5515 17.3129 36.1049 17.3129 36.4427 17.6551L52.1709 33.3151C52.5146 33.6573 52.5146 34.2083 52.1709 34.5447C52.0019 34.7129 51.7748 34.7999 51.5534 34.7999Z" fill="#312E27"/>
<path d="M35.8252 34.7999C35.6039 34.7999 35.3767 34.7129 35.2078 34.5447C34.8641 34.2025 34.8641 33.6515 35.2078 33.3151L50.9359 17.6551C51.2796 17.3129 51.833 17.3129 52.1709 17.6551C52.5146 17.9973 52.5146 18.5483 52.1709 18.8847L36.4427 34.5447C36.2738 34.7129 36.0466 34.7999 35.8252 34.7999Z" fill="#312E27"/>
<path d="M26.5049 20.8806H7.86407C7.38058 20.8806 6.99029 20.492 6.99029 20.0106C6.99029 19.5292 7.38058 19.1406 7.86407 19.1406H26.5049C26.9883 19.1406 27.3786 19.5292 27.3786 20.0106C27.3786 20.492 26.9883 20.8806 26.5049 20.8806Z" fill="#312E27"/>
<path d="M26.5049 26.6795H7.86407C7.38058 26.6795 6.99029 26.2909 6.99029 25.8095C6.99029 25.3281 7.38058 24.9395 7.86407 24.9395H26.5049C26.9883 24.9395 27.3786 25.3281 27.3786 25.8095C27.3786 26.2909 26.9883 26.6795 26.5049 26.6795Z" fill="#312E27"/>
<path d="M26.5049 32.4802H7.86407C7.38058 32.4802 6.99029 32.0916 6.99029 31.6102C6.99029 31.1288 7.38058 30.7402 7.86407 30.7402H26.5049C26.9883 30.7402 27.3786 31.1288 27.3786 31.6102C27.3786 32.0916 26.9883 32.4802 26.5049 32.4802Z" fill="#312E27"/>
</svg>
