<svg width="40" height="40" viewBox="0 0 40 40" fill="none" xmlns="http://www.w3.org/2000/svg">
<path d="M20.7199 32.7199C20.583 32.7199 20.446 32.6673 20.3407 32.5585C20.1405 32.3515 20.144 32.0252 20.3407 31.8216C20.3582 31.8041 20.3723 31.7901 20.3898 31.776L20.4039 31.762C20.7375 31.4848 21.0325 31.6883 21.0887 31.7339C21.2994 31.8988 21.3521 32.2006 21.2081 32.4287C21.1835 32.4673 21.1554 32.5023 21.1203 32.5339L21.0711 32.5795C20.9693 32.6743 20.8393 32.7199 20.7129 32.7199H20.7199Z" fill="#312E27"/>
<path d="M30.2125 26.5786C30.0614 26.5786 29.9069 26.5119 29.8051 26.3856C29.619 26.161 29.6541 25.8277 29.8788 25.6453C31.4592 24.3505 32.0667 23.133 32.6005 22.0558C33.043 21.1646 33.4609 20.326 34.3354 19.6979C34.5707 19.5295 34.9008 19.5821 35.0694 19.8207C35.2379 20.0558 35.1852 20.3856 34.9464 20.554C34.2862 21.0277 33.9561 21.6874 33.5417 22.526C32.9868 23.6382 32.2985 25.0207 30.5426 26.4593C30.4442 26.54 30.3248 26.5786 30.2089 26.5786H30.2125Z" fill="#312E27"/>
<path d="M12.8814 31.2625C12.4424 31.2625 12.0035 31.0941 11.6663 30.7607L11.1466 30.2414C10.4758 29.5713 10.4758 28.4835 11.1466 27.8169L13.2115 25.7537C13.5346 25.4309 13.9666 25.252 14.4266 25.252C14.8867 25.252 15.3186 25.4309 15.6417 25.7537L16.1615 26.273C16.4846 26.5958 16.6637 27.0274 16.6637 27.487C16.6637 27.9467 16.4846 28.3783 16.1615 28.7011L14.0965 30.7642C13.7629 31.0976 13.3239 31.266 12.8814 31.266V31.2625ZM14.4266 26.3081C14.2475 26.3081 14.0825 26.3783 13.9596 26.5011L11.8946 28.5642C11.6347 28.8239 11.6347 29.2449 11.8946 29.5011L12.4143 30.0204C12.6742 30.28 13.0956 30.28 13.352 30.0204L15.417 27.9572C15.5399 27.8344 15.6101 27.666 15.6101 27.487C15.6101 27.3081 15.5399 27.1432 15.417 27.0204L14.8972 26.5011C14.7743 26.3783 14.6057 26.3081 14.4301 26.3081H14.4266Z" fill="#312E27"/>
<path d="M10.7111 29.0624C10.2511 29.0624 9.8191 28.8834 9.49601 28.5606L8.97626 28.0413C8.65316 27.7185 8.47406 27.2869 8.47406 26.8273C8.47406 26.3676 8.65316 25.9361 8.97626 25.6132L9.74184 24.8483C10.4126 24.1782 11.5013 24.1782 12.1685 24.8483L12.6883 25.3676C13.359 26.0378 13.359 27.1255 12.6883 27.7922L11.9227 28.5571C11.5996 28.8799 11.1677 29.0589 10.7076 29.0589L10.7111 29.0624ZM10.9569 25.4027C10.7884 25.4027 10.6163 25.4659 10.4864 25.5957L9.72077 26.3606C9.59785 26.4834 9.52762 26.6518 9.52762 26.8308C9.52762 27.0097 9.59785 27.1747 9.72077 27.2975L10.2405 27.8168C10.4899 28.0659 10.9288 28.0659 11.1782 27.8168L11.9438 27.0518C12.0667 26.929 12.1369 26.7606 12.1369 26.5817C12.1369 26.4027 12.0667 26.2378 11.9438 26.1115L11.424 25.5922C11.2941 25.4624 11.1255 25.3992 10.9569 25.3992V25.4027Z" fill="#312E27"/>
<path d="M18.8481 33.9467C18.2862 33.9467 17.7629 33.7327 17.3731 33.3432C16.6637 32.6344 16.5618 31.5222 17.1343 30.6941C17.1905 30.5994 17.2783 30.4976 17.3625 30.4099L18.2897 29.4836C18.683 29.0906 19.2063 28.873 19.7647 28.873C20.1755 28.873 20.5724 28.9923 20.9095 29.2134C20.9201 29.2204 20.9306 29.2309 20.9446 29.238C21.043 29.3046 21.1343 29.3818 21.2361 29.4836C21.3204 29.5678 21.3977 29.6625 21.4749 29.7678C22.0544 30.5994 21.9525 31.7152 21.2361 32.4239L20.3195 33.3432C20.2177 33.445 20.1123 33.5292 19.9964 33.5994C19.6769 33.8204 19.2695 33.9502 18.8445 33.9502L18.8481 33.9467ZM19.7647 29.9257C19.4872 29.9257 19.2273 30.0309 19.0342 30.2274L18.1176 31.1432C18.086 31.1783 18.0403 31.2274 18.0158 31.2695C17.7172 31.7011 17.7664 32.252 18.1176 32.6029C18.4512 32.9362 19.0307 32.9959 19.424 32.7222C19.4907 32.6801 19.5329 32.6485 19.575 32.6029L20.4916 31.6836C20.8428 31.3362 20.892 30.7748 20.611 30.3748C20.5724 30.3222 20.5337 30.273 20.4916 30.2309C20.4354 30.1748 20.3933 30.1397 20.3476 30.1081C20.3371 30.1011 20.3301 30.0941 20.3195 30.0906C20.1545 29.9853 19.9613 29.9292 19.7647 29.9292V29.9257Z" fill="#312E27"/>
<path d="M15.129 33.4141C14.669 33.4141 14.237 33.2352 13.9139 32.9124L13.3942 32.3931C13.0711 32.0703 12.892 31.6387 12.892 31.179C12.892 30.7194 13.0711 30.2878 13.3942 29.965L15.8665 27.4948C16.5373 26.8246 17.6259 26.8246 18.2932 27.4948L18.813 28.0141C19.4837 28.6843 19.4837 29.772 18.813 30.4387L16.3406 32.9089C16.0175 33.2317 15.5856 33.4106 15.1255 33.4106L15.129 33.4141ZM17.0816 28.0492C16.913 28.0492 16.741 28.1124 16.611 28.2422L14.1387 30.7124C14.0158 30.8352 13.9455 31.0036 13.9455 31.179C13.9455 31.3545 14.0158 31.5229 14.1387 31.6492L14.6584 32.1685C14.9078 32.4176 15.3468 32.4176 15.5961 32.1685L18.0684 29.6983C18.3283 29.4387 18.3283 29.0211 18.0684 28.7615L17.5487 28.2422C17.4187 28.1124 17.2502 28.0492 17.0781 28.0492H17.0816Z" fill="#312E27"/>
<path d="M9.15536 26.1376C9.03596 26.1376 8.91305 26.0955 8.81471 26.0113L8.66371 25.8815C8.06318 25.3692 8.00348 25.3166 7.69092 25.0043C6.71111 24.0288 6.1141 22.9727 5.70321 22.1587C5.55923 21.878 5.42929 21.6008 5.30286 21.3411C5.05703 20.8218 4.84281 20.3762 4.60752 20.0253C4.58996 19.9973 4.57591 19.9727 4.56186 19.9411C4.37573 19.699 4.4249 19.3692 4.65668 19.1973C4.88846 19.0218 5.21858 19.0709 5.39417 19.3025C5.42226 19.3411 5.46441 19.3973 5.49953 19.4639C5.76994 19.8709 6.00523 20.3657 6.25457 20.885C6.37398 21.1376 6.50392 21.4043 6.64088 21.6815C7.01665 22.4253 7.56098 23.3867 8.43192 24.2569C8.71638 24.5411 8.7515 24.5727 9.345 25.078L9.49601 25.2078C9.71726 25.3973 9.74184 25.7306 9.55572 25.9516C9.45036 26.0744 9.30286 26.1376 9.15536 26.1376Z" fill="#312E27"/>
<path d="M19.5505 13.3726C19.4416 13.3726 19.3363 13.341 19.2414 13.2708C18.086 12.4358 16.5268 12.1972 15.0729 12.6358C14.9745 12.6638 14.8762 12.6954 14.7814 12.7165C13.2221 13.1691 12 13.3059 11.1607 13.12C11.0799 13.1059 11.0062 13.0884 10.9289 13.0603C10.8903 13.0463 10.8551 13.0358 10.8306 13.0217C10.5707 12.8919 10.4653 12.5761 10.5953 12.3165C10.7147 12.0744 10.9991 11.9691 11.245 12.0568C11.2871 12.0708 11.3117 12.0779 11.3398 12.0814C11.3538 12.0814 11.3644 12.0849 11.3784 12.0884C12.0211 12.2358 13.1308 12.0954 14.5075 11.6989C14.6093 11.6744 14.6901 11.6498 14.7709 11.6252C16.5373 11.0919 18.4407 11.3901 19.8595 12.4182C20.0948 12.5901 20.1475 12.9165 19.9754 13.1515C19.8736 13.2954 19.712 13.3691 19.547 13.3691L19.5505 13.3726Z" fill="#312E27"/>
<path d="M26.7112 31.189C26.1774 31.189 25.6436 30.9855 25.2362 30.5784L22.9535 28.2662C22.7498 28.0591 22.7498 27.7258 22.957 27.5223C23.1642 27.3188 23.4978 27.3223 23.7015 27.5258L25.9807 29.8346C26.381 30.2346 27.0342 30.2311 27.4346 29.8346C27.835 29.4346 27.835 28.7819 27.4346 28.3784L23.8209 24.7363C23.6172 24.5293 23.6172 24.196 23.8209 23.9925C24.0281 23.789 24.3617 23.789 24.5654 23.9925L28.1756 27.6311C28.5654 28.0205 28.7832 28.5434 28.7832 29.1012C28.7832 29.6591 28.5654 30.1819 28.1756 30.5749C27.7682 30.9819 27.2344 31.1855 26.7006 31.1855L26.7112 31.189Z" fill="#312E27"/>
<path d="M28.9131 28.989C28.3793 28.989 27.8455 28.7855 27.4381 28.3784L23.8244 24.7363C23.6207 24.5293 23.6207 24.196 23.8244 23.9925C24.0316 23.789 24.3652 23.789 24.5689 23.9925L28.1791 27.6311C28.5794 28.0311 29.2326 28.0311 29.633 27.6311C29.8262 27.4381 29.9315 27.1784 29.9315 26.9048C29.9315 26.6311 29.8262 26.3714 29.633 26.1784L29.3872 25.9328C29.18 25.7258 29.18 25.3925 29.3872 25.189C29.5944 24.982 29.928 24.982 30.1317 25.189L30.3775 25.4346C30.7708 25.8276 30.9851 26.3504 30.9851 26.9048C30.9851 27.4591 30.7673 27.9855 30.3775 28.3784C29.9701 28.7855 29.4363 28.989 28.906 28.989H28.9131Z" fill="#312E27"/>
<path d="M24.4636 33.3397C23.9298 33.3397 23.396 33.1362 22.9886 32.7292L20.5408 30.252C20.3371 30.045 20.3371 29.7116 20.5443 29.5081C20.7515 29.3046 21.0852 29.3046 21.2888 29.5117L23.7331 31.9853C24.1334 32.3853 24.7866 32.3853 25.187 31.9853C25.5874 31.5853 25.5874 30.9327 25.187 30.5292L21.5593 26.8731C21.3556 26.666 21.3556 26.3327 21.5593 26.1292C21.7665 25.9257 22.1001 25.9257 22.3038 26.1292L25.928 29.7818C26.7392 30.5924 26.7392 31.9116 25.928 32.7257C25.5206 33.1327 24.9868 33.3362 24.4565 33.3362L24.4636 33.3397Z" fill="#312E27"/>
<path d="M29.7665 26.087C29.633 26.087 29.4961 26.0343 29.3942 25.9326L21.0781 17.6238C20.8499 17.3922 20.4882 17.3852 20.2564 17.6098C19.5926 18.2448 18.655 19.1361 18.0404 19.722C17.6997 20.0448 17.4609 20.2764 17.4188 20.315C17.0465 20.6729 16.5654 20.8624 16.0421 20.8484C15.5259 20.8378 15.0448 20.6238 14.6901 20.2519L14.4829 20.0343C14.4197 19.9641 14.3635 19.901 14.3213 19.8343C13.7524 19.0624 13.8437 17.9817 14.5391 17.3115L19.0307 13.0203C19.259 12.8027 19.5048 12.5957 19.7647 12.4133C21.18 11.3887 23.0834 11.094 24.8499 11.6238C26.058 11.9887 26.9991 12.0343 27.8069 11.7641C28.0843 11.6729 28.3828 11.8203 28.4741 12.0975C28.5654 12.3747 28.4179 12.6729 28.1405 12.7641C27.1115 13.108 25.9702 13.0659 24.5443 12.6343C23.0904 12.1957 21.5312 12.4343 20.3758 13.2694C20.1545 13.4273 19.9508 13.5957 19.7577 13.7817L15.266 18.0729C14.95 18.3782 14.9078 18.8694 15.1712 19.2203C15.1782 19.2308 15.1853 19.2413 15.1923 19.2519C15.2098 19.2764 15.2309 19.2975 15.252 19.322L15.4522 19.5291C15.6137 19.6975 15.8314 19.7922 16.0667 19.7992C16.3126 19.8063 16.5233 19.7185 16.6918 19.5571C16.734 19.5185 16.9763 19.287 17.3169 18.9606C17.9315 18.3747 18.8657 17.4834 19.5294 16.8519C20.1686 16.2378 21.2011 16.2519 21.8262 16.8834L30.1387 25.1887C30.3459 25.3957 30.3459 25.7291 30.1387 25.9326C30.0369 26.0343 29.8999 26.087 29.7665 26.087Z" fill="#312E27"/>
<path d="M21.8437 34.053C21.654 34.053 21.4539 34.0214 21.2467 33.9547C20.3441 33.653 19.9438 33.0986 19.9016 33.0354C19.7366 32.7968 19.7998 32.467 20.0421 32.3056C20.2809 32.1442 20.604 32.2038 20.769 32.4389C20.7866 32.4635 21.0254 32.7723 21.5803 32.9582C22.251 33.1793 22.7497 32.4775 22.7673 32.4459C22.9323 32.2073 23.2589 32.1442 23.4978 32.3056C23.7366 32.467 23.8033 32.7898 23.6417 33.0319C23.3748 33.4319 22.7076 34.0565 21.8437 34.0565V34.053Z" fill="#312E27"/>
<path d="M30.6831 8.86328L27.7787 11.3685L35.6418 20.3089L38.5426 17.8036L30.6831 8.86328Z" fill="#0085FF"/>
<path d="M35.6417 20.836C35.4942 20.836 35.3503 20.7763 35.2449 20.657L27.3854 11.7167C27.2941 11.6114 27.2449 11.4745 27.2554 11.3342C27.266 11.1938 27.3292 11.064 27.4381 10.9728L30.3424 8.46753C30.5636 8.27806 30.8972 8.30262 31.0869 8.52016C31.2765 8.74121 31.2519 9.07104 31.0342 9.26402L28.5337 11.4219L35.7014 19.5728L38.2089 17.4079C38.4302 17.2184 38.7638 17.243 38.9534 17.4605C39.1431 17.6816 39.1185 18.0114 38.9007 18.2044L35.9964 20.7096C35.8981 20.7974 35.7752 20.8395 35.6523 20.8395L35.6417 20.836Z" fill="#312E27"/>
<path d="M8.95166 8.86328L11.8525 11.3685L3.99293 20.3089L1.08862 17.8036L8.95166 8.86328Z" fill="#312E27"/>
<path d="M3.99295 20.8343C3.87004 20.8343 3.74712 20.7921 3.64879 20.7044L0.744488 18.1992C0.523241 18.0097 0.498658 17.6764 0.69181 17.4553C0.88145 17.2343 1.21508 17.2097 1.43632 17.4027L3.94379 19.5676L11.1115 11.4167L8.61104 9.25882C8.38979 9.06934 8.36521 8.73601 8.55836 8.51496C8.748 8.2939 9.08162 8.26934 9.30287 8.46233L12.2072 10.9676C12.3125 11.0588 12.3793 11.1886 12.3898 11.329C12.4003 11.4693 12.3512 11.6062 12.2599 11.7114L4.38628 20.6553C4.28092 20.7746 4.13694 20.8343 3.98944 20.8343H3.99295Z" fill="#312E27"/>
<path d="M38.8411 15.586C38.6093 15.586 38.3951 15.4281 38.3318 15.193C38.2265 14.793 38.1071 14.393 37.9807 14.007C37.8893 13.7298 38.0368 13.4316 38.3143 13.3404C38.5882 13.2456 38.8867 13.3965 38.9815 13.6737C39.1185 14.0807 39.2414 14.5018 39.3538 14.9263C39.4275 15.207 39.259 15.4947 38.978 15.5684C38.9324 15.5789 38.8867 15.586 38.8446 15.586H38.8411ZM1.34852 14.8035C1.29584 14.8035 1.24667 14.7965 1.194 14.7789C0.916559 14.6947 0.758526 14.4 0.84281 14.1228C0.983284 13.6702 1.14132 13.2105 1.31691 12.7614C1.42227 12.4912 1.7278 12.3544 1.99821 12.4597C2.26862 12.5649 2.40558 12.8702 2.30023 13.1404C2.13517 13.5649 1.98416 14 1.85071 14.4281C1.78047 14.6561 1.57328 14.8 1.34852 14.8V14.8035ZM37.7067 12.414C37.5065 12.414 37.3169 12.3018 37.2291 12.1053C37.0395 11.6947 36.8358 11.2842 36.6145 10.8877C36.4741 10.6316 36.5689 10.3123 36.8217 10.1719C37.0781 10.0316 37.3977 10.1263 37.5382 10.3789C37.7699 10.8 37.9877 11.2316 38.1879 11.6667C38.3108 11.9298 38.1914 12.2421 37.928 12.3649C37.8577 12.3965 37.784 12.414 37.7102 12.414H37.7067ZM2.676 11.5579C2.59522 11.5579 2.51094 11.5404 2.43368 11.4982C2.1738 11.3649 2.07547 11.0456 2.20892 10.7895C2.43017 10.3649 2.66897 9.94035 2.92183 9.53684C3.07635 9.28772 3.39944 9.21053 3.64527 9.36491C3.89461 9.51579 3.97187 9.84211 3.81735 10.0877C3.58206 10.4737 3.35378 10.8737 3.14307 11.2737C3.04825 11.4526 2.86564 11.5579 2.676 11.5579ZM35.9613 9.37193C35.7963 9.37193 35.6312 9.29474 35.5294 9.14737C35.2695 8.77895 34.9921 8.41053 34.7076 8.05965C34.525 7.83509 34.5601 7.50176 34.7849 7.3193C35.0096 7.13684 35.3433 7.17193 35.5259 7.39649C35.8279 7.76842 36.1194 8.15439 36.3933 8.54737C36.5583 8.78597 36.5022 9.11228 36.2634 9.2807C36.172 9.34386 36.0667 9.37544 35.9613 9.37544V9.37193ZM4.56537 8.60702C4.45299 8.60702 4.34062 8.57193 4.24228 8.49825C4.01401 8.3193 3.97187 7.98947 4.14746 7.7614C4.43895 7.38246 4.7515 7.01053 5.07108 6.65614C5.26423 6.4386 5.59786 6.42105 5.81559 6.61404C6.03333 6.80702 6.05089 7.14035 5.85774 7.3579C5.55572 7.69474 5.26072 8.04912 4.98328 8.40702C4.87793 8.54035 4.72341 8.61053 4.56537 8.61053V8.60702ZM33.7032 6.69474C33.5698 6.69474 33.4363 6.64561 33.331 6.54386C33.0079 6.22456 32.6707 5.91228 32.3266 5.61754C32.1053 5.42807 32.0807 5.09474 32.2704 4.87368C32.46 4.65263 32.7901 4.62807 33.0149 4.81754C33.3801 5.12982 33.7348 5.45965 34.0755 5.79298C34.2827 5.99649 34.2827 6.32982 34.0755 6.53684C33.9736 6.64211 33.8367 6.69123 33.6997 6.69123L33.7032 6.69474ZM6.95343 6.04211C6.80945 6.04211 6.66546 5.98246 6.56011 5.86667C6.36695 5.64912 6.38451 5.31579 6.59874 5.12281C6.95343 4.80351 7.32569 4.49474 7.70497 4.2C7.93324 4.02105 8.26335 4.06316 8.44246 4.29123C8.62156 4.5193 8.57942 4.85263 8.35115 5.02807C7.99294 5.30877 7.63825 5.60351 7.30111 5.90526C7.19926 5.99649 7.07284 6.0386 6.94992 6.0386L6.95343 6.04211ZM30.9991 4.46316C30.8972 4.46316 30.7919 4.43158 30.7006 4.37193C30.3248 4.11579 29.9385 3.87018 29.5452 3.6386C29.2958 3.49123 29.208 3.16842 29.3555 2.9193C29.503 2.67018 29.8261 2.58597 30.0755 2.72982C30.4899 2.97193 30.8972 3.23158 31.2941 3.50175C31.5329 3.66667 31.5961 3.99298 31.431 4.23158C31.3292 4.37895 31.1641 4.45965 30.9956 4.45965L30.9991 4.46316ZM9.7594 3.94386C9.58381 3.94386 9.41173 3.85614 9.30989 3.69474C9.15536 3.44561 9.23263 3.12281 9.48197 2.97193C9.88934 2.7193 10.3108 2.4807 10.7357 2.25965C10.9921 2.12632 11.3116 2.22456 11.4451 2.48421C11.5785 2.74035 11.4802 3.05965 11.2203 3.19298C10.8165 3.40351 10.4196 3.62807 10.0333 3.86667C9.94553 3.9193 9.85071 3.94386 9.75589 3.94386H9.7594ZM27.9403 2.74737C27.87 2.74737 27.7963 2.73333 27.726 2.70175C27.3152 2.51579 26.8867 2.34386 26.4583 2.18947C26.1843 2.09123 26.0439 1.78947 26.1422 1.51579C26.2405 1.24211 26.5425 1.10175 26.8165 1.2C27.2695 1.36491 27.719 1.54737 28.1545 1.74035C28.4214 1.85965 28.5373 2.17193 28.4179 2.43509C28.3301 2.63158 28.1369 2.74737 27.9368 2.74737H27.9403ZM12.8955 2.38246C12.6848 2.38246 12.4846 2.25614 12.4038 2.04561C12.2985 1.77544 12.4319 1.47018 12.7023 1.36491C13.1448 1.19298 13.6049 1.03158 14.0614 0.891228C14.3389 0.807018 14.6339 0.961404 14.7217 1.2386C14.8094 1.51579 14.6514 1.81053 14.374 1.89825C13.9385 2.03158 13.5066 2.18597 13.0851 2.34737C13.0219 2.37193 12.9587 2.38246 12.8955 2.38246ZM24.6216 1.61053C24.5794 1.61053 24.5373 1.60702 24.4951 1.59649C24.0562 1.48772 23.6066 1.39649 23.1571 1.3193C22.8692 1.27018 22.676 1 22.7252 0.712281C22.7743 0.424561 23.0483 0.235088 23.3327 0.280702C23.8068 0.361404 24.2809 0.459649 24.7445 0.57193C25.0254 0.642105 25.201 0.926316 25.1308 1.20702C25.0711 1.44912 24.8569 1.60702 24.6181 1.60702L24.6216 1.61053ZM16.2634 1.40702C16.0175 1.40702 15.7963 1.23158 15.7471 0.978947C15.6909 0.694737 15.8771 0.417544 16.165 0.361404C16.6356 0.270175 17.1167 0.196491 17.5908 0.140351C17.8753 0.105263 18.1422 0.312281 18.1773 0.6C18.2124 0.887719 18.0052 1.15088 17.7173 1.18597C17.2677 1.2386 16.8147 1.30877 16.3687 1.39649C16.3336 1.40351 16.302 1.40702 16.2669 1.40702H16.2634ZM21.1554 1.08772C21.1554 1.08772 21.1343 1.08772 21.1238 1.08772C20.7269 1.06316 20.316 1.05614 19.9227 1.05263C19.8665 1.05263 19.8138 1.05263 19.7576 1.05263C19.4767 1.05263 19.2274 0.824561 19.2238 0.533333C19.2203 0.242105 19.4521 0.00350877 19.7436 0C19.8244 0 19.9051 0 19.9824 0C20.3828 0 20.7866 0.0105263 21.187 0.0350877C21.4785 0.0526316 21.6997 0.301754 21.6821 0.592983C21.6646 0.873684 21.4328 1.08772 21.1554 1.08772Z" fill="#312E27"/>
<path d="M19.9826 40.0009C9.40486 40.0009 0.628744 31.7448 0.000122394 21.2079C-0.0174369 20.9167 0.20381 20.6676 0.495294 20.65C0.793801 20.629 1.03612 20.8536 1.05368 21.1448C1.64718 31.1272 9.96325 38.9483 19.9826 38.9483C30.0019 38.9483 38.9466 30.45 38.9466 20.0009C38.9466 19.7097 39.1819 19.4746 39.4733 19.4746C39.7648 19.4746 40.0001 19.7097 40.0001 20.0009C40.0001 31.029 31.0203 40.0009 19.9826 40.0009Z" fill="#312E27"/>
</svg>
