<svg width="40" height="40" viewBox="0 0 40 40" fill="none" xmlns="http://www.w3.org/2000/svg">
<path d="M12.574 1.14258V4.1902H28.5116L35.8099 8.2702V35.8092H38.8572V1.14258H12.574Z" fill="#0085FF"/>
<path d="M35.6195 39.9991H15.05C14.7338 39.9991 14.4786 39.7438 14.4786 39.4276C14.4786 39.1115 14.7338 38.8562 15.05 38.8562H35.0481V8.54002L28.3516 4.95145H8.38396V21.1419C8.38396 21.4581 8.12875 21.7134 7.81259 21.7134C7.49642 21.7134 7.24121 21.4581 7.24121 21.1419V4.38002C7.24121 4.06383 7.49642 3.80859 7.81259 3.80859H28.4963C28.5916 3.80859 28.683 3.83145 28.7668 3.87717L35.8899 7.69431C36.0766 7.79336 36.1908 7.98764 36.1908 8.19717V39.4276C36.1908 39.7438 35.9356 39.9991 35.6195 39.9991Z" fill="#312E27"/>
<path d="M29.4677 11.322C29.2468 11.322 29.0411 11.1925 28.9459 10.983L27.3193 7.3182C27.1898 7.02868 27.3193 6.69344 27.6088 6.56391C27.8983 6.43439 28.2335 6.56391 28.3631 6.85344L29.7762 10.0344L34.9758 8.17534C35.2767 8.07249 35.6005 8.22487 35.7071 8.52201C35.8138 8.81915 35.6576 9.14677 35.3605 9.25344L29.662 11.2877C29.5972 11.3106 29.5325 11.322 29.4715 11.322H29.4677Z" fill="#312E27"/>
<path d="M25.3348 11.428H16.5737C16.2575 11.428 16.0023 11.1728 16.0023 10.8566C16.0023 10.5404 16.2575 10.2852 16.5737 10.2852H25.3348C25.6509 10.2852 25.9061 10.5404 25.9061 10.8566C25.9061 11.1728 25.6509 11.428 25.3348 11.428Z" fill="#312E27"/>
<path d="M13.5263 11.428H12.3836C12.0674 11.428 11.8122 11.1728 11.8122 10.8566C11.8122 10.5404 12.0674 10.2852 12.3836 10.2852H13.5263C13.8425 10.2852 14.0977 10.5404 14.0977 10.8566C14.0977 11.1728 13.8425 11.428 13.5263 11.428Z" fill="#312E27"/>
<path d="M13.5263 15.6194H12.3836C12.0674 15.6194 11.8122 15.3642 11.8122 15.048C11.8122 14.7318 12.0674 14.4766 12.3836 14.4766H13.5263C13.8425 14.4766 14.0977 14.7318 14.0977 15.048C14.0977 15.3642 13.8425 15.6194 13.5263 15.6194Z" fill="#312E27"/>
<path d="M13.5263 19.8089H12.3836C12.0674 19.8089 11.8122 19.5536 11.8122 19.2374C11.8122 18.9213 12.0674 18.666 12.3836 18.666H13.5263C13.8425 18.666 14.0977 18.9213 14.0977 19.2374C14.0977 19.5536 13.8425 19.8089 13.5263 19.8089Z" fill="#312E27"/>
<path d="M28.0012 15.6194H16.5737C16.2575 15.6194 16.0023 15.3642 16.0023 15.048C16.0023 14.7318 16.2575 14.4766 16.5737 14.4766H28.0012C28.3173 14.4766 28.5726 14.7318 28.5726 15.048C28.5726 15.3642 28.3173 15.6194 28.0012 15.6194Z" fill="#312E27"/>
<path d="M25.7157 19.8089H16.5737C16.2575 19.8089 16.0023 19.5536 16.0023 19.2374C16.0023 18.9213 16.2575 18.666 16.5737 18.666H25.7157C26.0318 18.666 26.2871 18.9213 26.2871 19.2374C26.2871 19.5536 26.0318 19.8089 25.7157 19.8089Z" fill="#312E27"/>
<path d="M39.4286 36.1905C39.1125 36.1905 38.8572 35.9352 38.8572 35.619V1.14286H12.3836C12.0674 1.14286 11.8122 0.887619 11.8122 0.571429C11.8122 0.255238 12.0674 0 12.3836 0H39.4286C39.7448 0 40 0.255238 40 0.571429V35.619C40 35.9352 39.7448 36.1905 39.4286 36.1905Z" fill="#312E27"/>
<path d="M8.82582 23.5591C7.86591 23.2505 6.5708 24.1153 6.55556 25.2962C6.54413 25.9781 7.01647 26.58 7.66403 26.7895L18.6915 30.3286C20.4285 29.4867 22.0246 29.7991 22.4474 31.5362L26.9993 32.9991L28.0468 29.7343L8.82582 23.5591Z" fill="#312E27"/>
<path d="M3.0245 39.1734L5.85851 38.4382L3.03973 28.0801L0.331421 28.8344L3.0245 39.1734Z" fill="#312E27"/>
<path d="M3.20352 39.6771C2.9483 39.6771 2.71594 39.5057 2.65119 39.2429C2.57501 38.9381 2.76165 38.6257 3.06639 38.5495L5.15762 38.0238L2.63976 28.7705L0.716135 29.2619C0.411402 29.3419 0.0990507 29.1552 0.0228675 28.8505C-0.0571249 28.5457 0.129524 28.2333 0.434257 28.1571L2.90259 27.5286C3.20733 27.4486 3.51206 27.6314 3.59586 27.9324L6.41464 38.2905C6.45654 38.439 6.43369 38.5952 6.3575 38.7286C6.28132 38.8619 6.15181 38.9571 6.00325 38.9952L3.34446 39.6619C3.29875 39.6733 3.24923 39.681 3.20352 39.681V39.6771Z" fill="#312E27"/>
<path d="M26.2146 27.9117C26.0699 27.9117 25.9252 27.8584 25.8147 27.7479C25.628 27.565 25.3538 27.2869 25.0529 26.986C24.5386 26.4679 23.6854 25.6069 23.4797 25.4469C21.8379 24.6012 19.2553 23.306 18.7601 23.146C18.364 23.0203 15.7661 23.0469 13.5911 23.1384C12.9245 23.1193 12.315 23.3479 11.8236 23.7479L11.0199 24.4031C10.7723 24.6012 10.4142 24.5631 10.2162 24.3193C10.0181 24.0755 10.0562 23.7136 10.3 23.5155L11.1037 22.8603C11.7894 22.3041 12.654 21.9955 13.534 21.9955H13.5682C14.65 21.9498 18.3411 21.8088 19.1068 22.0565C19.8572 22.2965 23.613 24.2279 24.0396 24.4488C24.0549 24.4565 24.0663 24.4641 24.0815 24.4717C24.2796 24.5936 24.7215 25.0279 25.8642 26.1822C26.1613 26.4793 26.4318 26.7536 26.6146 26.9326C26.8394 27.1536 26.8432 27.5155 26.6222 27.7403C26.5118 27.8545 26.3632 27.9117 26.2146 27.9117Z" fill="#312E27"/>
<path d="M3.41302 29.3682C3.19971 29.3682 2.99401 29.2463 2.89497 29.0406C2.76165 28.7549 2.87974 28.4158 3.16542 28.2787L4.67004 27.5663C5.43187 27.2044 6.16704 26.7739 6.84888 26.2825C7.10409 26.0996 7.46216 26.1568 7.645 26.4158C7.82784 26.671 7.7707 27.0291 7.51168 27.212C6.7727 27.7415 5.98039 28.2063 5.1538 28.5987L3.64919 29.3111C3.56919 29.3491 3.48539 29.3644 3.4054 29.3644L3.41302 29.3682Z" fill="#312E27"/>
<path d="M10.2162 38.4235C9.53814 38.4235 9.00105 38.313 8.49824 38.214C8.14399 38.1416 7.80878 38.073 7.45072 38.054L6.18227 38.2102C5.86611 38.2521 5.58423 38.0273 5.54614 37.7149C5.50805 37.4026 5.72898 37.1168 6.04133 37.0788L7.3593 36.9149C7.38977 36.9111 7.42406 36.9111 7.45834 36.9149C7.92306 36.9378 8.33064 37.0178 8.72679 37.1016C9.65622 37.2883 10.5361 37.4673 12.2884 36.9454C13.1149 36.6978 14.391 35.9397 15.4157 35.3302C16.1051 34.9188 16.6994 34.5645 17.1184 34.3854C18.1126 33.9511 20.8552 32.7054 20.8856 32.694C21.4875 32.4616 21.7922 31.8368 21.6094 31.254C21.5141 30.9454 21.3008 30.6978 21.0075 30.5607C20.718 30.4197 20.3904 30.4083 20.0895 30.5264C18.0097 31.2997 14.9929 32.0959 14.1053 32.1035C13.473 32.1035 12.4521 31.7073 12.1893 30.8426C11.8313 29.6616 12.8407 28.7892 13.633 28.233C13.892 28.0502 14.2463 28.1149 14.4291 28.374C14.6119 28.633 14.5472 28.9873 14.2882 29.1702C13.1226 29.9892 13.2445 30.3816 13.2825 30.5111C13.3625 30.774 13.8577 30.9607 14.0901 30.9607C14.7872 30.953 17.6212 30.2254 19.6819 29.4597C20.2647 29.2349 20.9313 29.2578 21.5027 29.5321C22.0741 29.8064 22.5083 30.3092 22.6988 30.9149C23.0645 32.073 22.4588 33.3188 21.3275 33.7492C21.3275 33.7492 18.5811 34.9988 17.5793 35.4368C17.2288 35.5892 16.6346 35.9435 16.0061 36.3169C14.871 36.9911 13.5835 37.7569 12.6198 38.0464C11.6332 38.3397 10.8637 38.4388 10.2238 38.4388L10.2162 38.4235Z" fill="#312E27"/>
<path d="M27.6012 33.5588C27.5403 33.5588 27.4831 33.5512 27.426 33.5322L24.1692 32.4846C23.8682 32.3893 23.7044 32.0655 23.7997 31.7646C23.8949 31.4636 24.2187 31.296 24.5196 31.395L27.6507 32.4007L29.7572 32.0769L28.2335 30.5874L8.41066 24.2255C7.90785 24.0617 7.37457 24.3398 7.21077 24.8426C7.05079 25.3417 7.32505 25.8788 7.82786 26.0388L16.4975 28.8236C16.7984 28.9188 16.9622 29.2426 16.867 29.5436C16.7718 29.8446 16.448 30.0122 16.1471 29.9131L7.47741 27.1284C6.37657 26.7741 5.77091 25.5931 6.12135 24.4922C6.47561 23.3912 7.65645 22.7817 8.75729 23.136L28.7059 29.5398C28.7897 29.5665 28.8659 29.6122 28.9306 29.6769L31.3647 32.0579C31.5208 32.2103 31.5742 32.435 31.5094 32.6407C31.4447 32.8465 31.2656 32.9988 31.0523 33.0293L27.685 33.5474C27.6545 33.5512 27.6279 33.555 27.5974 33.555L27.6012 33.5588Z" fill="#312E27"/>
</svg>
