<svg width="60" height="60" viewBox="0 0 60 60" fill="none" xmlns="http://www.w3.org/2000/svg">
<path d="M29.5694 60H0.861244C0.384689 60 0 59.6171 0 59.1428V6.57142C0 6.09714 0.384689 5.71428 0.861244 5.71428H32.0383C32.1818 5.71428 32.3196 5.74857 32.4459 5.81714L43.1828 11.5429C43.4641 11.6914 43.6364 11.9829 43.6364 12.2971V28.8571C43.6364 29.3314 43.2517 29.7143 42.7751 29.7143C42.2986 29.7143 41.9139 29.3314 41.9139 28.8571V12.8114L31.8201 7.42856H1.72249V58.2857H29.5694C30.0459 58.2857 30.4306 58.6686 30.4306 59.1428C30.4306 59.6171 30.0459 60 29.5694 60Z" fill="#312E27"/>
<path d="M33.5024 16.9829C33.1694 16.9829 32.8594 16.7886 32.7158 16.4743L30.2641 10.9771C30.0689 10.5429 30.2641 10.04 30.7005 9.84572C31.1369 9.65143 31.6421 9.84572 31.8373 10.28L33.9675 15.0514L41.8048 12.2629C42.2527 12.1029 42.7464 12.3371 42.9072 12.7829C43.068 13.2286 42.8326 13.72 42.3847 13.88L33.7952 16.9314C33.6976 16.9657 33.6 16.9829 33.5082 16.9829H33.5024Z" fill="#312E27"/>
<path d="M48.5167 32C48.0402 32 47.6555 31.6171 47.6555 31.1429V1.71429H7.7512C7.27464 1.71429 6.88995 1.33143 6.88995 0.857143C6.88995 0.382857 7.27464 0 7.7512 0H48.5167C48.9933 0 49.378 0.382857 49.378 0.857143V31.1429C49.378 31.6171 48.9933 32 48.5167 32Z" fill="#312E27"/>
<path d="M44.7847 31.9714L49.2229 40.9143L59.1387 42.3486L51.9617 49.3086L53.6555 59.1429L44.7847 54.5029L35.9139 59.1429L37.6076 49.3086L30.4306 42.3486L40.3464 40.9143L44.7847 31.9714Z" fill="#FFC960"/>
<path d="M53.6555 60C53.5177 60 53.3799 59.9657 53.2536 59.9029L44.7847 55.4686L36.3158 59.9029C36.0287 60.0514 35.6728 60.0286 35.4086 59.84C35.1445 59.6457 35.0125 59.3257 35.0641 59L36.6833 49.6114L29.8278 42.9657C29.5924 42.7371 29.5063 42.3943 29.6096 42.0857C29.7129 41.7771 29.9828 41.5486 30.3043 41.5029L39.7723 40.1314L44.0096 31.5886C44.1531 31.2971 44.4517 31.1086 44.779 31.1086C45.1062 31.1086 45.4048 31.2914 45.5484 31.5886L49.7857 40.1314L59.2536 41.5029C59.5809 41.5486 59.845 41.7771 59.9484 42.0857C60.0517 42.3943 59.9656 42.7371 59.7302 42.9657L52.8747 49.6114L54.4938 59C54.5512 59.32 54.4192 59.6457 54.1493 59.84C54 59.9486 53.822 60.0057 53.644 60.0057L53.6555 60ZM44.7847 53.6457C44.9225 53.6457 45.0603 53.68 45.1866 53.7429L52.5129 57.5771L51.112 49.4571C51.0661 49.1771 51.1579 48.8971 51.3589 48.6971L57.2842 42.9486L49.0909 41.7657C48.8096 41.7257 48.5685 41.5486 48.4421 41.2971L44.779 33.9086L41.1158 41.2971C40.9895 41.5486 40.7484 41.7257 40.467 41.7657L32.2737 42.9486L38.1991 48.6971C38.4 48.8914 38.4919 49.1771 38.446 49.4571L37.045 57.5771L44.3713 53.7429C44.4976 53.68 44.6354 53.6457 44.7732 53.6457H44.7847Z" fill="#312E27"/>
<path d="M35.8852 24H22.6794C22.2029 24 21.8182 23.6171 21.8182 23.1428C21.8182 22.6686 22.2029 22.2857 22.6794 22.2857H35.8852C36.3617 22.2857 36.7464 22.6686 36.7464 23.1428C36.7464 23.6171 36.3617 24 35.8852 24Z" fill="#312E27"/>
<path d="M35.8852 30.2857H30.7177C30.2411 30.2857 29.8564 29.9029 29.8564 29.4286C29.8564 28.9543 30.2411 28.5714 30.7177 28.5714H35.8852C36.3617 28.5714 36.7464 28.9543 36.7464 29.4286C36.7464 29.9029 36.3617 30.2857 35.8852 30.2857Z" fill="#312E27"/>
<path d="M25.5502 30.2857H7.7512C7.27464 30.2857 6.88995 29.9029 6.88995 29.4286C6.88995 28.9543 7.27464 28.5714 7.7512 28.5714H25.5502C26.0268 28.5714 26.4115 28.9543 26.4115 29.4286C26.4115 29.9029 26.0268 30.2857 25.5502 30.2857Z" fill="#312E27"/>
<path d="M35.8852 36.5714H7.7512C7.27464 36.5714 6.88995 36.1886 6.88995 35.7143C6.88995 35.24 7.27464 34.8571 7.7512 34.8571H35.8852C36.3617 34.8571 36.7464 35.24 36.7464 35.7143C36.7464 36.1886 36.3617 36.5714 35.8852 36.5714Z" fill="#312E27"/>
<path d="M20.3828 42.8571H7.7512C7.27464 42.8571 6.88995 42.4743 6.88995 42C6.88995 41.5257 7.27464 41.1429 7.7512 41.1429H20.3828C20.8593 41.1429 21.244 41.5257 21.244 42C21.244 42.4743 20.8593 42.8571 20.3828 42.8571Z" fill="#312E27"/>
<path d="M17.2249 13.7143H6.88995V24H17.2249V13.7143Z" fill="#312E27"/>
</svg>
