<svg width="41" height="40" viewBox="0 0 41 40" fill="none" xmlns="http://www.w3.org/2000/svg">
<ellipse cx="20.3606" cy="20" rx="19.7869" ry="20" fill="#686868"/>
<path d="M13.8004 18.374C13.3578 18.374 12.9984 18.7301 12.9984 19.1686C12.9984 19.6071 13.3578 19.9632 13.8004 19.9632C14.2431 19.9632 14.6025 19.6071 14.6025 19.1686C14.6025 18.7301 14.2431 18.374 13.8004 18.374Z" fill="white"/>
<path d="M21.7191 20.0005C22.1959 20.0005 22.5824 19.6176 22.5824 19.1453C22.5824 18.6729 22.1959 18.29 21.7191 18.29C21.2423 18.29 20.8558 18.6729 20.8558 19.1453C20.8558 19.6176 21.2423 20.0005 21.7191 20.0005Z" fill="white"/>
<path d="M28.8875 10.4795H11.8337C10.1134 10.4795 8.7196 11.8603 8.7196 13.5646V23.5911C8.7196 25.2953 10.1134 26.6762 11.8337 26.6762H17.8579L19.9062 31.4577C19.9062 31.4577 20.0475 31.8729 20.3881 31.8729C20.7287 31.8729 20.8699 31.4577 20.8699 31.4577L22.9183 26.6762H28.8859C30.6062 26.6762 32 25.2953 32 23.5911V13.5646C32 11.8603 30.6062 10.4795 28.8859 10.4795H28.8875ZM16.034 19.3429C16.0246 21.1762 14.1112 21.2275 14.1112 21.2275C13.3719 21.2275 12.9544 20.7424 12.9544 20.7424V21.072H11.5622V15.3808C11.5622 15.3808 11.5559 15.3792 11.5622 15.3777V15.3808C11.6485 15.3948 12.9544 15.3777 12.9544 15.3777V17.5546C13.2825 17.0011 14.2289 17.0104 14.2289 17.0104C16.2914 17.2001 16.034 19.3429 16.034 19.3429ZM18.4857 17.1846V21.0813H17.1217V17.2234C17.1217 16.6979 16.464 16.5532 16.464 16.5532V15.1926C18.6411 15.2797 18.4841 17.1846 18.4841 17.1846H18.4857ZM21.7175 21.2306C20.4556 21.2306 19.4322 20.2976 19.4322 19.1454C19.4322 17.9932 20.4556 17.0602 21.7175 17.0602C22.9795 17.0602 24.0029 17.9932 24.0029 19.1454C24.0029 20.2976 22.9795 21.2306 21.7175 21.2306ZM29.1873 21.2306C29.1873 21.2306 29.2061 23.2101 27.1766 23.2101H26.5582V21.9272H26.9302C26.9302 21.9272 27.7841 22.005 27.7731 20.7019C27.7731 20.7019 27.6067 21.2291 26.4091 21.2291C26.4091 21.2291 24.7123 21.1078 24.7123 19.4673V18.8453C24.7123 18.8453 24.7516 17.1441 26.6147 17.0088C26.6147 17.0088 27.3508 16.9311 27.8013 17.5344V17.1161H29.1841V21.2291L29.1873 21.2306Z" fill="white"/>
<path d="M27.0212 19.9801C27.4867 19.9801 27.8641 19.6063 27.8641 19.1451C27.8641 18.6839 27.4867 18.3101 27.0212 18.3101C26.5557 18.3101 26.1783 18.6839 26.1783 19.1451C26.1783 19.6063 26.5557 19.9801 27.0212 19.9801Z" fill="white"/>
</svg>
