<svg width="28" height="28" viewBox="0 0 28 28" fill="none" xmlns="http://www.w3.org/2000/svg">
<path d="M3.5 7H5.83333H24.5" stroke="#312E27" stroke-width="2" stroke-linecap="round" stroke-linejoin="round"/>
<path d="M22.1667 6.99967V23.333C22.1667 23.9518 21.9209 24.5453 21.4833 24.9829C21.0457 25.4205 20.4522 25.6663 19.8334 25.6663H8.16671C7.54787 25.6663 6.95438 25.4205 6.51679 24.9829C6.07921 24.5453 5.83337 23.9518 5.83337 23.333V6.99967M9.33337 6.99967V4.66634C9.33337 4.0475 9.57921 3.45401 10.0168 3.01643C10.4544 2.57884 11.0479 2.33301 11.6667 2.33301H16.3334C16.9522 2.33301 17.5457 2.57884 17.9833 3.01643C18.4209 3.45401 18.6667 4.0475 18.6667 4.66634V6.99967" stroke="#312E27" stroke-width="2" stroke-linecap="round" stroke-linejoin="round"/>
<path d="M11.6666 12.833V19.833" stroke="#312E27" stroke-width="2" stroke-linecap="round" stroke-linejoin="round"/>
<path d="M16.3334 12.833V19.833" stroke="#312E27" stroke-width="2" stroke-linecap="round" stroke-linejoin="round"/>
</svg>
