<svg width="36" height="38" viewBox="0 0 36 38" fill="none" xmlns="http://www.w3.org/2000/svg">
<path d="M13.091 11.4327C13.3659 11.9573 14.0728 12.1053 14.4 11.769C14.4 11.769 14.6684 9.45867 15.7091 8.74236C16.596 8.13367 19.2699 8.66502 19.9637 8.74236C20.6575 8.81971 20.9455 8.56749 20.9455 8.56749V11.0964C21.2728 11.4327 22.2546 11.4327 22.5819 10.4238C23.1742 9.40823 22.6015 8.36908 22.2546 7.39719V6.3883C21.7768 6.31096 21.1222 6.4253 20.6182 6.05201C19.584 5.28526 19.0833 4.96914 17.6139 5.04985C16.2753 5.12384 15.1953 6.30087 15.1953 6.30087C15.1953 6.30087 13.9026 6.47574 13.1695 7.78393C12.4397 9.09547 13.0877 11.4327 13.0877 11.4327H13.091Z" fill="#393434"/>
<path d="M12.8946 11.6075C12.672 11.6075 12.4724 11.4528 12.4167 11.2208C12.0862 9.81509 12.2695 8.35893 12.9142 7.32315C13.4444 6.46896 14.2756 5.90399 15.3164 5.68876C15.5815 5.63159 15.84 5.81319 15.8924 6.08559C15.9447 6.35798 15.7746 6.62366 15.5062 6.67746C14.724 6.83888 14.1284 7.23907 13.7389 7.86458C13.2349 8.67505 13.0975 9.83863 13.3691 10.982C13.4346 11.2544 13.2709 11.5268 13.0091 11.5907C12.9698 11.6008 12.9306 11.6042 12.8913 11.6042L12.8946 11.6075Z" fill="#252D32"/>
<path d="M22.14 7.03411C21.3644 7.03411 20.8015 6.75162 20.2059 6.44896C19.6986 6.19337 19.175 5.93106 18.419 5.77973C16.5404 5.40644 15.8531 6.41533 15.8237 6.45904C15.6731 6.68772 15.3688 6.75498 15.1462 6.60365C14.9204 6.45232 14.855 6.14629 14.999 5.91425C15.0415 5.84699 16.043 4.27986 18.6055 4.79103C19.4891 4.9659 20.1011 5.27529 20.6379 5.54432C21.1713 5.81336 21.5935 6.02523 22.14 6.02523C22.4117 6.02523 22.631 6.25054 22.631 6.52967C22.631 6.80879 22.4117 7.03411 22.14 7.03411Z" fill="#252D32"/>
<path d="M17.8397 16.7631C16.0986 16.7631 14.0728 14.9337 14.0728 12.5763V10.952C14.0728 10.3567 14.2004 9.78503 14.4393 9.30076C14.8517 8.47012 15.4964 7.96904 16.3113 7.8547C16.8186 7.78408 17.4437 7.90851 18.1015 8.03966C19.1029 8.24144 20.2353 8.46675 20.9128 7.97576C21.2989 7.69664 21.5444 7.18547 21.6557 6.42209C21.6949 6.14632 21.9437 5.96136 22.2153 5.99836C22.4837 6.03871 22.6669 6.29766 22.6277 6.57342C22.4804 7.55876 22.1269 8.28179 21.5673 8.73243C21.5869 8.78623 21.5968 8.84677 21.5968 8.91066V12.5763C21.5968 14.9337 19.5742 16.7631 17.8364 16.7631H17.8397ZM16.6353 8.8434C16.5666 8.8434 16.5011 8.84677 16.4422 8.85686C15.9546 8.92748 15.5749 9.23014 15.3098 9.76149C15.1397 10.1045 15.0513 10.5148 15.0513 10.9553V12.5796C15.0513 14.2914 16.5829 15.7576 17.8364 15.7576C19.0898 15.7576 20.6149 14.2914 20.6149 12.5796V9.19315C19.7411 9.40165 18.7495 9.20324 17.9084 9.03509C17.4306 8.93757 16.9724 8.84677 16.632 8.84677L16.6353 8.8434Z" fill="#252D32"/>
<path d="M11.0749 20.1294C10.9309 20.1294 10.7869 20.0655 10.692 19.9411C10.5218 19.7225 10.5578 19.4064 10.7706 19.2315C11.4611 18.6632 12.3415 18.189 13.536 17.7451C14.8386 17.2575 15.3851 16.9144 15.3851 16.0333V15.6365C15.3851 15.3574 15.6044 15.1321 15.876 15.1321C16.1477 15.1321 16.3669 15.3574 16.3669 15.6365V16.0333C16.3669 17.7619 14.9237 18.3 13.8731 18.6934C12.7964 19.0936 11.9815 19.5274 11.3858 20.0218C11.2942 20.0958 11.1862 20.1328 11.0782 20.1328L11.0749 20.1294Z" fill="#252D32"/>
<path d="M24.7811 20.2875C24.6666 20.2875 24.552 20.2471 24.4571 20.163C23.8353 19.6048 22.9942 19.1373 21.8029 18.6934C20.7491 18.3 19.3091 17.7619 19.3091 16.0333V15.6365C19.3091 15.3574 19.5284 15.1321 19.8 15.1321C20.0717 15.1321 20.2909 15.3574 20.2909 15.6365V16.0333C20.2909 16.9111 20.8375 17.2575 22.14 17.7451C23.4491 18.2327 24.3917 18.7607 25.1051 19.403C25.308 19.588 25.3309 19.9041 25.1509 20.116C25.0527 20.2303 24.9186 20.2875 24.7811 20.2875Z" fill="#252D32"/>
<path d="M17.8691 20.0318C16.0626 20.0318 14.6487 19.0229 14.6487 17.7349C14.6487 17.4558 14.868 17.2305 15.1397 17.2305C15.4113 17.2305 15.6306 17.4558 15.6306 17.7349C15.6306 18.3436 16.5502 19.0229 17.8691 19.0229C19.188 19.0229 20.1077 18.3436 20.1077 17.7349C20.1077 17.4558 20.3269 17.2305 20.5986 17.2305C20.8702 17.2305 21.0895 17.4558 21.0895 17.7349C21.0895 19.0229 19.6757 20.0318 17.8691 20.0318Z" fill="#252D32"/>
<path d="M22.7422 10.5114C22.7094 10.5114 22.6767 10.5114 22.644 10.5013C22.3789 10.4441 22.2087 10.1784 22.2611 9.90604C22.5033 8.69874 21.8553 7.98916 21.8291 7.96226C21.6425 7.76385 21.6458 7.44437 21.8389 7.24932C22.032 7.05426 22.3364 7.05426 22.5294 7.24932C22.572 7.29303 23.5767 8.35236 23.2265 10.1078C23.1775 10.3466 22.9745 10.5114 22.7454 10.5114H22.7422Z" fill="#252D32"/>
<path d="M11.1273 27.9111L8.83636 30.9378H32.544C33.1887 30.9378 33.7091 30.2484 33.7091 29.3976V27.9111H11.1273Z" fill="#393434"/>
<path d="M2.12726 26.566C1.85563 26.566 1.63635 26.3406 1.63635 26.0615V8.65494C1.63635 7.59225 2.47744 6.72461 3.5149 6.72461H5.39999C5.67163 6.72461 5.8909 6.94993 5.8909 7.22905C5.8909 7.50817 5.67163 7.73349 5.39999 7.73349H3.5149C3.02072 7.73349 2.61817 8.14713 2.61817 8.65494V26.0615C2.61817 26.3406 2.3989 26.566 2.12726 26.566Z" fill="#252D32"/>
<path d="M32.4851 31.2741H9.00003C8.7284 31.2741 8.50912 31.0488 8.50912 30.7696C8.50912 30.4905 8.7284 30.2652 9.00003 30.2652H32.4851C32.9793 30.2652 33.3819 29.8516 33.3819 29.3438V8.65494C33.3819 8.14713 32.9793 7.73349 32.4851 7.73349H30.9273C30.6557 7.73349 30.4364 7.50817 30.4364 7.22905C30.4364 6.94993 30.6557 6.72461 30.9273 6.72461H32.4851C33.5193 6.72461 34.3637 7.58889 34.3637 8.65494V29.3471C34.3637 30.4098 33.5226 31.2774 32.4851 31.2774V31.2741Z" fill="#252D32"/>
<path d="M14.8909 35.6594C14.8156 35.6594 14.7371 35.6426 14.6651 35.6023C14.4229 35.4745 14.3313 35.1684 14.4556 34.9229C14.8484 34.1427 15.0546 33.2684 15.0546 32.3906V31.106C15.0546 30.8269 15.2738 30.6016 15.5455 30.6016C15.8171 30.6016 16.0364 30.8269 16.0364 31.106V32.3906C16.0364 33.4298 15.7909 34.4656 15.3262 35.387C15.2378 35.5585 15.0676 35.6594 14.8909 35.6594Z" fill="#252D32"/>
<path d="M21.1091 35.6594C20.9324 35.6594 20.7589 35.5619 20.6738 35.387C20.2091 34.4656 19.9637 33.4264 19.9637 32.3906V31.106C19.9637 30.8269 20.1829 30.6016 20.4546 30.6016C20.7262 30.6016 20.9455 30.8269 20.9455 31.106V32.3906C20.9455 33.2684 21.1517 34.1461 21.5444 34.9229C21.6687 35.1718 21.5738 35.4745 21.3349 35.6023C21.2629 35.6393 21.1844 35.6594 21.1091 35.6594Z" fill="#252D32"/>
<path d="M24.0546 38H11.9455C11.6739 38 11.4546 37.7747 11.4546 37.4956V35.4778C11.4546 35.1987 11.6739 34.9734 11.9455 34.9734H16.2C16.4717 34.9734 16.691 35.1987 16.691 35.4778C16.691 35.757 16.4717 35.9823 16.2 35.9823H12.4364V36.9912H23.5637V35.9823H18.491C18.2193 35.9823 18 35.757 18 35.4778C18 35.1987 18.2193 34.9734 18.491 34.9734H24.0546C24.3262 34.9734 24.5455 35.1987 24.5455 35.4778V37.4956C24.5455 37.7747 24.3262 38 24.0546 38Z" fill="#252D32"/>
<path d="M35.5091 38.0007H0.490909C0.219273 38.0007 0 37.7752 0 37.4958C0 37.2165 0.219273 36.991 0.490909 36.991H35.5091C35.7807 36.991 36 37.2165 36 37.4958C36 37.7752 35.7807 38.0007 35.5091 38.0007Z" fill="#252D32"/>
<path d="M33.2182 28.5847H11.2909C11.0193 28.5847 10.8 28.3592 10.8 28.0798C10.8 27.8005 11.0193 27.575 11.2909 27.575H33.2182C33.4898 27.575 33.7091 27.8005 33.7091 28.0798C33.7091 28.3592 33.4898 28.5847 33.2182 28.5847Z" fill="#252D32"/>
<path d="M8.30945 20.6909L7.87745 21.2323C7.55673 21.6358 7.47164 22.1504 7.59273 22.6178L1.82291 29.8851C1.22073 30.625 1.31564 31.7213 2.03564 32.3401L2.40873 32.6596C3.12545 33.2784 4.19564 33.1808 4.79782 32.441L10.6102 25.1232C11.0684 25.1434 11.5298 24.9551 11.8407 24.5616L12.2727 24.0202L8.31273 20.6875L8.30945 20.6909Z" fill="#FFD600"/>
<path d="M3.492 33.5708C2.99781 33.5708 2.50036 33.3993 2.09127 33.0496L1.71818 32.7301C0.791997 31.9331 0.670906 30.5139 1.44654 29.5622L7.06909 22.4832C6.99709 21.9216 7.15091 21.3499 7.49781 20.9127L7.92654 20.3713C8.1 20.1561 8.40763 20.1258 8.61709 20.3007C8.82654 20.4755 8.85927 20.795 8.68582 21.0103L8.25709 21.5517C8.04763 21.814 7.97891 22.1537 8.06727 22.4866C8.10981 22.6446 8.07382 22.8094 7.97236 22.9372L2.20254 30.2045C1.77054 30.7325 1.83927 31.5161 2.34981 31.9566L2.72291 32.2761C3.23345 32.7133 3.996 32.646 4.42145 32.1214L10.2305 24.8104C10.3287 24.6859 10.4793 24.6153 10.6298 24.6254C10.9571 24.6422 11.2582 24.501 11.4611 24.2488L11.8931 23.7073C12.0665 23.4921 12.3742 23.4618 12.5836 23.6367C12.7931 23.8149 12.8225 24.1311 12.6524 24.3463L12.2204 24.8877C11.8767 25.3215 11.3858 25.5805 10.8491 25.6276L5.17745 32.7637C4.74218 33.2984 4.12036 33.5708 3.492 33.5708Z" fill="#252D32"/>
<path d="M10.1553 25.4829C10.0506 25.4829 9.94259 25.4493 9.85423 25.3753L8.59423 24.3664C8.3815 24.1949 8.34223 23.8788 8.50914 23.6568C8.67605 23.4382 8.98368 23.3979 9.19968 23.5694L10.4597 24.5782C10.6724 24.7498 10.7117 25.0659 10.5448 25.2878C10.4466 25.4156 10.3026 25.4829 10.1586 25.4829H10.1553Z" fill="#252D32"/>
<path d="M18.0131 25.5605C12.924 25.5605 8.13926 22.3253 6.30981 17.1329C3.96981 10.5079 7.31453 3.16664 13.7618 0.765504C20.2091 -1.63564 27.3567 1.80129 29.6902 8.42628C32.0269 15.0513 28.6822 22.3926 22.2349 24.7937C20.8407 25.3116 19.4138 25.5605 18.0098 25.5605H18.0131ZM17.9902 1.011C16.6974 1.011 15.3818 1.23632 14.0989 1.71722C8.1589 3.92331 5.07926 10.6862 7.22944 16.7899C9.3829 22.8903 15.9644 26.0548 21.9011 23.8454C27.8378 21.6326 30.9207 14.8697 28.7673 8.76931C27.0818 3.9872 22.6734 1.00764 17.9869 1.00764L17.9902 1.011Z" fill="#252D32"/>
</svg>
