<svg width="110" height="34" viewBox="0 0 110 34" fill="none" xmlns="http://www.w3.org/2000/svg">
<path d="M6.23721 18.1519V21.6962H9.24744V24.6582H6.23721V26.7595C6.23721 27.1139 6.25326 27.4177 6.28537 27.6709C6.33353 27.9072 6.41381 28.0928 6.52619 28.2278C6.65463 28.3629 6.8232 28.4641 7.03191 28.5316C7.24062 28.5823 7.51355 28.6076 7.85069 28.6076C8.02729 28.6076 8.22797 28.5992 8.45274 28.5823C8.69356 28.5485 8.93438 28.5148 9.1752 28.481C9.43207 28.4304 9.68092 28.3797 9.92173 28.3291C10.1626 28.2616 10.3793 28.1941 10.5719 28.1266L11.0295 30.6329C10.1947 30.9198 9.2635 31.1561 8.236 31.3418C7.20851 31.5105 6.21313 31.5949 5.24985 31.5949C2.85772 31.5949 1.66165 30.3966 1.66165 28V17.3671H1.0596C0.77062 17.3671 0.521774 17.2827 0.313064 17.1139C0.104355 16.9451 0 16.6667 0 16.2785C0 15.8903 0.104355 15.6118 0.313064 15.443C0.521774 15.2743 0.77062 15.1899 1.0596 15.1899H10.3311V18.1519H6.23721ZM9.89765 21.443H11.6797V14.1013H14.8104C15.1636 14.1013 15.4124 14.1941 15.5569 14.3797C15.7014 14.5485 15.7736 14.7848 15.7736 15.0886V33.443H11.6797V24.4051H9.89765V21.443ZM16.8573 14H19.988C20.3412 14 20.59 14.0928 20.7345 14.2785C20.879 14.4473 20.9512 14.6835 20.9512 14.9873V33.5443H16.8573V14Z" fill="#2B2B2B" fill-opacity="0.7"/>
<path d="M23.9058 23.9494C23.6168 23.9494 23.368 23.865 23.1592 23.6962C22.9505 23.5274 22.8462 23.2489 22.8462 22.8608C22.8462 22.4726 22.9505 22.1941 23.1592 22.0253C23.368 21.8565 23.6168 21.7722 23.9058 21.7722H30.8173V18.962C30.8173 18.4219 30.5524 18.1519 30.0226 18.1519H24.2911V15.1899H33.6108C34.2369 15.1899 34.6864 15.3418 34.9594 15.6456C35.2483 15.9494 35.3928 16.4641 35.3928 17.1899V24.7342H28.8666V27.0127C28.8666 27.5696 29.0192 27.9916 29.3242 28.2785C29.6292 28.5485 30.0226 28.7342 30.5042 28.8354C31.0019 28.9198 31.5638 28.9367 32.1899 28.8861C32.8161 28.8186 33.4502 28.7089 34.0924 28.557C34.7507 28.3882 35.3848 28.2025 35.9949 28C36.621 27.7975 37.1749 27.5949 37.6565 27.3924V16.1772H36.9582C36.6692 16.1772 36.4203 16.0928 36.2116 15.924C36.0029 15.7553 35.8986 15.4768 35.8986 15.0886C35.8986 14.7004 36.0029 14.4219 36.2116 14.2532C36.4203 14.0844 36.6692 14 36.9582 14H41.2688C41.622 14 41.8709 14.0928 42.0154 14.2785C42.1598 14.4473 42.2321 14.6835 42.2321 14.9873V21.6962H44.8329V24.6582H42.2321V33.5443H37.6565V30.1772C36.918 30.4473 36.0752 30.7173 35.1279 30.9873C34.1807 31.2574 33.2094 31.4684 32.214 31.6203C31.2186 31.7722 30.2473 31.8397 29.3001 31.8228C28.3529 31.8059 27.51 31.654 26.7715 31.3671C26.033 31.0633 25.431 30.5992 24.9654 29.9747C24.5159 29.3333 24.2911 28.4726 24.2911 27.3924V23.9494H23.9058Z" fill="#2B2B2B" fill-opacity="0.7"/>
<path d="M46.2462 18.0253C45.9091 18.0253 45.6843 17.9494 45.5719 17.7975C45.4596 17.6287 45.4034 17.3924 45.4034 17.0886V15.1899H58.6484V17.0886C58.6484 17.3924 58.5922 17.6287 58.4798 17.7975C58.3675 17.9494 58.1427 18.0253 57.8055 18.0253H57.2035V28.7595H58.8892V30.6582C58.8892 30.962 58.833 31.1983 58.7207 31.3671C58.6083 31.519 58.3835 31.5949 58.0464 31.5949H46.0054C45.6683 31.5949 45.4435 31.519 45.3311 31.3671C45.2187 31.1983 45.1626 30.962 45.1626 30.6582V28.7595H46.8483V18.0253H46.2462ZM60.3823 16.1772C60.0933 16.1772 59.8445 16.0928 59.6358 15.924C59.4271 15.7553 59.3227 15.4768 59.3227 15.0886C59.3227 14.7004 59.4271 14.4219 59.6358 14.2532C59.8445 14.0844 60.0933 14 60.3823 14H64.2595C64.6127 14 64.8615 14.0928 65.006 14.2785C65.1505 14.4473 65.2228 14.6835 65.2228 14.9873V33.5443H60.6472V16.1772H60.3823ZM51.183 28.7595H52.8688V18.0253H51.183V28.7595Z" fill="#2B2B2B" fill-opacity="0.7"/>
<path d="M75.5704 22.3291C75.9397 22.3291 76.3973 22.3122 76.9431 22.2785C77.505 22.2278 78.099 22.1603 78.7252 22.0759C79.3513 21.9747 79.9855 21.8565 80.6276 21.7215C81.2698 21.5865 81.8719 21.4262 82.4338 21.2405V16.1772H81.7354C81.4464 16.1772 81.1976 16.0928 80.9889 15.924C80.7802 15.7553 80.6758 15.4768 80.6758 15.0886C80.6758 14.7004 80.7802 14.4219 80.9889 14.2532C81.1976 14.0844 81.4464 14 81.7354 14H86.0461C86.3993 14 86.6481 14.0928 86.7926 14.2785C86.9371 14.4473 87.0093 14.6835 87.0093 14.9873V18.5316H89.6102V21.4937H87.0093V26.2785H82.4338V23.7468C81.8076 23.9494 81.1012 24.135 80.3146 24.3038C79.5439 24.4557 78.7412 24.5992 77.9064 24.7342C77.0876 24.8523 76.2688 24.9451 75.45 25.0127C74.6473 25.0802 73.9008 25.1139 73.2104 25.1139C72.4558 25.1139 71.8297 25.0549 71.332 24.9367C70.8343 24.8017 70.433 24.5992 70.1279 24.3291C69.839 24.0422 69.6302 23.6793 69.5018 23.2405C69.3734 22.8017 69.3092 22.2785 69.3092 21.6709V17.1139H68.4663C68.1773 17.1139 67.9285 17.0295 67.7197 16.8608C67.511 16.692 67.4067 16.4135 67.4067 16.0253C67.4067 15.6371 67.511 15.3586 67.7197 15.1899C67.9285 15.0211 68.1773 14.9367 68.4663 14.9367H79.3754V17.8987H73.8847V20.9367C73.8847 21.2405 73.9088 21.4852 73.957 21.6709C74.0051 21.8397 74.0854 21.9747 74.1978 22.0759C74.3262 22.1772 74.5028 22.2447 74.7276 22.2785C74.9523 22.3122 75.2333 22.3291 75.5704 22.3291ZM80.9648 28.4557C80.9648 29.1646 81.1655 29.7046 81.5668 30.0759C81.9842 30.4304 82.514 30.6582 83.1562 30.7595C83.7984 30.8439 84.5209 30.8186 85.3236 30.6835C86.1263 30.5316 86.921 30.3122 87.7077 30.0253L88.1893 32.7595C87.8522 32.9451 87.4187 33.1139 86.8889 33.2658C86.3591 33.4346 85.7812 33.5612 85.155 33.6456C84.545 33.7468 83.9028 33.789 83.2285 33.7722C82.5702 33.7553 81.9281 33.6624 81.3019 33.4937C80.6758 33.3418 80.0978 33.097 79.568 32.7595C79.0382 32.4219 78.5967 31.9747 78.2435 31.4177C77.7619 31.8903 77.216 32.2869 76.606 32.6076C75.9959 32.9451 75.3457 33.2152 74.6553 33.4177C73.965 33.6203 73.2506 33.7637 72.512 33.8481C71.7896 33.9494 71.0752 34 70.3688 34L69.5741 31.0633C70.5855 31.0127 71.5086 30.9198 72.3435 30.7848C73.1783 30.6498 73.8927 30.4388 74.4868 30.1519C75.0808 29.865 75.5383 29.4852 75.8594 29.0127C76.1966 28.5401 76.3651 27.9494 76.3651 27.2405V25.8481H80.0015C80.3547 25.8481 80.6036 25.9409 80.748 26.1266C80.8925 26.2954 80.9648 26.5316 80.9648 26.8354V28.4557Z" fill="#2B2B2B" fill-opacity="0.7"/>
<path d="M100.777 14.9367C101.306 14.9367 101.732 15.0717 102.053 15.3418C102.39 15.5949 102.559 16.1266 102.559 16.9367V17.2405C102.559 17.8312 102.47 18.4304 102.294 19.038H105.424V16.1772H104.726C104.437 16.1772 104.188 16.0928 103.98 15.924C103.771 15.7553 103.666 15.4768 103.666 15.0886C103.666 14.7004 103.771 14.4219 103.98 14.2532C104.188 14.0844 104.437 14 104.726 14H109.037C109.39 14 109.639 14.0928 109.783 14.2785C109.928 14.4473 110 14.6835 110 14.9873V25.2658H105.424V22H101.74V20.3797C100.953 21.7806 99.6689 22.9536 97.8868 23.8987C96.1048 24.827 93.9133 25.4093 91.3125 25.6456L90.5659 23.0127C91.6898 22.8608 92.6932 22.6413 93.5762 22.3544C94.4752 22.0506 95.2298 21.6709 95.8399 21.2152L91.2161 21.5443V18.8354H97.5497C97.5978 18.7004 97.6299 18.557 97.646 18.4051C97.6781 18.2363 97.7022 18.0675 97.7182 17.8987H91.457V14.9367H100.777ZM92.8296 26.2532H110V33.7975H95.1415C94.6759 33.7975 94.2906 33.7553 93.9855 33.6709C93.6966 33.5865 93.4638 33.4515 93.2872 33.2658C93.1106 33.097 92.9902 32.8692 92.926 32.5823C92.8617 32.3122 92.8296 31.9747 92.8296 31.5696V26.2532ZM105.424 29.2152H97.4052V30.3797C97.4052 30.5654 97.4373 30.692 97.5015 30.7595C97.5657 30.8101 97.6861 30.8354 97.8627 30.8354H105.424V29.2152Z" fill="#2B2B2B" fill-opacity="0.7"/>
<path d="M2.12364 4.75717H4.37092V3.86313H2.12364V2.08609H4.80221V1.16998H1V7.68212H1.68099C3.23593 7.68212 4.20067 7.64901 5.35836 7.45033L5.25621 6.52318C4.24607 6.69978 3.38348 6.74393 2.12364 6.75497V4.75717ZM6.19825 3.73068H4.88166V4.66887H6.19825V9.51435H7.29919V0.231788H6.19825V3.73068ZM8.28663 0.0110381V9.97793H9.41026V0.0110381H8.28663Z" fill="#2B2B2B" fill-opacity="0.7"/>
<path d="M12.6668 4.61369H16.1739V0.905077H11.4864V1.83223H15.0162V3.69757H11.5091V7.63797H12.349C14.2444 7.63797 15.6178 7.57174 17.1954 7.29581L17.0706 6.36865C15.6291 6.62252 14.3466 6.68874 12.6668 6.69978V4.61369ZM20.6344 3.89625H19.0568V0H17.8764V10H19.0568V4.84547H20.6344V3.89625Z" fill="#2B2B2B" fill-opacity="0.7"/>
<path d="M23.9477 1.94261H25.4118V6.60044C24.9238 6.62252 24.4244 6.63355 23.9477 6.65563V1.94261ZM26.5468 1.94261H27.5683V1.02649H21.7912V1.94261H22.8127V6.65563C22.3587 6.66667 21.9161 6.66667 21.5188 6.66667L21.6437 7.60486C23.505 7.60486 25.9226 7.57174 28.1131 7.21854L28.045 6.37969C27.557 6.43488 27.0576 6.49007 26.5468 6.52318V1.94261ZM28.8281 0.0220754V10H29.9972V0.0220754H28.8281Z" fill="#2B2B2B" fill-opacity="0.7"/>
<path d="M43.8047 4.88963H42.3746C42.6356 3.47682 42.6356 2.43929 42.6356 1.5011V0.629139H35.6441V1.54525H41.4893C41.4893 2.46137 41.4893 3.4989 41.1942 4.88963H34.5318V5.82782H38.5383V9.98896H39.7187V5.82782H43.8047V4.88963Z" fill="#2B2B2B" fill-opacity="0.7"/>
<path d="M53.4171 0.0220754H52.2481V7.26269H53.4171V0.0220754ZM46.3121 3.17881C46.3121 2.26269 46.9818 1.66667 47.8897 1.66667C48.7864 1.66667 49.4674 2.26269 49.4674 3.17881C49.4674 4.08389 48.7864 4.69095 47.8897 4.69095C46.9818 4.69095 46.3121 4.08389 46.3121 3.17881ZM50.6024 3.17881C50.6024 1.72185 49.4333 0.684327 47.8897 0.684327C46.3462 0.684327 45.1658 1.72185 45.1658 3.17881C45.1658 4.62472 46.3462 5.67329 47.8897 5.67329C49.4333 5.67329 50.6024 4.62472 50.6024 3.17881ZM47.9011 8.87417V6.53422H46.7207V9.80132H53.7122V8.87417H47.9011Z" fill="#2B2B2B" fill-opacity="0.7"/>
<path d="M64.6867 4.88963H63.2566C63.5176 3.47682 63.5176 2.43929 63.5176 1.5011V0.629139H56.5261V1.54525H62.3713C62.3713 2.46137 62.3713 3.4989 62.0762 4.88963H55.4138V5.82782H59.4203V9.98896H60.6007V5.82782H64.6867V4.88963Z" fill="#2B2B2B" fill-opacity="0.7"/>
<path d="M72.1767 4.75717C70.5991 4.26049 69.6684 3.03532 69.6684 1.766V1.57837H71.8589V0.662252H66.2521V1.57837H68.4767V1.766C68.4767 3.11258 67.5573 4.40397 65.9343 4.93378L66.5472 5.82782C67.773 5.40839 68.6356 4.58057 69.0896 3.52097C69.5435 4.50331 70.4061 5.27594 71.5865 5.64018L72.1767 4.75717ZM67.3871 7.45033H73.1301V9.98896H74.2991V6.53422H67.3871V7.45033ZM73.1301 0.0110381V6.03753H74.2991V0.0110381H73.1301Z" fill="#2B2B2B" fill-opacity="0.7"/>
<path d="M84.6449 2.79249H82.2841V1.18102H84.6449V2.79249ZM81.1151 2.79249H79.7191V3.65342H87.1986V2.79249H85.814V1.18102H87.2554V0.309051H79.6623V1.18102H81.1151V2.79249ZM81.1151 8.30022H86.949V5.98234H79.9347V6.82119H85.8026V7.51656H79.9574V9.90066H87.244V9.05077H81.1151V8.30022ZM78.8338 4.34879V5.25386H88.118V4.34879H78.8338Z" fill="#2B2B2B" fill-opacity="0.7"/>
<path d="M95.7102 3.46578H96.8452V6.76601H97.9575V0.0220754H96.8452V2.53863H95.7102V0.209714H94.6206V5.92715H95.7102V3.46578ZM94.0644 4.62472C93.0089 4.83444 92.0782 4.88963 90.8524 4.90066V3.66446H93.5764V0.772627H89.6947V1.66667H92.4414V2.81457H89.7174V5.81678H90.4098C91.908 5.81678 92.9522 5.76159 94.1779 5.5298L94.0644 4.62472ZM95.0746 6.3245H93.9055V6.54525C93.9055 7.72627 92.5095 8.80795 90.5346 9.07285L90.9886 9.95585C92.5776 9.70199 93.8601 8.98455 94.4957 7.98013C95.1313 8.98455 96.4139 9.70199 98.0029 9.95585L98.4568 9.07285C96.482 8.80795 95.0746 7.72627 95.0746 6.54525V6.3245Z" fill="#2B2B2B" fill-opacity="0.7"/>
<path d="M101.986 7.58278H106.719V8.96247H101.986V7.58278ZM100.828 9.86755H107.865V6.6777H100.828V9.86755ZM103.166 1.22517H105.527V3.0574H103.166V1.22517ZM104.937 4.95585V3.97351H108.081V3.0574H106.696V1.22517H108.137V0.309051H100.544V1.22517H101.997V3.0574H100.601V3.97351H103.756V4.95585H99.7044V5.86093H109V4.95585H104.937Z" fill="#2B2B2B" fill-opacity="0.7"/>
</svg>
