<svg width="50" height="50" viewBox="0 0 50 50" fill="none" xmlns="http://www.w3.org/2000/svg">
<g clip-path="url(#clip0_19_263)">
<path d="M14.9863 9.08569V11.9809H29.8881L36.7121 15.8569V25.7333L40.2737 23.2V9.08569H14.9863Z" fill="#FFD600"/>
<path d="M36.534 46.0001H10.5342C10.2386 46.0001 10 45.7576 10 45.4572V12.162C10 11.8616 10.2386 11.6191 10.5342 11.6191H29.8738C29.9629 11.6191 30.0483 11.6409 30.1267 11.6843L36.7869 15.3106C36.9614 15.4047 37.0683 15.5892 37.0683 15.7883V25.5525C37.0683 25.8529 36.8297 26.0953 36.534 26.0953C36.2384 26.0953 35.9998 25.8529 35.9998 25.5525V16.114L29.7385 12.7049H11.0685V44.9144H35.9998V36.7715C35.9998 36.4711 36.2384 36.2287 36.534 36.2287C36.8297 36.2287 37.0683 36.4711 37.0683 36.7715V45.4572C37.0683 45.7576 36.8297 46.0001 36.534 46.0001Z" fill="#393434"/>
<path d="M30.782 18.7559C30.5755 18.7559 30.3831 18.6329 30.2941 18.4338L28.7733 14.9523C28.6522 14.6772 28.7733 14.3588 29.044 14.2357C29.3146 14.1127 29.6281 14.2357 29.7492 14.5108L31.0705 17.5327L35.9321 15.7666C36.2099 15.6652 36.5162 15.8136 36.616 16.0959C36.7157 16.3782 36.5697 16.6894 36.2918 16.7908L30.9637 18.7233C30.9031 18.7451 30.8426 18.7559 30.7856 18.7559H30.782Z" fill="#393434"/>
<path d="M40.0957 23.2C39.8 23.2 39.5614 22.9575 39.5614 22.6571V9.08571H14.8082C14.5126 9.08571 14.2739 8.84324 14.2739 8.54286C14.2739 8.24248 14.5126 8 14.8082 8H40.0957C40.3913 8 40.6299 8.24248 40.6299 8.54286V22.6571C40.6299 22.9575 40.3913 23.2 40.0957 23.2Z" fill="#393434"/>
<path d="M26.2837 36.1743L28.5026 39.16L42.2291 29.1172L40.3485 26.2039L26.2837 36.1743Z" fill="#393434"/>
<path d="M24.2572 40.4917C24.0862 40.4917 23.9224 40.4085 23.8226 40.2637C23.7087 40.1045 23.6909 39.891 23.7763 39.7136L25.5108 36.0222C25.55 35.939 25.6106 35.8666 25.6854 35.8123L40.0529 25.4546C40.2915 25.2809 40.6263 25.3388 40.7973 25.5813L43.0625 28.7986C43.1444 28.9144 43.1765 29.0628 43.1551 29.2039C43.1302 29.3451 43.0518 29.4717 42.9378 29.555L28.5738 39.9127C28.499 39.967 28.4171 39.9995 28.3281 40.0104L24.3284 40.4845C24.307 40.4845 24.2856 40.4845 24.2678 40.4845L24.2572 40.4917ZM26.4155 36.6157L25.1547 39.2938L28.0574 38.95L41.8729 28.9904L40.231 26.6561L26.4119 36.6194L26.4155 36.6157Z" fill="#393434"/>
<path d="M42.8737 29.4501C42.6778 29.4501 42.4891 29.3415 42.3965 29.1533C42.2647 28.8855 42.368 28.5598 42.6315 28.4223C42.9093 28.2775 43.6822 27.7563 43.8817 27.1122C43.9707 26.8226 43.9351 26.5295 43.7748 26.2219C43.5255 25.7478 43.2263 25.4872 42.8595 25.4293C42.0617 25.3026 41.0324 26.1133 40.7332 26.4101C40.5231 26.62 40.1847 26.6127 39.9781 26.3992C39.7716 26.1857 39.7787 25.8383 39.9888 25.632C40.1455 25.4763 41.5666 24.1228 43.0269 24.3617C43.5148 24.4413 44.2093 24.7381 44.7186 25.7188C45.0178 26.2906 45.0784 26.8733 44.9003 27.4523C44.5228 28.6647 43.1729 29.3704 43.1159 29.3994C43.0376 29.4392 42.9556 29.4573 42.8737 29.4573V29.4501Z" fill="#393434"/>
<path d="M20.8629 17.7715H14.8082C14.5126 17.7715 14.2739 17.529 14.2739 17.2286C14.2739 16.9283 14.5126 16.6858 14.8082 16.6858H20.8629C21.1585 16.6858 21.3972 16.9283 21.3972 17.2286C21.3972 17.529 21.1585 17.7715 20.8629 17.7715Z" fill="#393434"/>
<path d="M20.8629 40.5713H14.8082C14.5126 40.5713 14.2739 40.3288 14.2739 40.0285C14.2739 39.7281 14.5126 39.4856 14.8082 39.4856H20.8629C21.1585 39.4856 21.3972 39.7281 21.3972 40.0285C21.3972 40.3288 21.1585 40.5713 20.8629 40.5713Z" fill="#393434"/>
<path d="M22.9999 36.5906H14.8082C14.5126 36.5906 14.2739 36.3481 14.2739 36.0477C14.2739 35.7474 14.5126 35.5049 14.8082 35.5049H22.9999C23.2955 35.5049 23.5341 35.7474 23.5341 36.0477C23.5341 36.3481 23.2955 36.5906 22.9999 36.5906Z" fill="#393434"/>
<path d="M32.2601 21.7525H28.3815C28.0859 21.7525 27.8473 21.51 27.8473 21.2096C27.8473 20.9092 28.0859 20.6667 28.3815 20.6667H32.2601C32.5557 20.6667 32.7943 20.9092 32.7943 21.2096C32.7943 21.51 32.5557 21.7525 32.2601 21.7525Z" fill="#393434"/>
<path d="M25.3221 21.7525H14.8082C14.5126 21.7525 14.2739 21.51 14.2739 21.2096C14.2739 20.9092 14.5126 20.6667 14.8082 20.6667H25.3221C25.6177 20.6667 25.8563 20.9092 25.8563 21.2096C25.8563 21.51 25.6177 21.7525 25.3221 21.7525Z" fill="#393434"/>
<path d="M32.2601 25.7334H20.9021C20.6065 25.7334 20.3679 25.4909 20.3679 25.1906C20.3679 24.8902 20.6065 24.6477 20.9021 24.6477H32.2601C32.5557 24.6477 32.7943 24.8902 32.7943 25.1906C32.7943 25.4909 32.5557 25.7334 32.2601 25.7334Z" fill="#393434"/>
<path d="M17.8427 25.7334H14.8082C14.5126 25.7334 14.2739 25.4909 14.2739 25.1906C14.2739 24.8902 14.5126 24.6477 14.8082 24.6477H17.8427C18.1383 24.6477 18.3769 24.8902 18.3769 25.1906C18.3769 25.4909 18.1383 25.7334 17.8427 25.7334Z" fill="#393434"/>
<path d="M32.2601 29.7144H14.8082C14.5126 29.7144 14.2739 29.4719 14.2739 29.1715C14.2739 28.8711 14.5126 28.6287 14.8082 28.6287H32.2601C32.5557 28.6287 32.7943 28.8711 32.7943 29.1715C32.7943 29.4719 32.5557 29.7144 32.2601 29.7144Z" fill="#393434"/>
</g>
<defs>
<clipPath id="clip0_19_263">
<rect width="35" height="38" fill="white" transform="translate(10 8)"/>
</clipPath>
</defs>
</svg>
