<svg width="50" height="50" viewBox="0 0 50 50" fill="none" xmlns="http://www.w3.org/2000/svg">
<path d="M2.7731 42.3264V42.5762C2.7731 44.2623 4.21108 45.6325 5.98924 45.6325H44.0107C45.785 45.6325 47.2269 44.266 47.2269 42.5762V42.3264H2.7731Z" fill="#FFD600"/>
<path d="M44.204 46.0002H5.79597C3.70471 46.0002 2 44.3839 2 42.3929V42.1431C2 41.8382 2.25899 41.592 2.57983 41.592H47.4202C47.741 41.592 48 41.8382 48 42.1431V42.3929C48 44.3802 46.2992 46.0002 44.204 46.0002ZM3.17899 42.6941C3.33748 43.9357 4.45076 44.8982 5.79597 44.8982H44.204C45.5492 44.8982 46.6625 43.9357 46.821 42.6941H3.17899Z" fill="#252D32"/>
<path d="M4.5126 40.4899C4.19176 40.4899 3.93277 40.2438 3.93277 39.9389V16.9981C3.93277 15.7711 4.9842 14.7756 6.27143 14.7756H7.21848C7.53932 14.7756 7.79832 15.0218 7.79832 15.3267C7.79832 15.6316 7.53932 15.8777 7.21848 15.8777H6.27143C5.62201 15.8777 5.09243 16.3809 5.09243 16.9981V39.9389C5.09243 40.2438 4.83344 40.4899 4.5126 40.4899Z" fill="#252D32"/>
<path d="M45.4874 40.4899C45.1665 40.4899 44.9075 40.2438 44.9075 39.9389V16.9981C44.9075 16.3809 44.378 15.8777 43.7286 15.8777H42.3949C42.0741 15.8777 41.8151 15.6316 41.8151 15.3267C41.8151 15.0218 42.0741 14.7756 42.3949 14.7756H43.7286C45.0196 14.7756 46.0672 15.7748 46.0672 16.9981V39.9389C46.0672 40.2438 45.8082 40.4899 45.4874 40.4899Z" fill="#252D32"/>
<path d="M40.4622 42.3265C40.1413 42.3265 39.8823 42.0804 39.8823 41.7755V11.102H10.1176V41.4082C10.1176 41.7131 9.85865 41.9592 9.53781 41.9592C9.21697 41.9592 8.95798 41.7131 8.95798 41.4082V10.551C8.95798 10.2461 9.21697 10 9.53781 10H40.4622C40.783 10 41.042 10.2461 41.042 10.551V41.7755C41.042 42.0804 40.783 42.3265 40.4622 42.3265Z" fill="#252D32"/>
<path d="M19.1051 19.8669L17.2689 18.0559L15.4328 19.8669L13.5966 21.6779H14.3698V25.4286H20.1681V21.6779H20.9412L19.1051 19.8669ZM18.2353 23.9592H16.3025V22.1224H18.2353V23.9592Z" fill="#393434"/>
<path d="M19.1051 31.2546L17.2689 29.4436L15.4328 31.2546L13.5966 33.0656H14.3698V36.8163H20.1681V33.0656H20.9412L19.1051 31.2546ZM18.2353 35.3469H16.3025V33.5101H18.2353V35.3469Z" fill="#393434"/>
<path d="M30.4118 21.7551H24.6134C24.2926 21.7551 24.0336 21.509 24.0336 21.2041C24.0336 20.8992 24.2926 20.6531 24.6134 20.6531H30.4118C30.7326 20.6531 30.9916 20.8992 30.9916 21.2041C30.9916 21.509 30.7326 21.7551 30.4118 21.7551Z" fill="#252D32"/>
<path d="M34.2773 25.4287H24.6134C24.2926 25.4287 24.0336 25.1826 24.0336 24.8777C24.0336 24.5728 24.2926 24.3267 24.6134 24.3267H34.2773C34.5982 24.3267 34.8571 24.5728 34.8571 24.8777C34.8571 25.1826 34.5982 25.4287 34.2773 25.4287Z" fill="#252D32"/>
<path d="M28.8655 33.1428H24.6134C24.2926 33.1428 24.0336 32.8967 24.0336 32.5918C24.0336 32.2869 24.2926 32.0408 24.6134 32.0408H28.8655C29.1864 32.0408 29.4454 32.2869 29.4454 32.5918C29.4454 32.8967 29.1864 33.1428 28.8655 33.1428Z" fill="#252D32"/>
<path d="M34.2773 36.8164H24.6134C24.2926 36.8164 24.0336 36.5703 24.0336 36.2654C24.0336 35.9605 24.2926 35.7144 24.6134 35.7144H34.2773C34.5982 35.7144 34.8571 35.9605 34.8571 36.2654C34.8571 36.5703 34.5982 36.8164 34.2773 36.8164Z" fill="#252D32"/>
<path d="M37.3697 15.51H35.8235C35.5027 15.51 35.2437 15.2639 35.2437 14.959C35.2437 14.6541 35.5027 14.408 35.8235 14.408H37.3697C37.6906 14.408 37.9496 14.6541 37.9496 14.959C37.9496 15.2639 37.6906 15.51 37.3697 15.51ZM33.5042 15.51H31.958C31.6371 15.51 31.3781 15.2639 31.3781 14.959C31.3781 14.6541 31.6371 14.408 31.958 14.408H33.5042C33.825 14.408 34.084 14.6541 34.084 14.959C34.084 15.2639 33.825 15.51 33.5042 15.51ZM29.6386 15.51H28.0924C27.7716 15.51 27.5126 15.2639 27.5126 14.959C27.5126 14.6541 27.7716 14.408 28.0924 14.408H29.6386C29.9595 14.408 30.2185 14.6541 30.2185 14.959C30.2185 15.2639 29.9595 15.51 29.6386 15.51ZM25.7731 15.51H24.2269C23.906 15.51 23.6471 15.2639 23.6471 14.959C23.6471 14.6541 23.906 14.408 24.2269 14.408H25.7731C26.0939 14.408 26.3529 14.6541 26.3529 14.959C26.3529 15.2639 26.0939 15.51 25.7731 15.51ZM21.9076 15.51H20.3613C20.0405 15.51 19.7815 15.2639 19.7815 14.959C19.7815 14.6541 20.0405 14.408 20.3613 14.408H21.9076C22.2284 14.408 22.4874 14.6541 22.4874 14.959C22.4874 15.2639 22.2284 15.51 21.9076 15.51ZM18.042 15.51H16.4958C16.175 15.51 15.916 15.2639 15.916 14.959C15.916 14.6541 16.175 14.408 16.4958 14.408H18.042C18.3629 14.408 18.6218 14.6541 18.6218 14.959C18.6218 15.2639 18.3629 15.51 18.042 15.51ZM14.1765 15.51H12.6302C12.3094 15.51 12.0504 15.2639 12.0504 14.959C12.0504 14.6541 12.3094 14.408 12.6302 14.408H14.1765C14.4973 14.408 14.7563 14.6541 14.7563 14.959C14.7563 15.2639 14.4973 15.51 14.1765 15.51Z" fill="#252D32"/>
<path d="M34.2773 33.1428H32.3445C32.0237 33.1428 31.7647 32.8967 31.7647 32.5918C31.7647 32.2869 32.0237 32.0408 32.3445 32.0408H34.2773C34.5981 32.0408 34.8571 32.2869 34.8571 32.5918C34.8571 32.8967 34.5981 33.1428 34.2773 33.1428Z" fill="#252D32"/>
</svg>
