<svg width="40" height="40" viewBox="0 0 40 40" fill="none" xmlns="http://www.w3.org/2000/svg">
<ellipse cx="19.9344" cy="20" rx="19.7869" ry="20" fill="#686868"/>
<g clip-path="url(#clip0_54_2844)">
<path d="M24.6282 9.41162H15.2407C12.0524 9.41162 9.45905 12.0331 9.45905 15.2557V24.7442C9.45905 27.9668 12.0524 30.5881 15.2407 30.5881H24.6282C27.8165 30.5881 30.4099 27.9661 30.4099 24.7442V15.2557C30.4099 12.0331 27.8165 9.41162 24.6282 9.41162ZM28.551 24.7442C28.551 26.9307 26.7914 28.7092 24.6282 28.7092H15.2407C13.0775 28.7092 11.3179 26.9307 11.3179 24.7442V15.2557C11.3179 13.0692 13.0775 11.2905 15.2407 11.2905H24.6282C26.7914 11.2905 28.551 13.0692 28.551 15.2557V24.7442Z" fill="white"/>
<path d="M19.9345 14.5439C16.9574 14.5439 14.5358 16.9916 14.5358 20C14.5358 23.0083 16.9574 25.4569 19.9345 25.4569C22.9116 25.4569 25.3332 23.0092 25.3332 20C25.3332 16.9908 22.9109 14.5439 19.9345 14.5439ZM19.9345 23.5774C17.983 23.5774 16.3946 21.9732 16.3946 20C16.3946 18.0268 17.9824 16.4222 19.9345 16.4222C21.8865 16.4222 23.4743 18.0276 23.4743 20C23.4743 21.9724 21.886 23.5774 19.9345 23.5774Z" fill="white"/>
<path d="M25.5594 12.9507C25.2011 12.9507 24.8494 13.0969 24.5967 13.3537C24.3419 13.6094 24.1961 13.9653 24.1961 14.3287C24.1961 14.692 24.3425 15.046 24.5967 15.3028C24.849 15.5585 25.2011 15.706 25.5594 15.706C25.9177 15.706 26.2691 15.5585 26.5232 15.3028C26.7774 15.046 26.9226 14.69 26.9226 14.3287C26.9226 13.9674 26.7774 13.6094 26.5232 13.3537C26.2702 13.0969 25.9188 12.9507 25.5594 12.9507Z" fill="white"/>
</g>
<defs>
<clipPath id="clip0_54_2844">
<rect width="20.9508" height="21.1765" fill="white" transform="translate(9.45905 9.41162)"/>
</clipPath>
</defs>
</svg>
