<svg width="182" height="35" viewBox="0 0 182 35" fill="none" xmlns="http://www.w3.org/2000/svg">
<path d="M1.42338 33.79C0.863375 33.79 0.583375 33.496 0.583375 32.908L1.42338 9.514C1.42338 9.262 1.50738 9.066 1.67538 8.926C1.84338 8.758 2.05338 8.674 2.30538 8.674H7.72338C8.25538 8.674 8.52138 8.954 8.52138 9.514L8.35338 14.344H13.6034C14.1914 14.344 14.4854 14.638 14.4854 15.226V19.384C14.4854 19.944 14.1914 20.224 13.6034 20.224H8.14338L7.89138 27.784H15.4514C15.9834 27.784 16.2494 28.064 16.2494 28.624V32.908C16.2494 33.496 15.9834 33.79 15.4514 33.79H1.42338ZM18.6014 20.686H16.6694C16.1374 20.686 15.8714 20.406 15.8714 19.846V14.302C15.8714 13.714 16.1374 13.42 16.6694 13.42H18.6014V1.702C18.6014 1.114 18.8814 0.819999 19.4414 0.819999H24.1034C24.6634 0.819999 24.9434 1.114 24.9434 1.702V33.58C24.9434 34.14 24.6634 34.42 24.1034 34.42H19.4414C18.8814 34.42 18.6014 34.14 18.6014 33.58V20.686ZM27.0014 1.45C27.0014 0.861998 27.2814 0.567997 27.8414 0.567997H32.5034C33.0634 0.567997 33.3434 0.861998 33.3434 1.45V34C33.3434 34.56 33.0634 34.84 32.5034 34.84H27.8414C27.2814 34.84 27.0014 34.56 27.0014 34V1.45ZM0.163375 2.248C0.163375 1.688 0.457375 1.408 1.04538 1.408H14.9054C15.4654 1.408 15.7454 1.688 15.7454 2.248V6.532C15.7454 7.12 15.4654 7.414 14.9054 7.414H1.04538C0.457375 7.414 0.163375 7.12 0.163375 6.532V2.248ZM38.5435 34.21C37.9555 34.21 37.6615 33.93 37.6615 33.37V15.52C37.6615 14.96 37.9555 14.68 38.5435 14.68H50.3455V7.414H38.4595C37.8715 7.414 37.5775 7.134 37.5775 6.574V2.248C37.5775 1.688 37.8715 1.408 38.4595 1.408H57.2335C57.8215 1.408 58.1155 1.688 58.1155 2.248V19.636C58.1155 20.196 57.8215 20.476 57.2335 20.476H45.3895V28.204H49.0435C51.4235 28.204 53.7195 28.022 55.9315 27.658C58.1435 27.266 60.0475 26.664 61.6435 25.852V1.45C61.6435 0.861998 61.9375 0.567997 62.5255 0.567997H68.5315C69.1195 0.567997 69.4135 0.861998 69.4135 1.45V13.042H71.5975C72.1575 13.042 72.4375 13.336 72.4375 13.924V19.51C72.4375 20.07 72.1575 20.35 71.5975 20.35H69.4135V34C69.4135 34.56 69.1195 34.84 68.5315 34.84H62.5255C61.9375 34.84 61.6435 34.56 61.6435 34V31.354C60.2435 32.25 58.3675 32.95 56.0155 33.454C53.6915 33.958 51.0875 34.21 48.2035 34.21H38.5435ZM74.2776 28.834C74.2776 28.274 74.5716 27.994 75.1596 27.994H76.5036V9.682C76.5036 9.43 76.5876 9.234 76.7556 9.094C76.9236 8.926 77.1336 8.842 77.3856 8.842H82.6776C83.2096 8.842 83.4756 9.122 83.4756 9.682V27.994H86.2476L87.2136 9.682C87.2136 9.43 87.2976 9.234 87.4656 9.094C87.6336 8.926 87.8436 8.842 88.0956 8.842H93.3036C93.8356 8.842 94.1016 9.122 94.1016 9.682L93.0516 27.994H95.7396C96.3276 27.994 96.6216 28.274 96.6216 28.834V33.37C96.6216 33.93 96.3276 34.21 95.7396 34.21H75.1596C74.5716 34.21 74.2776 33.93 74.2776 33.37V28.834ZM100.402 34.84C99.8136 34.84 99.5196 34.56 99.5196 34V1.45C99.5196 0.861998 99.8136 0.567997 100.402 0.567997H106.408C106.996 0.567997 107.29 0.861998 107.29 1.45V34C107.29 34.56 106.996 34.84 106.408 34.84H100.402ZM74.4036 2.248C74.4036 1.688 74.6976 1.408 75.2856 1.408H95.5296C96.1176 1.408 96.4116 1.688 96.4116 2.248V6.784C96.4116 7.344 96.1176 7.624 95.5296 7.624H75.2856C74.6976 7.624 74.4036 7.344 74.4036 6.784V2.248ZM119.084 8.296C119.7 8.296 119.994 8.59 119.966 9.178L119.546 13.588H123.2C125.552 13.588 127.834 13.476 130.046 13.252C132.286 13.028 134.204 12.608 135.8 11.992V1.45C135.8 0.861998 136.094 0.567997 136.682 0.567997H142.688C143.276 0.567997 143.57 0.861998 143.57 1.45V8.128H145.544C146.104 8.128 146.384 8.422 146.384 9.01V13.924C146.384 14.484 146.104 14.764 145.544 14.764H143.57V21.778C143.57 22.338 143.276 22.618 142.688 22.618H136.682C136.094 22.618 135.8 22.338 135.8 21.778V17.494C134.4 18.166 132.524 18.684 130.172 19.048C127.848 19.384 125.244 19.552 122.36 19.552H112.7C112.42 19.552 112.196 19.482 112.028 19.342C111.86 19.202 111.79 18.978 111.818 18.67L112.826 9.094C112.882 8.562 113.176 8.296 113.708 8.296H119.084ZM111.86 29.17C111.86 28.61 112.154 28.33 112.742 28.33H119.252L124.376 22.576C124.684 22.296 125.09 22.156 125.594 22.156H133.28C133.616 22.156 133.826 22.282 133.91 22.534C133.994 22.786 133.91 23.024 133.658 23.248L123.914 34.21C123.606 34.49 123.2 34.63 122.696 34.63H115.01H114.884H112.742C112.154 34.63 111.86 34.35 111.86 33.79V29.17ZM111.398 2.038C111.398 1.478 111.692 1.198 112.28 1.198H131.768C132.356 1.198 132.65 1.478 132.65 2.038V6.196C132.65 6.756 132.356 7.036 131.768 7.036H112.28C111.692 7.036 111.398 6.756 111.398 6.196V2.038ZM129.416 31.228C128.996 30.864 128.982 30.458 129.374 30.01L133.196 25.684C133.588 25.292 133.994 25.292 134.414 25.684L137.312 28.33H143.276C143.864 28.33 144.158 28.61 144.158 29.17V33.79C144.158 34.35 143.864 34.63 143.276 34.63H133.91C133.658 34.63 133.434 34.588 133.238 34.504C133.07 34.448 132.888 34.35 132.692 34.21L129.416 31.228ZM150.366 19.174C149.806 19.174 149.526 18.894 149.526 18.334V15.184C149.526 14.68 149.806 14.4 150.366 14.344C152.466 14.204 154.314 13.966 155.91 13.63C157.534 13.266 158.864 12.622 159.9 11.698L149.4 12.034C148.812 12.034 148.518 11.754 148.518 11.194V8.506C148.518 7.946 148.812 7.666 149.4 7.666H161.958C162.07 7.134 162.126 6.476 162.126 5.692H149.736C149.176 5.692 148.896 5.412 148.896 4.852V1.828C148.896 1.268 149.176 0.987999 149.736 0.987999H169.266C169.854 0.987999 170.148 1.282 170.148 1.87V5.314C170.148 5.622 170.134 5.916 170.106 6.196C170.106 6.448 170.092 6.7 170.064 6.952H173.676V1.45C173.676 0.861998 173.97 0.567997 174.558 0.567997H180.564C181.152 0.567997 181.446 0.861998 181.446 1.45V18.166C181.446 18.726 181.152 19.006 180.564 19.006H174.558C173.97 19.006 173.676 18.726 173.676 18.166V13.588H170.064C169.504 13.588 169.224 13.308 169.224 12.748V10.438C168.552 12.118 167.558 13.518 166.242 14.638C164.954 15.758 163.47 16.654 161.79 17.326C160.11 17.998 158.29 18.474 156.33 18.754C154.37 19.034 152.382 19.174 150.366 19.174ZM150.492 21.988C150.492 21.4 150.772 21.106 151.332 21.106H180.564C181.152 21.106 181.446 21.386 181.446 21.946V33.79C181.446 34.35 181.152 34.63 180.564 34.63H151.374C150.786 34.63 150.492 34.35 150.492 33.79V21.988ZM158.43 26.23V29.548H173.466V26.23H158.43Z" fill="black"/>
</svg>
