<svg width="50" height="50" viewBox="0 0 50 50" fill="none" xmlns="http://www.w3.org/2000/svg">
<g clip-path="url(#clip0_117_265)">
<path d="M30.1676 21.8227C28.5272 21.0464 27.3369 19.9739 26.4907 18.9431C25.5338 17.4711 24.8066 16.0326 24.8066 16.0326C23.7799 13.9682 22.6975 12.2896 22.1972 11.584C21.1287 10.0784 19.2391 8.11729 15.6729 6.50036C18.1325 6.02841 22.2419 5.57911 27.0533 6.71232C29.6412 7.32196 31.8898 8.26223 33.8064 9.32207H35.9303C33.7385 7.38809 31.5969 6.1661 29.8049 5.37077C18.4273 0.322484 6.07145 5.77749 0.0864827 9.19525L0 9.32207H9.22575C13.0301 9.32207 16.3768 11.2243 18.3222 14.1049C19.8268 15.6757 20.6229 16.9964 21.0348 17.5943C23.3466 20.9486 27.985 22.4242 28.2343 22.5003C28.7197 22.6489 29.2014 22.7657 29.6766 22.8554C30.6409 23.0393 31.5764 23.1118 32.4552 23.11C33.492 23.1081 34.4499 23.0058 35.2831 22.8636C33.9895 22.9061 32.1278 22.7503 30.1694 21.8227H30.1676Z" fill="url(#paint0_linear_117_265)"/>
<path d="M20.2373 7.48863C22.6979 8.12272 27.0313 9.56573 31.3452 12.9808C30.6208 12.9165 29.9187 12.8956 29.2417 12.9074C30.0322 12.9935 30.8449 13.1058 31.6763 13.2462C31.7999 13.3467 31.9236 13.4491 32.0473 13.5533C32.3988 13.8504 32.7373 14.1502 33.0637 14.4519C31.8325 14.4002 30.6682 14.4682 29.5812 14.6167C30.4506 14.6095 31.3489 14.6285 32.2751 14.6801C32.6518 14.701 33.0219 14.7272 33.3883 14.7571C34.0587 15.3985 34.6734 16.048 35.2369 16.6975C34.9645 16.6875 34.6892 16.6784 34.4102 16.6739C32.8712 16.6495 31.4215 16.7228 30.0731 16.8605C31.1192 16.8397 32.2017 16.8379 33.3166 16.8605C34.0364 16.875 34.7413 16.8995 35.4304 16.9312L35.4331 16.9257C36.059 17.6622 36.6188 18.3968 37.12 19.117C36.8336 19.107 36.5444 19.0998 36.2524 19.0952C34.2112 19.0635 32.2891 19.1605 30.5018 19.3425C31.8892 19.3145 33.3241 19.3126 34.8027 19.3425C35.6619 19.3597 36.5044 19.3878 37.3311 19.425C39.2226 22.2186 40.2306 24.7568 40.7467 26.2632C40.783 26.5567 40.902 27.1727 41.3753 27.7696C42.0551 28.6266 42.9934 28.8467 43.2603 28.8992C42.534 26.2088 41.0517 22.1996 37.8537 18.2193C31.6372 10.4834 23.1972 8.15895 20.2392 7.48682L20.2373 7.48863Z" fill="#312E27"/>
<path d="M6.36109 0L0.0869141 9.19525C6.07189 5.77749 18.4278 0.322481 29.8053 5.37076C31.5973 6.1661 33.7389 7.38808 35.9307 9.32206H43.6398L50.0004 0H6.36109Z" fill="url(#paint1_linear_117_265)"/>
<path d="M29.6746 26.987V22.8554C29.1995 22.7648 28.7187 22.6489 28.2323 22.5003C27.9831 22.4242 23.3447 20.9486 21.0329 17.5942C20.6209 16.9964 19.8249 15.6757 18.3203 14.1049C19.4474 15.7744 20.1039 17.7727 20.1039 19.9205V20.1587C20.487 20.7248 20.9204 21.2883 21.4123 21.8399C23.8375 24.562 26.8747 26.1083 29.6737 26.987H29.6746Z" fill="#312E27"/>
<path d="M21.4129 21.8399C20.921 21.2883 20.4876 20.7248 20.1045 20.1587V50H20.1417L29.6743 36.0291V26.987C26.8752 26.1074 23.8381 24.562 21.4129 21.8399Z" fill="#F8B62D"/>
</g>
<defs>
<linearGradient id="paint0_linear_117_265" x1="29.9676" y1="10.535" x2="10.807" y2="19.2884" gradientUnits="userSpaceOnUse">
<stop stop-color="#FFB706"/>
<stop offset="0.5" stop-color="#ECC950"/>
<stop offset="0.83" stop-color="#ECBD17"/>
<stop offset="1" stop-color="#ECB800"/>
</linearGradient>
<linearGradient id="paint1_linear_117_265" x1="0.0869141" y1="4.66149" x2="50.0004" y2="4.66149" gradientUnits="userSpaceOnUse">
<stop stop-color="#FFD000"/>
<stop offset="0.5" stop-color="#ECC950"/>
<stop offset="0.65" stop-color="#EFC244"/>
<stop offset="1" stop-color="#F8B62D"/>
</linearGradient>
<clipPath id="clip0_117_265">
<rect width="50" height="50" fill="white"/>
</clipPath>
</defs>
</svg>
