<svg width="80" height="80" viewBox="0 0 80 80" fill="none" xmlns="http://www.w3.org/2000/svg">
<rect x="0.5" y="0.5" width="79" height="79" rx="9.5" fill="#FFE663" stroke="#FFD600"/>
<g clip-path="url(#clip0_19_316)">
<path d="M45.3743 39.1321C43.6683 38.3092 42.4304 37.1723 41.5503 36.0796C40.5551 34.5193 39.7988 32.9945 39.7988 32.9945C38.7311 30.8062 37.6054 29.027 37.0851 28.279C35.9739 26.6831 34.0087 24.6043 30.2998 22.8903C32.8578 22.3901 37.1315 21.9138 42.1354 23.115C44.8269 23.7612 47.1654 24.7579 49.1586 25.8814H51.3675C49.088 23.8313 46.8607 22.536 44.9971 21.693C33.1644 16.3418 20.3143 22.1241 14.0899 25.7469L14 25.8814H23.5948C27.5513 25.8814 31.0319 27.8978 33.0551 30.9512C34.6199 32.6162 35.4478 34.0161 35.8762 34.6499C38.2805 38.2055 43.1045 39.7697 43.3636 39.8503C43.8685 40.0078 44.3694 40.1316 44.8636 40.2267C45.8665 40.4216 46.8395 40.4984 47.7534 40.4965C48.8317 40.4946 49.8279 40.3861 50.6944 40.2353C49.3491 40.2805 47.413 40.1153 45.3762 39.1321H45.3743Z" fill="url(#paint0_linear_19_316)"/>
<path d="M20.6151 16L14.09 25.747C20.3143 22.1241 33.1644 16.3418 44.9971 21.693C46.8608 22.5361 49.088 23.8314 51.3675 25.8814H59.3849L66 16H20.6151Z" fill="#312E27"/>
<path d="M35.0464 23.938C37.6054 24.6101 42.1122 26.1397 46.5987 29.7596C45.8453 29.6915 45.1151 29.6694 44.4111 29.6819C45.2331 29.7731 46.0784 29.8921 46.943 30.041C47.0716 30.1476 47.2002 30.2561 47.3288 30.3665C47.6944 30.6814 48.0464 30.9992 48.3859 31.319C47.1054 31.2643 45.8946 31.3363 44.7641 31.4937C45.6683 31.4861 46.6025 31.5062 47.5658 31.561C47.9575 31.583 48.3424 31.6109 48.7234 31.6426C49.4207 32.3224 50.06 33.0109 50.6461 33.6993C50.3627 33.6888 50.0764 33.6792 49.7863 33.6744C48.1857 33.6484 46.678 33.7262 45.2757 33.8722C46.3637 33.8501 47.4894 33.8482 48.649 33.8722C49.3975 33.8875 50.1306 33.9134 50.8472 33.9471L50.8501 33.9413C51.501 34.7219 52.0832 35.5006 52.6045 36.264C52.3066 36.2534 52.0058 36.2458 51.7022 36.241C49.5793 36.2074 47.5803 36.3101 45.7215 36.5031C47.1644 36.4733 48.6567 36.4714 50.1944 36.5031C51.088 36.5213 51.9642 36.5511 52.824 36.5905C54.7911 39.5517 55.8395 42.2422 56.3762 43.839C56.414 44.1501 56.5377 44.803 57.03 45.4358C57.737 46.3442 58.7128 46.5775 58.9904 46.6332C58.235 43.7814 56.6935 39.5316 53.3675 35.3125C46.9023 27.1124 38.1248 24.6485 35.0484 23.936L35.0464 23.938Z" fill="#2C2A24"/>
<path d="M44.8617 44.6061V40.2267C44.3675 40.1307 43.8675 40.0078 43.3617 39.8503C43.1025 39.7696 38.2786 38.2055 35.8743 34.6499C35.4459 34.0161 34.618 32.6162 33.0532 30.9512C34.2254 32.7208 34.9082 34.839 34.9082 37.1156V37.3682C35.3066 37.9683 35.7573 38.5655 36.2689 39.1503C38.7911 42.0357 41.9497 43.6747 44.8608 44.6061H44.8617Z" fill="#FFE663"/>
<path d="M36.2699 39.1503C35.7582 38.5655 35.3076 37.9683 34.9091 37.3682V68.9999H34.9478L44.8617 54.1908V44.6061C41.9507 43.6738 38.7921 42.0357 36.2699 39.1503Z" fill="#2E2B25"/>
</g>
<defs>
<linearGradient id="paint0_linear_19_316" x1="45.1663" y1="27.1671" x2="25.1099" y2="36.1569" gradientUnits="userSpaceOnUse">
<stop stop-color="#2E2B25"/>
<stop offset="0.5" stop-color="#49423B"/>
<stop offset="0.81" stop-color="#1B1614"/>
<stop offset="1" stop-color="#040000"/>
</linearGradient>
<clipPath id="clip0_19_316">
<rect width="52" height="53" fill="white" transform="translate(14 16)"/>
</clipPath>
</defs>
</svg>
